<svg xmlns="http://www.w3.org/2000/svg" width="215px" height="300px"><polygon fill="#fff" points="210.418,2.131 2.258,2.131 2.258,297.893 211.945,297.893 211.945,2.131"/><rect x="7.743" y="7.691" width="198.757" height="284.77"/><rect x="18.239" y="54.592" fill="#fff" width="177.624" height="176.635"/><path d="M212.7,0H0v300h214.2V0H212.7z M211.1,297.1H3.1V2.9h208.1V297.1z"/><path fill="#fff" d="M27.3,248.8c-0,0.3-0,0.6-0.1,0.9c-0.2,2.9-1.2,5.1-4.6,5.1c-5.1,0-5.4-3.1-5.4-7.3v-2.3c0.1-4.1,0.5-7,5.4-7c2.7,0,4.3,1.4,4.5,4.1c0,0.4,0.1,0.8,0.1,1.2h-3c-0.1-1-0-2.9-1.5-2.9c-2.4,0-2.2,2.8-2.2,4v4.4c0,1.3,0.1,3.4,2.2,3.4c1.7,0,1.5-2.6,1.5-3.6H27.3z"/><path fill="#fff" d="M29.6,245.2c0.1-4.1,0.5-7,5.4-7c4.9,0,5.2,3,5.4,7v2.3c0,4.2-0.3,7.3-5.4,7.3c-5,0-5.4-3.1-5.4-7.3V245.2z M32.7,249c0,1.3,0.1,3.4,2.2,3.4c2.2,0,2.2-2.2,2.2-3.7v-4c0-1.3,0.1-4.1-2.2-4.1c-2.4,0-2.2,2.8-2.2,4V249z"/><path fill="#fff" d="M50.5,238.6h3.1v15.8h-3.2l-2.4-5.6c-0.8-1.9-1.5-3.8-2.2-6.3h-0c0.1,1.3,0.2,2.9,0.3,4.5c0.1,1.6,0.1,3.1,0.1,4.4v3h-3.1V238.6h3.2l2.4,5.8c0.8,1.8,1.5,3.7,2.2,6.3h0c-0.1-1.4-0.2-3-0.3-4.5c-0.1-1.5-0.2-3-0.2-4.4V238.6z"/><polygon fill="#fff" points="55.431,238.61 65.667,238.61 65.667,240.936 62.1,240.936 62.1,254.404 59.02,254.404 59.02,240.936 55.431,240.936"/><polygon fill="#fff" points="67.417,254.404 67.417,238.61 76.072,238.61 76.072,240.936 70.498,240.936 70.498,244.914 75.64,244.914 75.64,247.229 70.498,247.229 70.498,252.095 76.072,252.095 76.072,254.404"/><path fill="#fff" d="M85.8,238.6h3.1v15.8h-3.2l-2.4-5.6c-0.8-1.9-1.5-3.8-2.2-6.3h-0c0.1,1.3,0.2,2.9,0.3,4.5c0.1,1.6,0.1,3.1,0.1,4.4v3h-3.1V238.6h3.2l2.4,5.8c0.8,1.8,1.4,3.7,2.2,6.3h0c-0.1-1.4-0.2-3-0.3-4.5c-0.1-1.5-0.2-3-0.2-4.4V238.6z"/><polygon fill="#fff" points="90.77,238.61 101.005,238.61 101.005,240.936 97.419,240.936 97.419,254.404 94.358,254.404 94.358,240.936 90.77,240.936"/><path fill="#fff" d="M111.4,247.6v6.8h-3.1v-15.8h5.8c2.7,0,4.7,0.9,4.7,3.8c0,1.7-0.4,3.5-2.5,3.8v0.1c1.8,0.2,2.4,1.3,2.4,2.9c0,0.6-0.1,4.5,0.7,5v0.3h-3.4c-0.4-1-0.3-3-0.3-4c-0-1,0-2.3-1.1-2.6c-0.8-0.2-1.7-0.2-2.6-0.2H111.4z M111.4,245.3h2.4c1-0.1,1.8-0.7,1.8-2.3c0-1.8-0.8-2.1-1.9-2.1h-2.3V245.3z"/><path fill="#fff" d="M120.4,254.4l3.9-15.8h4.1l3.7,15.8h-3.3l-0.8-4h-3.6l-0.8,4H120.4z M125,248.1h2.6l-0.8-4.5c-0.1-0.7-0.2-1.4-0.3-2.2c-0-0.4-0.1-0.7-0.1-1.1h-0c-0.1,0.3-0.1,0.7-0.1,1.1c-0.1,0.7-0.2,1.4-0.3,2.2L125,248.1z"/><polygon fill="#fff" points="132.818,238.61 143.057,238.61 143.057,240.936 139.485,240.936 139.485,254.404 136.404,254.404 136.404,240.936 132.818,240.936"/><polygon fill="#fff" points="144.818,254.404 144.818,238.61 153.462,238.61 153.462,240.936 147.903,240.936 147.903,244.914 153.012,244.914 153.012,247.229 147.903,247.229 147.903,252.095 153.462,252.095 153.462,254.404"/><path fill="#fff" d="M156,254.4V238.6h6.4c0.8,0,2.2,0.3,3.2,1.8c0.7,1.1,0.9,2.9,0.9,5.5c0,3.1,0,6.7-2.5,8.2c-0.7,0.3-1.5,0.4-2.3,0.4H156z M160.4,252.1c2.7,0,2.9-1.4,2.9-6c0-3.7-0.4-5.2-2.2-5.2h-2v11.2H160.4z"/><path fill="#fff" d="M174.7,254.4v-15.8h4.9c1.3,0,2.6,0.1,3.5,1.2c0.7,0.9,0.8,1.8,0.8,2.8c0,1.4-0.3,2.7-2,3.3v0c1.7,0.2,2.4,1.6,2.4,3.7c0,0.6-0,1.3-0.2,1.9c-0.6,2-1.8,2.9-4,2.9H174.7z M178.4,252.1c0.6,0,1.3,0.1,1.9-0.2c0.8-0.4,0.9-1.4,0.9-2.2c0-1.7-0.3-2.4-2.2-2.4h-1.2v4.8H178.4z M178.3,245c0.8,0,1.7,0,2.2-0.6c0.3-0.4,0.3-0.9,0.3-1.7c0-1.2-0.3-1.8-1.7-1.8h-1.4v4.1H178.3z"/><path fill="#fff" d="M190.8,242.7c0.3,0.8,0.6,1.6,0.7,2.4h0c0.2-1.2,0.6-2.1,1-3l1.4-3.6h3.4l-4.4,9.1v6.7h-3.1v-6.7l-4.3-9.1h3.3L190.8,242.7z"/><polygon fill="#fff" points="17.823,282.422 17.823,259.063 50.979,259.063 50.979,264.541 31.138,264.541 31.138,267.872 47.93,267.872 47.93,273.32 31.138,273.32 31.138,276.974 51.749,276.974 51.749,282.422"/><path fill="#fff" d="M85.1,265.9c-0.2-0.8-0.9-1.3-1.9-1.6c-0.9-0.3-2.1-0.4-3.4-0.4c-2.9,0-4.2,0.5-4.2,1.4c0,3.5,23.4,1.3,23.4,9.8c0,5.4-7.9,8-19,8c-10.7,0-17.7-3.6-18-7.8h12.8c0.3,0.8,1.1,1.5,2.2,1.8c1.1,0.4,2.5,0.6,3.8,0.6c3.3,0,5.5-0.6,5.5-1.7c0-3.5-23.4-1.1-23.4-10c0-5,7.5-7.5,17.6-7.5c11.3,0,16.4,3.3,17.4,7.4H85.1z"/><path fill="#fff" d="M123.2,274.3v8.1h-13.3v-23.4h19.2c13.5,0,18,2.1,18,6.7c0,2.7-2.1,4.9-6.8,5.7c4.3,0.9,6.9,1.5,6.9,6.2c0,3-0.2,4.1,1.4,4.1v0.7h-13.5c-0.3-0.5-0.7-2-0.7-4.1c0-3.1-0.9-4-7.1-4H123.2z M123.2,269.2h5.2c4.1,0,6.3-0.6,6.3-2.2c0-1.6-2.2-2.4-5.4-2.4h-6.2V269.2z"/><path fill="#fff" d="M160.1,282.4v-23.4h19.4c9.2,0,16.4,1.3,16.4,5.9c0,2.4-2.7,4.2-5.3,5.1c4.4,0.6,6.8,2.8,6.8,5.4c0,5.2-6.9,7-17.5,7H160.1z M173.4,272.7v4.3h5.8c3.3,0,5.8-0.4,5.8-2.1c0-2-3.1-2.2-7.3-2.2H173.4z M173.4,264.5v3.9h5.5c2.7,0,4.6-0.7,4.6-2c0-1.8-2.6-1.8-5.4-1.8H173.4z"/><path d="M23.5,70.4c0-5.2,4.6-9.3,10.3-9.3c5.7,0,10.2,4.2,10.2,9.3c0,5.2-4.6,9.4-10.2,9.4C28,79.8,23.5,75.6,23.5,70.4M42.1,70.4c0-4.2-3.7-7.7-8.4-7.7c-4.7,0-8.5,3.5-8.5,7.7c0,4.3,3.8,7.7,8.5,7.7C38.4,78.1,42.1,74.7,42.1,70.4M31.6,71v4.7h-1.9V64.7h3.9c2.2,0,4.5,0.6,4.5,3.1c0,1.3-0.8,2.3-2.4,2.6v0.1c1.6,0.3,1.8,1,2,2.2c0.2,1,0.3,2.2,0.7,3.2h-2.4c-0.1-0.6-0.3-1.3-0.4-2c-0.1-0.9-0.1-1.8-0.7-2.3c-0.5-0.4-1.1-0.4-1.7-0.4H31.6M33.6,69.3c1.7-0.1,2.2-0.8,2.2-1.6c0-0.8-0.4-1.3-1.9-1.3H31.6v2.8H33.6z"/><path fill="#fff" d="M177.5,14.9c-3.1,0-5.9,1.4-5.9,5.3v19.6c0,3.9,2.8,5.3,5.9,5.3c3.1,0,5.9-1.5,5.9-5.3V20.2C183.5,16.4,180.7,14.9,177.5,14.9M178.4,38.9c0,0.8-0.1,1.9-0.9,1.9c-0.8,0-0.9-1.1-0.9-1.9V21.2c0-0.8,0.1-1.9,0.9-1.9c0.8,0,0.9,1.1,0.9,1.9V38.9z"/><path fill="#fff" d="M163.1,14.9c-3.1,0-5.9,1.4-5.9,5.3v19.6c0,3.9,2.8,5.3,5.9,5.3c3.1,0,5.9-1.5,5.9-5.3V20.2C169,16.4,166.2,14.9,163.1,14.9M164,38.9c0,0.8-0.1,1.9-0.9,1.9c-0.8,0-0.9-1.1-0.9-1.9V21.2c0-0.8,0.1-1.9,0.9-1.9c0.8,0,0.9,1.1,0.9,1.9V38.9z"/><polygon fill="#fff" points="149.906,26.033 148.129,26.033 148.129,15.511 143.085,15.511 143.085,44.567 148.129,44.567 148.129,30.68 149.906,30.68 149.906,44.567 154.953,44.567 154.953,15.511 149.906,15.511"/><path fill="#fff" d="M135.2,15.5h-5.9v29.1h5.9c3.1,0,5.9-1.4,5.9-5.3V20.8C141.1,16.9,138.2,15.5,135.2,15.5M136,38.5c0,0.8-0.1,1.9-0.9,1.9h-0.9V19.7h0.9c0.8,0,0.9,1.1,0.9,1.9V38.5z"/><polygon fill="#fff" points="123.326,15.501 118.27,15.501 118.27,44.576 127.762,44.576 127.762,40.426 123.326,40.426"/><rect x="110.35" y="15.501" fill="#fff" width="5.041" height="29.075"/><polygon fill="#fff" points="102.993,26.033 101.201,26.033 101.201,15.511 96.164,15.511 96.164,44.567 101.201,44.567 101.201,30.68 102.993,30.68 102.993,44.567 108.035,44.567 108.035,15.511 102.993,15.511"/><path fill="#fff" d="M87.8,14.9c-3.1,0-5.9,1.4-5.9,5.3v19.6c0,3.9,2.8,5.3,5.9,5.3c3.1,0,6-1.5,6-5.3v-6.7h-5v5.8c0,0.8-0.1,1.9-0.9,1.9c-0.8,0-0.9-1.1-0.9-1.9V21.2c0-0.8,0.1-1.9,0.9-1.9c0.8,0,0.9,1.1,0.9,1.9v4.6h5v-5.5C93.8,16.4,90.9,14.9,87.8,14.9"/><polygon fill="#fff" points="72.065,27.078 71.98,27.078 70.374,15.501 65.092,15.501 69.278,29.981 69.278,44.567 74.316,44.567 74.316,29.981 78.174,15.501 73.62,15.501"/><polygon fill="#fff" points="61.721,15.524 56.663,15.524 56.663,44.567 66.169,44.567 66.169,40.397 61.721,40.397"/><path fill="#fff" d="M54.2,33.7c0-3.3-0.7-4.7-3.9-4.9v-0.1c3-0.2,3.9-2.5,3.9-4.8v-2.5c0-4.5-2.8-5.9-5.9-5.9h-5.9v29.1h5V31c1.8,0,1.8,1.4,1.8,3.2v6.6c0,2,0.3,2.9,0.7,3.7h5.1c-0.3-1.1-0.8-2.3-0.8-5.2V33.7z M49.2,25.8c0,1.4-0.4,1.9-1.2,1.9h-0.6v-8h0.6c0.8,0,1.2,0.4,1.2,1.8V25.8z"/><path fill="#fff" d="M31.1,15.5l-3.8,29.1h4.5l0.8-7.9h2.4l0.5,7.9h5.3l-3-29.1H31.1z M33,32.5l0.8-11.9h0.1l0.7,11.9H33z"/><polygon fill="#fff" points="16.605,44.567 26.04,44.567 26.04,40.426 21.64,40.426 21.64,30.484 25.847,30.484 25.847,26.336 21.64,26.336 21.64,19.704 26.04,19.704 26.04,15.501 16.605,15.501"/><path fill="#fff" d="M191.8,15.5h-5.9v29.1h5.9c3.1,0,5.9-1.4,5.9-5.3V20.8C197.8,16.9,194.9,15.5,191.8,15.5M192.7,38.5c0,0.8-0.1,1.9-0.9,1.9h-0.9V19.7h0.9c0.8,0,0.9,1.1,0.9,1.9V38.5z"/><path d="M48.7,151.5c0.5,3.5,1.1,7.1,2.2,10.7c0.9,3,2,5.9,3.1,8.7l16-3.9C67.2,156.5,60.1,149.5,48.7,151.5"/><path d="M190.7,142.3l-42.5,10.4c1.6,11.6-2.6,21.9-16.8,25.4c-22.5,5.5-31.1-8.9-35.9-25.4c-6.6-22.6-0.7-36.5,14.9-40.3c13.9-3.4,24.7,1.4,29.6,13.3l41.9-10.3c-12.4-29.2-40.6-41.3-81.8-31.2c-30.7,7.5-51.4,29.4-52,57.8c18.9-3.1,31.1,6.8,36.2,24.1l1.8,6.1l-27.9,6.8c4,6.8,9,12.6,14.9,17.2c1.6-2.7,2.1-6.1,1.6-10.5l13.5-3.3c1.2,8.1-0.9,14.8-5.6,19.9c15.5,8,35.4,9.7,57.9,4.2C176.1,197.9,195.6,173.5,190.7,142.3"/><path d="M62.1,203.1c-13.2,3.2-21.5-7.4-23.9-19.1l20-4.9c-1.5-2.6-2.9-5.3-4.1-8.2l-18.4,4.5c-3.1-10.7,0.7-20.9,11.4-23.6c0.6-0.2,1.2-0.3,1.7-0.3c-0.4-3.2-0.7-6.4-0.6-9.4c-0.9,0.1-1.8,0.3-2.8,0.5c-21.5,5.3-26.8,23.8-21.2,42.9c5.7,19.2,18.7,32,40.5,26.7c7.7-1.9,13.9-5.2,18-9.8c-3.4-1.7-6.5-3.8-9.5-6.1C71.1,199.6,67.6,201.8,62.1,203.1"/></svg>