<?xml version="1.0" encoding="UTF-8"?> <svg xmlns="http://www.w3.org/2000/svg" width="60.42" height="90.628" viewBox="0 0 60.42 90.628"><g id="Group_404" data-name="Group 404" transform="translate(-960 -867)"><g id="Group_275" data-name="Group 275" transform="translate(960 867)"><path id="Path_243" data-name="Path 243" d="M217.98,513.479H157.561v90.628H217.98V513.479Z" transform="translate(-157.561 -513.479)" fill="#fff"></path><g id="Group_257" data-name="Group 257" transform="translate(0.878 0.972)"><g id="Group_254" data-name="Group 254"><path id="Path_244" data-name="Path 244" d="M216.8,514.118V602.8H158.138V514.118H216.8" transform="translate(-158.138 -514.118)" fill="#1a1818"></path></g><rect id="Rectangle_182" data-name="Rectangle 182" width="52.336" height="14.704" transform="translate(2.952 3.152)" fill="#fff"></rect><rect id="Rectangle_183" data-name="Rectangle 183" width="52.366" height="54.062" transform="translate(2.928 21.065)" fill="#fff"></rect><g id="Group_255" data-name="Group 255" transform="translate(2.939 78.13)"><path id="Path_245" data-name="Path 245" d="M160.068,572.732v-7.178h10.513v1.68h-6.29v1.026h5.323v1.674h-5.323v1.124h6.534v1.674Z" transform="translate(-160.068 -565.375)" fill="#fff"></path><path id="Path_246" data-name="Path 246" d="M175.532,567.706a.794.794,0,0,0-.609-.486,3.842,3.842,0,0,0-1.092-.132c-.929,0-1.344.151-1.344.419,0,1.061,7.414.4,7.414,3.007,0,1.661-2.494,2.474-6.034,2.474-3.4,0-5.621-1.107-5.711-2.4H172.2a1.033,1.033,0,0,0,.7.566,3.823,3.823,0,0,0,1.2.181c1.055,0,1.758-.187,1.758-.527,0-1.088-7.419-.342-7.419-3.078,0-1.524,2.364-2.29,5.589-2.29,3.576,0,5.208,1.015,5.516,2.27Z" transform="translate(-155.842 -565.436)" fill="#fff"></path><path id="Path_247" data-name="Path 247" d="M181.473,568.667h1.661c1.308,0,2.01-.19,2.01-.685s-.716-.749-1.7-.749h-1.969Zm0,1.564v2.5H177.25v-7.178h6.088c4.29,0,5.708.656,5.708,2.051,0,.83-.661,1.519-2.165,1.761,1.36.273,2.185.443,2.185,1.891,0,.933-.055,1.258.446,1.258v.218h-4.283a2.793,2.793,0,0,1-.212-1.256c0-.942-.286-1.245-2.255-1.245Z" transform="translate(-151.092 -565.374)" fill="#fff"></path><path id="Path_248" data-name="Path 248" d="M190.925,567.233v1.2h1.76c.842,0,1.452-.216,1.452-.627,0-.562-.833-.574-1.72-.574Zm0,2.5v1.323h1.842c1.047,0,1.833-.122,1.833-.658,0-.627-.982-.665-2.332-.665Zm-4.222,3v-7.178h6.161c2.9,0,5.211.39,5.211,1.81,0,.74-.863,1.279-1.684,1.559,1.395.2,2.144.874,2.144,1.644,0,1.6-2.2,2.165-5.551,2.165Z" transform="translate(-146.153 -565.374)" fill="#fff"></path></g><path id="Path_249" data-name="Path 249" d="M162.932,540.039l40.512-10.1,3.116,10.8-13.017,3.244,8.729,30.336-14.484,3.613-8.735-30.336-13.01,3.247Z" transform="translate(-155.634 -505.854)" fill="#1a1818"></path><g id="Group_256" data-name="Group 256" transform="translate(4.406 6.337)"><path id="Path_250" data-name="Path 250" d="M186.381,518.28h3.44l3.991,4.544-.138-1.9V518.28h3.518v8.32h-3.436l-4-4.532.067,1.964.074,2.568h-3.518Z" transform="translate(-147.788 -518.28)" fill="#1a1818"></path><path id="Path_251" data-name="Path 251" d="M178.241,518.28h9.123v1.933h-5.458v1.2h4.618v1.942h-4.618v1.3h5.675V526.6h-9.34Z" transform="translate(-152.04 -518.28)" fill="#1a1818"></path><path id="Path_252" data-name="Path 252" d="M169.818,518.28h9.125v1.933h-5.458v1.2H178.1v1.942h-4.616v1.3h5.679V526.6h-9.346Z" transform="translate(-156.441 -518.28)" fill="#1a1818"></path><path id="Path_253" data-name="Path 253" d="M161.032,518.28h10.26v2.183H168V526.6h-3.675v-6.137h-3.294Z" transform="translate(-161.032 -518.28)" fill="#1a1818"></path></g></g></g></g></svg> 