<?xml version="1.0" encoding="utf-8"?>
<!-- Generator: Adobe Illustrator 27.2.0, SVG Export Plug-In . SVG Version: 6.00 Build 0)  -->
<svg version="1.1" id="레이어_1" xmlns="http://www.w3.org/2000/svg" xmlns:xlink="http://www.w3.org/1999/xlink" x="0px"
	 y="0px" viewBox="0 0 720 834.69" enable-background="new 0 0 720 834.69" xml:space="preserve">
<g>
	<rect x="21.597" y="23.875" fill="#44A342" width="660.169" height="695.359"/>
	<path fill="#FFFFFF" d="M556.866,674.714L477.189,82.148H212.076l-75.761,592.965l177.216-1.126v-43.874h63.717v44.602H556.866z
		 M318.292,515.422l26.333-249.205l26.349,249.205H318.292z"/>
	<polygon fill="#9CA3AB" points="491.938,553.652 491.938,407.103 409.107,407.103 409.107,557.535 409.107,617.369 
		494.723,617.369 536.54,617.369 536.54,553.652 	"/>
	<polygon fill="#FFFFFF" points="638.487,553.652 638.487,407.103 549.284,407.103 549.284,557.535 549.284,617.369 
		636.736,617.369 683.089,617.369 683.089,553.652 	"/>
	<path fill="#231F20" d="M669.027,0H50.973C26.333,0,0,26.532,0,51.365v731.96c0,24.821,26.333,51.365,50.973,51.365h618.053
		c24.631,0,50.973-26.544,50.973-51.365V51.365C720,26.532,693.658,0,669.027,0 M675.314,627.412
		c0,21.267-17.121,38.528-38.23,38.528H82.913c-21.116,0-38.236-17.261-38.236-38.528V81.65c0-21.274,17.121-38.523,38.236-38.523
		h554.171c21.109,0,38.23,17.248,38.23,38.523V627.412z"/>
	<path fill="#FFFFFF" d="M142.401,708.177v9.769h-21.485c0,8.544,2.893,15.967,8.677,22.245c4.607,4.928,10.833,9.01,18.707,12.196
		l-7.461,7.784c-5.784-2.29-11.138-4.934-16.032-7.958c-5.339-3.311-9.389-6.627-12.13-9.95c-2.601,3.261-6.568,6.577-11.916,9.95
		c-4.894,3.024-10.162,5.668-15.808,7.958l-6.676-7.784c7.715-3.067,13.77-7.131,18.147-12.196
		c5.345-6.147,8.014-13.57,8.014-22.245H84.07v-9.769H142.401z M105.88,782.69h66.909v9.769h-68.794
		c-5.271,0-9.057-0.753-11.356-2.272c-2.153-1.487-3.23-3.938-3.23-7.311v-18.456h16.471V782.69z M172.011,769.86h-16.477v-32.842
		h-18.148v-9.844h18.148v-20.802h16.477V769.86z"/>
	<path fill="#FFFFFF" d="M212.997,714.412v-8.506h16.471v8.506h15.584v9.682h-15.584v14c0,10.441,1.929,19.501,5.784,27.236
		c3.204,6.446,7.576,11.617,13.145,15.462l-10.13,6.241c-4.231-2.949-7.684-6.322-10.354-10.124c-3.338-4.592-5.6-9.918-6.792-16.01
		c-1.409,6.142-3.824,11.512-7.233,16.091c-2.969,3.864-6.714,7.199-11.244,10.043l-9.016-6.241
		c5.784-3.802,10.307-8.917,13.583-15.376c3.855-7.535,5.787-16.638,5.787-27.322v-14h-15.363v-9.682H212.997z M237.049,749.494
		v-9.483h13.462v-33.638h16.471v86.995h-16.471v-43.874H237.049z M292.036,793.368H275.56v-86.995h16.477V793.368z"/>
	<path fill="#FFFFFF" d="M371.098,717.847c5.046,7.292,7.57,16.589,7.57,27.851c0,11.935-2.523,21.66-7.57,29.121
		c-5.348,8.133-12.84,12.214-22.488,12.214c-9.723,0-17.292-4.082-22.714-12.214c-4.969-7.461-7.455-17.186-7.455-29.121
		c0-11.263,2.486-20.559,7.455-27.851c5.491-7.952,13.066-11.94,22.714-11.94C358.18,705.906,365.681,709.895,371.098,717.847
		 M338.256,724.362c-2.153,5.482-3.229,12.569-3.229,21.255c0,9.408,1.076,16.968,3.229,22.687
		c2.371,6.147,5.787,9.234,10.239,9.234c4.377,0,7.756-3.086,10.134-9.234c2.221-5.719,3.338-13.279,3.338-22.687
		c0-8.687-1.117-15.774-3.338-21.255c-2.455-5.973-5.831-8.948-10.134-8.948C344.117,715.414,340.705,718.389,338.256,724.362
		 M408.721,793.368h-16.477v-86.995h16.477V793.368z"/>
	<path fill="#FFFFFF" d="M443.582,731.231c-2.153-2.29-3.223-4.741-3.223-7.312c0-5.021,3.562-9.196,10.684-12.594
		c7.862-3.609,18.664-5.42,32.394-5.42c13.655,0,24.456,1.811,32.393,5.42c7.202,3.397,10.802,7.573,10.802,12.594
		c0,2.57-1.117,5.022-3.339,7.312c-2.377,2.352-5.718,4.399-10.024,6.147v9.321h18.375v9.85h-96.409v-9.85h18.148v-9.321
		C449.073,735.63,445.813,733.583,443.582,731.231 M514.492,766.96c6.978,3.186,10.469,7.131,10.469,11.841
		c0,4.58-3.49,8.462-10.469,11.673c-7.722,3.547-18.101,5.327-31.165,5.327c-13.138,0-23.568-1.78-31.283-5.327
		c-6.901-3.211-10.348-7.093-10.348-11.673c0-4.71,3.447-8.655,10.348-11.841c7.715-3.566,18.145-5.345,31.283-5.345
		C496.391,761.615,506.77,763.394,514.492,766.96 M463.845,718.301c-4.309,1.45-6.456,3.304-6.456,5.619
		c0,2.215,2.147,4.051,6.456,5.501c4.676,1.581,11.131,2.352,19.37,2.352s14.731-0.772,19.482-2.352
		c4.296-1.45,6.449-3.285,6.449-5.501c0-2.314-2.153-4.169-6.449-5.619c-4.751-1.506-11.244-2.265-19.482-2.265
		S468.521,716.796,463.845,718.301 M464.399,773.836c-4.157,1.307-6.226,2.943-6.226,4.878c0,1.929,2.069,3.554,6.226,4.891
		c4.676,1.493,11.022,2.24,19.037,2.24c7.793,0,13.988-0.747,18.592-2.24c4.225-1.337,6.34-2.962,6.34-4.891
		c0-1.935-2.115-3.571-6.34-4.878c-4.604-1.45-10.799-2.178-18.592-2.178C475.421,771.658,469.075,772.386,464.399,773.836
		 M496.798,746.7v-5.6c-1.938,0.231-4.054,0.442-6.353,0.616c-2.078,0.137-4.409,0.187-7.009,0.187c-2.67,0-5.053-0.05-7.122-0.187
		c-2.377-0.174-4.533-0.385-6.462-0.616v5.6H496.798z"/>
	<path fill="#FFFFFF" d="M606.915,708.177v26.949c0,12.893-4.16,23.726-12.47,32.456c-7.715,8.026-19.183,14.492-34.4,19.451
		l-6.562-7.411c11.132-3.87,19.771-8.786,25.931-14.753c7.424-7.174,11.138-15.817,11.138-25.941v-20.901h-34.4v-9.85H606.915z
		 M643.872,706.373v35.262h11.247v9.962h-11.247v41.771h-16.477v-86.995H643.872z"/>
</g>
</svg>
