<?xml version="1.0" encoding="utf-8"?>
<!-- Generator: Adobe Illustrator 27.2.0, SVG Export Plug-In . SVG Version: 6.00 Build 0)  -->
<svg version="1.1" id="레이어_1" xmlns="http://www.w3.org/2000/svg" xmlns:xlink="http://www.w3.org/1999/xlink" x="0px"
	 y="0px" viewBox="0 0 720 834.694" enable-background="new 0 0 720 834.694" xml:space="preserve">
<g>
	<rect x="21.604" y="23.875" fill="#F9B846" width="660.172" height="695.356"/>
	<path fill="#9CA3AB" d="M322.011,88.52c-69.815,89.204-161.396,95.184-174.139,95.42v81.295c0,0,7.971,0.131,65.012,0.298
		c37.44,0.1,36.936,37.285,36.936,37.285v371.899H376.88h312.587v-62.404v-164.27V158.677V88.52H322.011z"/>
	<path fill="#FFFFFF" d="M702.21,235.069V126.75H389.996v318.585h146.549v-31.89c0-17.734,13.453-32.101,28.673-32.101
		c15.22,0,28.673,14.368,28.673,32.101v199.041c0,17.734-13.453,32.107-28.673,32.107c-15.22,0-28.673-14.373-28.673-32.107V600.49
		v-91.438H389.996v30.433c0,136.606,5.14,162.242,130.819,161.95c0,0,168.72,16.085,168.72-98.817l2.47-172.379
		c1.73-119.525-4.306-146.393-66.144-146.393c-47.302,0-70.201,18.306-89.316,39.717v-88.495H702.21z"/>
	<path fill="#231F20" d="M669.026,0H50.974C26.339,0,0,26.538,0,51.366v731.963c0,24.815,26.339,51.366,50.974,51.366h618.053
		c24.641,0,50.974-26.551,50.974-51.366V51.366C720,26.538,693.667,0,669.026,0 M675.317,627.414
		c0,21.268-17.124,38.523-38.23,38.523H82.913c-21.109,0-38.23-17.255-38.23-38.523V81.65c0-21.274,17.121-38.523,38.23-38.523
		h554.174c21.106,0,38.23,17.248,38.23,38.523V627.414z"/>
	<path fill="#FFFFFF" d="M105.432,708.099v78.67H89.739v-48.926c0-2.408-0.127-4.212-0.395-5.426
		c-0.261-1.207-0.79-2.109-1.611-2.719c-1.046-0.772-2.43-1.313-4.182-1.624c-1.739-0.292-4.461-0.442-8.176-0.442h-2.343v-7.057
		c5.582-0.902,10.289-2.383,14.131-4.436c3.873-2.042,7.314-4.735,10.367-8.04H105.432z"/>
	<path fill="#FFFFFF" d="M175.362,708v9.676h-37.179v21.436c3.631-4.349,9.461-6.514,17.485-6.514
		c16.252,0,24.37,6.969,24.37,20.895v8.941c0,8.456-2.001,14.89-6.002,19.302c-4.014,4.437-11.061,6.633-21.162,6.565
		c-19.292-0.181-28.94-7.237-28.94-21.162v-3.261h15.248v3.901c0,3.006,1.008,5.495,3.008,7.449
		c2.013,1.973,5.339,2.949,10.025,2.949c4.53,0,7.747-1.12,9.682-3.336c1.92-2.24,2.893-5.861,2.893-10.864v-9.944
		c0-4.156-1.095-7.199-3.273-9.091c-2.2-1.904-5.526-2.844-9.968-2.844c-3.345,0-6.229,0.939-8.696,2.794
		c-2.439,1.879-3.671,3.764-3.671,5.706h-14.8V708H175.362z"/>
	<path fill="#FFFFFF" d="M228.377,705.381v29.121c0,10.179,2.047,19.582,6.117,28.218c3.64,7.641,8.03,13.054,13.142,16.178
		l-10.248,6.421c-3.855-2.776-7.308-6.353-10.354-10.765c-3.255-4.754-5.631-9.85-7.115-15.282
		c-1.416,5.432-3.793,10.528-7.125,15.282c-3.115,4.412-6.683,7.99-10.693,10.765l-9.461-6.421
		c4.754-3.379,8.948-8.761,12.578-16.178c4.461-8.861,6.677-18.269,6.677-28.218v-29.121H228.377z M267.677,704.659v86.995h-16.253
		v-44.309h-11.813v-10.23h11.813v-32.456H267.677z M292.044,791.654h-16.247v-86.995h16.247V791.654z"/>
	<path fill="#FFFFFF" d="M371.106,716.139c5.04,7.299,7.573,16.589,7.573,27.851c0,11.934-2.533,21.654-7.573,29.114
		c-5.348,8.139-12.834,12.215-22.481,12.215c-9.722,0-17.292-4.076-22.721-12.215c-4.956-7.461-7.448-17.18-7.448-29.114
		c0-11.263,2.492-20.553,7.448-27.851c5.507-7.959,13.07-11.941,22.721-11.941C358.194,704.198,365.689,708.18,371.106,716.139
		 M338.276,722.647c-2.159,5.489-3.229,12.576-3.229,21.262c0,9.401,1.07,16.962,3.229,22.68c2.365,6.154,5.781,9.234,10.227,9.234
		c4.39,0,7.756-3.08,10.139-9.234c2.222-5.718,3.332-13.279,3.332-22.68c0-8.687-1.111-15.774-3.332-21.262
		c-2.448-5.967-5.824-8.941-10.139-8.941C344.132,713.706,340.718,716.68,338.276,722.647 M408.726,791.654h-16.477v-86.995h16.477
		V791.654z"/>
	<path fill="#FFFFFF" d="M443.596,729.523c-2.152-2.289-3.216-4.741-3.216-7.317c0-5.015,3.559-9.191,10.677-12.575
		c7.865-3.622,18.661-5.432,32.394-5.432c13.652,0,24.46,1.811,32.4,5.432c7.199,3.385,10.795,7.56,10.795,12.575
		c0,2.576-1.114,5.028-3.348,7.317c-2.365,2.352-5.712,4.4-10.012,6.148v9.321h18.375v9.85h-96.409v-9.85h18.144v-9.321
		C449.09,733.923,445.824,731.875,443.596,729.523 M514.512,765.246c6.981,3.192,10.466,7.143,10.466,11.841
		c0,4.586-3.485,8.469-10.466,11.673c-7.716,3.553-18.101,5.327-31.162,5.327c-13.135,0-23.577-1.774-31.298-5.327
		c-6.894-3.204-10.348-7.087-10.348-11.673c0-4.698,3.453-8.649,10.348-11.841c7.722-3.566,18.163-5.345,31.298-5.345
		C496.412,759.901,506.797,761.68,514.512,765.246 M463.862,716.593c-4.306,1.457-6.465,3.311-6.465,5.613
		c0,2.215,2.159,4.057,6.465,5.507c4.673,1.58,11.132,2.352,19.37,2.352c8.239,0,14.735-0.772,19.488-2.352
		c4.288-1.45,6.434-3.292,6.434-5.507c0-2.302-2.147-4.156-6.434-5.613c-4.754-1.512-11.25-2.258-19.488-2.258
		C474.994,714.335,468.535,715.081,463.862,716.593 M464.422,772.122c-4.156,1.313-6.228,2.943-6.228,4.878
		c0,1.929,2.072,3.559,6.228,4.891c4.679,1.494,11.02,2.252,19.028,2.252c7.797,0,14-0.759,18.599-2.252
		c4.225-1.332,6.34-2.962,6.34-4.891c0-1.935-2.115-3.566-6.34-4.878c-4.599-1.45-10.802-2.172-18.599-2.172
		C475.442,769.95,469.102,770.672,464.422,772.122 M496.816,744.992v-5.607c-1.935,0.23-4.051,0.448-6.347,0.628
		c-2.078,0.125-4.418,0.18-7.019,0.18c-2.669,0-5.046-0.055-7.119-0.18c-2.377-0.18-4.523-0.398-6.465-0.628v5.607H496.816z"/>
	<path fill="#FFFFFF" d="M606.933,706.47v26.949c0,12.893-4.163,23.726-12.469,32.462c-7.722,8.014-19.19,14.492-34.403,19.439
		l-6.571-7.411c11.132-3.864,19.781-8.774,25.948-14.747c7.423-7.174,11.138-15.817,11.138-25.947V716.32h-34.416v-9.85H606.933z
		 M643.894,704.659v35.269h11.231v9.949h-11.231v41.777h-16.483v-86.995H643.894z"/>
</g>
</svg>
