<?xml version="1.0" encoding="utf-8"?>
<!-- Generator: Adobe Illustrator 27.2.0, SVG Export Plug-In . SVG Version: 6.00 Build 0)  -->
<svg version="1.1" id="레이어_1" xmlns="http://www.w3.org/2000/svg" xmlns:xlink="http://www.w3.org/1999/xlink" x="0px"
	 y="0px" viewBox="0 0 720 834.69" enable-background="new 0 0 720 834.69" xml:space="preserve">
<g>
	<rect x="21.598" y="23.875" fill="#4369B1" width="660.169" height="695.359"/>
	<path fill="#9CA3AB" d="M315.551,82.148c-69.815,95.575-161.311,101.555-174.055,101.785v81.301c0,0,7.971,0.124,65.008,0.298
		c37.443,0.1,36.939,37.291,36.939,37.291v378.262h126.973h312.673v-68.77V448.04V158.67V82.148H315.551z"/>
	<path fill="#FFFFFF" d="M683.089,158.67c-38.23-30.24-69.98-37.651-127.624-37.651c-71.448,0-130.501,26.787-151.246,66.212
		c-22.643,43.021-26.971,68.259-26.971,138.236v17.92h152.92v-53.4c0-22.936,4.402-65.26,36.152-65.26
		c32.963,0,34.745,29.09,29.79,66.729c-3.021,22.873-24.824,66.324-38.557,88.762c-16.561,27.011-122.959,198.679-173.933,273.092
		v27.777h296.442l-8.864-42.206L569.5,636.11c31.165-48.957,100.846-157.612,113.589-188.07V158.67z"/>
	<path fill="#231F20" d="M669.027,0H50.973C26.333,0,0,26.532,0,51.365v731.96c0,24.821,26.333,51.365,50.973,51.365h618.053
		c24.631,0,50.973-26.544,50.973-51.365V51.365C720,26.532,693.658,0,669.027,0 M675.314,627.412
		c0,21.267-17.121,38.528-38.23,38.528H82.913c-21.116,0-38.236-17.261-38.236-38.528V81.65c0-21.274,17.121-38.523,38.236-38.523
		h554.171c21.109,0,38.23,17.248,38.23,38.523V627.412z"/>
	<path fill="#FFFFFF" d="M105.916,709.808v78.675H90.224v-48.932c0-2.408-0.134-4.207-0.389-5.426
		c-0.268-1.201-0.803-2.103-1.618-2.719c-1.039-0.765-2.436-1.313-4.182-1.624c-1.745-0.292-4.467-0.442-8.183-0.442h-2.337v-7.056
		c5.569-0.896,10.283-2.383,14.137-4.437c3.861-2.034,7.314-4.735,10.354-8.039H105.916z"/>
	<path fill="#FFFFFF" d="M178.41,778.359v10.123H125.2v-11.312c4.309-5.613,9.131-11.132,14.47-16.595
		c5.339-5.445,9.725-9.682,13.138-12.657c3.416-2.993,6.359-6.135,8.845-9.457c2.492-3.304,3.733-6.378,3.733-9.222
		c0-4.026-0.98-6.901-2.949-8.587c-1.97-1.686-5.326-2.52-10.074-2.52c-4.231,0-7.296,0.915-9.187,2.732
		c-1.889,1.848-2.837,4.58-2.837,8.195v7.517H125.2v-3.074c0-8.145,1.994-14.386,6.007-18.723c4.01-4.344,10.759-6.521,20.263-6.521
		c9.278,0,16.452,1.892,21.542,5.656c5.087,3.771,7.623,8.736,7.623,14.884c0,4.032-1.039,7.828-3.118,11.399
		c-2.069,3.541-4.561,6.652-7.461,9.296c-2.893,2.663-7.271,6.745-13.132,12.258c-5.861,5.513-11.284,11.045-16.246,16.608H178.41z"
		/>
	<path fill="#FFFFFF" d="M228.854,707.095v29.12c0,10.174,2.041,19.576,6.123,28.218c3.64,7.635,8.017,13.049,13.138,16.172
		l-10.245,6.428c-3.861-2.781-7.308-6.359-10.354-10.771c-3.26-4.754-5.638-9.844-7.115-15.276
		c-1.416,5.432-3.787,10.522-7.131,15.276c-3.117,4.412-6.676,7.989-10.687,10.771l-9.461-6.428
		c4.748-3.373,8.939-8.761,12.579-16.172c4.452-8.867,6.676-18.275,6.676-28.218v-29.12H228.854z M268.155,706.373v86.995h-16.259
		v-44.316h-11.801v-10.223h11.801v-32.456H268.155z M292.534,793.368h-16.253v-86.995h16.253V793.368z"/>
	<path fill="#FFFFFF" d="M371.589,717.847c5.046,7.292,7.576,16.589,7.576,27.851c0,11.935-2.53,21.66-7.576,29.121
		c-5.342,8.139-12.833,12.214-22.481,12.214c-9.722,0-17.298-4.075-22.715-12.214c-4.968-7.461-7.46-17.186-7.46-29.121
		c0-11.263,2.492-20.559,7.46-27.851c5.492-7.952,13.064-11.94,22.715-11.94C358.672,705.906,366.172,709.895,371.589,717.847
		 M338.754,724.356c-2.153,5.488-3.236,12.575-3.236,21.262c0,9.408,1.083,16.968,3.236,22.687
		c2.371,6.147,5.787,9.234,10.232,9.234c4.384,0,7.763-3.086,10.134-9.234c2.228-5.719,3.338-13.279,3.338-22.687
		c0-8.687-1.111-15.774-3.338-21.262c-2.449-5.967-5.824-8.941-10.134-8.941C344.615,715.414,341.202,718.389,338.754,724.356
		 M409.212,793.368h-16.477v-86.995h16.477V793.368z"/>
	<path fill="#FFFFFF" d="M444.083,731.231c-2.153-2.29-3.223-4.741-3.223-7.312c0-5.021,3.562-9.196,10.684-12.582
		c7.861-3.615,18.664-5.432,32.393-5.432c13.655,0,24.457,1.817,32.394,5.432c7.203,3.385,10.802,7.561,10.802,12.582
		c0,2.57-1.123,5.022-3.345,7.312c-2.37,2.352-5.712,4.399-10.018,6.147v9.321h18.368v9.85h-96.403v-9.85h18.147v-9.321
		C449.567,735.63,446.313,733.583,444.083,731.231 M514.992,766.954c6.978,3.192,10.469,7.143,10.469,11.848
		c0,4.58-3.49,8.462-10.469,11.667c-7.716,3.553-18.101,5.332-31.165,5.332c-13.135,0-23.567-1.78-31.282-5.332
		c-6.901-3.205-10.348-7.087-10.348-11.667c0-4.704,3.447-8.655,10.348-11.848c7.715-3.559,18.147-5.338,31.282-5.338
		C496.891,761.615,507.276,763.394,514.992,766.954 M464.339,718.301c-4.303,1.45-6.45,3.31-6.45,5.619
		c0,2.203,2.147,4.051,6.45,5.501c4.682,1.581,11.138,2.352,19.376,2.352c8.238,0,14.731-0.772,19.476-2.352
		c4.303-1.45,6.456-3.298,6.456-5.501c0-2.308-2.153-4.169-6.456-5.619c-4.744-1.506-11.238-2.265-19.476-2.265
		C475.477,716.036,469.021,716.796,464.339,718.301 M464.899,773.836c-4.153,1.307-6.232,2.937-6.232,4.872
		c0,1.929,2.078,3.559,6.232,4.897c4.676,1.493,11.023,2.247,19.037,2.247c7.794,0,13.988-0.753,18.593-2.247
		c4.225-1.337,6.34-2.968,6.34-4.897c0-1.935-2.115-3.566-6.34-4.872c-4.605-1.45-10.799-2.178-18.593-2.178
		C475.922,771.658,469.575,772.386,464.899,773.836 M497.299,746.7v-5.6c-1.938,0.231-4.054,0.442-6.347,0.622
		c-2.084,0.124-4.415,0.18-7.016,0.18c-2.675,0-5.052-0.056-7.121-0.18c-2.377-0.18-4.53-0.392-6.462-0.622v5.6H497.299z"/>
	<path fill="#FFFFFF" d="M607.407,708.177v26.949c0,12.893-4.154,23.726-12.461,32.462c-7.725,8.02-19.193,14.492-34.403,19.444
		l-6.568-7.411c11.138-3.87,19.778-8.78,25.938-14.753c7.424-7.174,11.132-15.817,11.132-25.941v-20.901h-34.4v-9.85H607.407z
		 M644.37,706.373v35.262h11.241v9.956H644.37v41.777h-16.477v-86.995H644.37z"/>
</g>
</svg>
