<?xml version="1.0" encoding="UTF-8" standalone="no"?>
<svg
   xmlns:dc="http://purl.org/dc/elements/1.1/"
   xmlns:cc="http://creativecommons.org/ns#"
   xmlns:rdf="http://www.w3.org/1999/02/22-rdf-syntax-ns#"
   xmlns:svg="http://www.w3.org/2000/svg"
   xmlns="http://www.w3.org/2000/svg"
   xmlns:sodipodi="http://sodipodi.sourceforge.net/DTD/sodipodi-0.dtd"
   xmlns:inkscape="http://www.inkscape.org/namespaces/inkscape"
   version="1.0"
   width="1875"
   height="1875"
   id="svg2">
  <defs
     id="defs4" />
  <g
     transform="matrix(15.293834,0,0,15.293888,18363.696,2924.5048)"
     id="layer1">
    <g
       transform="translate(-39.552126,-5.9283973)"
       id="g4128">
      <rect
         width="120.41093"
         height="120.41093"
         rx="10.629922"
         ry="10.629921"
         x="-1160.0796"
         y="-184.19835"
         id="rect2389"
         style="fill:#ffffff;fill-opacity:0.701961;stroke:#ffffff;stroke-width:2.1875;stroke-linecap:butt;stroke-linejoin:miter;stroke-miterlimit:4;stroke-dasharray:none;stroke-opacity:1" />
      <rect
         width="77.257874"
         height="77.257874"
         rx="6.8203545"
         ry="6.820354"
         x="-904.03357"
         y="651.42334"
         transform="rotate(45)"
         id="rect3218"
         style="fill:#ffffff;fill-opacity:1;stroke:#000000;stroke-width:1.25;stroke-linecap:butt;stroke-linejoin:miter;stroke-miterlimit:4;stroke-dasharray:none;stroke-opacity:1" />
      <path
         d="m -1113.7675,-161.78914 h 1.9695 v 5.28323 c 0,0.8384 0.024,1.3818 0.073,1.63021 0.084,0.39924 0.285,0.71974 0.6022,0.96149 0.3172,0.24176 0.7508,0.36264 1.3008,0.36264 0.559,0 0.9804,-0.11422 1.2643,-0.34267 0.2839,-0.22845 0.4547,-0.50903 0.5123,-0.84173 0.058,-0.33269 0.087,-0.88497 0.087,-1.65683 v -5.39634 h 1.9696 v 5.12353 c 0,1.1711 -0.053,1.9984 -0.1597,2.48192 -0.1065,0.48352 -0.3028,0.89163 -0.5889,1.22432 -0.2861,0.3327 -0.6687,0.59775 -1.1478,0.79515 -0.4791,0.1974 -1.1045,0.2961 -1.8764,0.2961 -0.9315,0 -1.638,-0.10757 -2.1193,-0.32272 -0.4813,-0.21514 -0.8616,-0.49461 -1.1411,-0.83839 -0.2795,-0.34379 -0.4636,-0.70421 -0.5523,-1.08127 -0.1286,-0.55893 -0.1929,-1.38401 -0.1929,-2.47526 z m 9.362,6.58074 1.9164,-0.18631 c 0.1153,0.64322 0.3493,1.11565 0.702,1.41729 0.3526,0.30165 0.8284,0.45247 1.4272,0.45247 0.6344,0 1.1123,-0.13419 1.434,-0.40256 0.3216,-0.26838 0.4824,-0.58222 0.4824,-0.94154 0,-0.23066 -0.068,-0.42695 -0.203,-0.58887 -0.1353,-0.16191 -0.3715,-0.30275 -0.7086,-0.42252 -0.2307,-0.0798 -0.7564,-0.2218 -1.577,-0.42586 -1.0558,-0.26171 -1.7966,-0.58332 -2.2224,-0.96482 -0.5989,-0.53674 -0.8983,-1.19104 -0.8983,-1.96291 0,-0.49682 0.1408,-0.96148 0.4225,-1.394 0.2817,-0.43249 0.6876,-0.76186 1.2177,-0.98811 0.5301,-0.22622 1.17,-0.33934 1.9197,-0.33935 1.2243,1e-5 2.1458,0.26839 2.7647,0.80513 0.6188,0.53676 0.9437,1.25317 0.9748,2.14922 l -1.9696,0.0865 c -0.084,-0.50125 -0.2651,-0.86167 -0.5423,-1.08126 -0.2773,-0.21957 -0.6931,-0.32936 -1.2476,-0.32937 -0.5723,1e-5 -1.0203,0.11756 -1.3441,0.35266 -0.2085,0.15083 -0.3127,0.35266 -0.3127,0.6055 0,0.23068 0.097,0.42808 0.2927,0.5922 0.2484,0.2085 0.8517,0.42586 1.8099,0.65209 0.9582,0.22624 1.6668,0.46024 2.1259,0.70199 0.4591,0.24176 0.8185,0.57224 1.078,0.99144 0.2595,0.4192 0.3892,0.9371 0.3892,1.55369 0,0.55893 -0.1552,1.08238 -0.4657,1.57033 -0.3106,0.48795 -0.7497,0.85059 -1.3175,1.08792 -0.5678,0.23732 -1.2754,0.35598 -2.1226,0.35598 -1.2332,0 -2.1803,-0.28501 -2.8413,-0.85503 -0.6609,-0.57002 -1.0557,-1.40065 -1.1844,-2.4919 z m 9.6283,3.17393 v -9.75467 h 1.9695 v 4.33171 l 3.9791,-4.33171 h 2.6483 l -3.673,3.7994 3.8726,5.95527 h -2.5485 l -2.6815,-4.57791 -1.597,1.63022 v 2.94769 z"
         id="text3189"
         style="font-style:normal;font-weight:normal;font-size:14.8661px;font-family:'Bitstream Vera Sans';fill:#000000;fill-opacity:1;stroke:none;stroke-width:1px;stroke-linecap:butt;stroke-linejoin:miter;stroke-opacity:1" />
      <path
         d="m -1102.9081,-147.05678 -0.926,-0.16704 c 0.1041,-0.37281 0.2833,-0.64879 0.5374,-0.82794 0.2542,-0.17914 0.6319,-0.26871 1.133,-0.26872 0.4551,1e-5 0.7941,0.0539 1.0168,0.1616 0.2227,0.10773 0.3794,0.24451 0.4702,0.41033 0.091,0.16584 0.1362,0.47026 0.1362,0.91328 l -0.011,1.19106 c 0,0.33892 0.016,0.58888 0.049,0.74986 0.033,0.16099 0.094,0.33348 0.1834,0.51747 h -1.0095 c -0.027,-0.0678 -0.059,-0.16825 -0.098,-0.3014 -0.017,-0.0605 -0.029,-0.10047 -0.036,-0.11984 -0.1744,0.16947 -0.3608,0.29656 -0.5593,0.38129 -0.1985,0.0847 -0.4103,0.1271 -0.6354,0.1271 -0.3971,0 -0.71,-0.10773 -0.9387,-0.32319 -0.2288,-0.21546 -0.3432,-0.4878 -0.3432,-0.81704 0,-0.21788 0.052,-0.41215 0.1562,-0.58283 0.104,-0.17066 0.2499,-0.30139 0.4375,-0.39218 0.1876,-0.0908 0.4582,-0.17006 0.8116,-0.23785 0.4769,-0.0896 0.8074,-0.17308 0.9914,-0.25056 v -0.10167 c 0,-0.19609 -0.049,-0.33589 -0.1453,-0.41942 -0.097,-0.0835 -0.2796,-0.12527 -0.5483,-0.12528 -0.1816,1e-5 -0.3232,0.0357 -0.4249,0.10713 -0.1017,0.0714 -0.184,0.1967 -0.2469,0.37584 z m 1.3654,0.82793 c -0.1308,0.0436 -0.3377,0.0956 -0.621,0.15615 -0.2832,0.0605 -0.4684,0.11983 -0.5556,0.17793 -0.1331,0.0944 -0.1997,0.21425 -0.1997,0.3595 0,0.14283 0.053,0.2663 0.1598,0.37039 0.1065,0.1041 0.2421,0.15615 0.4067,0.15615 0.184,0 0.3595,-0.0605 0.5265,-0.18157 0.1235,-0.092 0.2046,-0.20456 0.2433,-0.33771 0.027,-0.0872 0.04,-0.25298 0.04,-0.49748 z m 1.9681,1.85197 v -5.32349 h 1.0204 v 1.91733 c 0.3147,-0.35829 0.6875,-0.53743 1.1185,-0.53744 0.4696,1e-5 0.8582,0.17007 1.1656,0.5102 0.3075,0.34014 0.4612,0.82855 0.4612,1.46523 0,0.65848 -0.1568,1.16565 -0.4703,1.52152 -0.3135,0.35586 -0.6942,0.5338 -1.142,0.5338 -0.2203,0 -0.4376,-0.0551 -0.6518,-0.16523 -0.2143,-0.11015 -0.3989,-0.27295 -0.5538,-0.48841 v 0.56649 z m 1.0132,-2.01174 c 0,0.39944 0.063,0.69479 0.1888,0.88603 0.1767,0.27114 0.4115,0.40671 0.7045,0.40671 0.2251,0 0.417,-0.0962 0.5755,-0.28869 0.1586,-0.19246 0.2379,-0.49567 0.2379,-0.90964 0,-0.4406 -0.08,-0.75833 -0.2397,-0.95322 -0.1598,-0.19487 -0.3643,-0.29231 -0.6137,-0.29232 -0.2445,1e-5 -0.4478,0.095 -0.61,0.28506 -0.1622,0.19004 -0.2433,0.47873 -0.2433,0.86607 z"
         id="text3193"
         style="font-style:normal;font-weight:normal;font-size:12px;font-family:'Bitstream Vera Sans';fill:#000000;fill-opacity:1;stroke:none;stroke-width:1px;stroke-linecap:butt;stroke-linejoin:miter;stroke-opacity:1" />
      <path
         d="m -1099.8741,-140.38296 c 3.4171,4e-5 6.0882,1.21929 8.0133,3.65775 2.2941,2.88772 3.4412,7.67648 3.4412,14.36628 0,6.6738 -1.1551,11.47058 -3.4652,14.39035 -1.9092,2.40641 -4.5722,3.60962 -7.9893,3.60962 -3.4332,0 -6.2006,-1.31952 -8.3022,-3.95855 -2.1016,-2.63903 -3.1524,-7.34356 -3.1524,-14.11361 0,-6.64167 1.1551,-11.42241 3.4653,-14.34222 1.9091,-2.40638 4.5721,-3.60958 7.9893,-3.60962 z m 0,5.60694 c -0.8182,3e-5 -1.5482,0.26073 -2.1899,0.78209 -0.6417,0.52142 -1.139,1.45591 -1.4919,2.80347 -0.4653,1.74868 -0.6979,4.69253 -0.6979,8.83153 0,4.13905 0.2085,6.98262 0.6257,8.53074 0.4171,1.54813 0.9425,2.57887 1.5762,3.09224 0.6336,0.51337 1.3596,0.77005 2.1778,0.77005 0.8181,0 1.5481,-0.26069 2.1898,-0.78209 0.6417,-0.52138 1.139,-1.45587 1.492,-2.80347 0.4652,-1.7326 0.6978,-4.66842 0.6978,-8.80747 0,-4.139 -0.2085,-6.98258 -0.6256,-8.53073 -0.4172,-1.5481 -0.9426,-2.58285 -1.5762,-3.10427 -0.6337,-0.52136 -1.3597,-0.78206 -2.1778,-0.78209 z"
         id="text3197"
         style="font-style:normal;font-weight:normal;font-size:14.785px;font-family:'Bitstream Vera Sans';fill:#000000;fill-opacity:1;stroke:none;stroke-width:1px;stroke-linecap:butt;stroke-linejoin:miter;stroke-opacity:1" />
      <path
         d="m -1120.6688,-96.873226 h 0.5665 v -0.29051 c 0,-0.32439 0.034,-0.56648 0.1035,-0.72626 0.069,-0.15977 0.1961,-0.28989 0.3813,-0.39037 0.1852,-0.10046 0.4194,-0.15069 0.7026,-0.1507 0.2905,1e-5 0.575,0.04359 0.8534,0.13073 l -0.138,0.71174 c -0.1622,-0.03873 -0.3184,-0.0581 -0.4685,-0.0581 -0.1476,0 -0.2535,0.0345 -0.3177,0.10349 -0.064,0.069 -0.096,0.20154 -0.096,0.39763 v 0.27235 h 0.7625 v 0.80252 h -0.7625 v 3.05393 h -1.0204 v -3.05393 h -0.5665 z m 3.9073,3.85645 h -1.0204 v -3.85645 h 0.9478 v 0.54833 c 0.1622,-0.25903 0.308,-0.42971 0.4375,-0.51202 0.1295,-0.0823 0.2766,-0.12346 0.4412,-0.12346 0.2324,0 0.4564,0.06415 0.6718,0.19246 l -0.3159,0.88967 c -0.1719,-0.11136 -0.3317,-0.16704 -0.4793,-0.16704 -0.1429,0 -0.2639,0.03934 -0.3632,0.11802 -0.099,0.07868 -0.1773,0.2209 -0.2342,0.42667 -0.057,0.20578 -0.085,0.6367 -0.085,1.29275 z m 4.1469,-1.22738 1.0168,0.17067 c -0.1307,0.37282 -0.3371,0.65666 -0.6191,0.85154 -0.2821,0.19488 -0.6349,0.29232 -1.0586,0.29232 -0.6705,0 -1.1668,-0.21908 -1.4888,-0.65726 -0.2542,-0.35103 -0.3813,-0.79404 -0.3813,-1.32906 0,-0.6391 0.1671,-1.13962 0.5011,-1.50154 0.3341,-0.36191 0.7566,-0.54287 1.2674,-0.54288 0.5737,10e-6 1.0264,0.18944 1.3581,0.5683 0.3316,0.37887 0.4902,0.95927 0.4757,1.74121 h -2.5565 c 0.01,0.30261 0.09,0.53804 0.247,0.70629 0.1573,0.16825 0.3534,0.25237 0.5882,0.25237 0.1598,0 0.2942,-0.04357 0.4031,-0.13073 0.1089,-0.08715 0.1912,-0.22756 0.2469,-0.42123 z m 0.058,-1.03129 c -0.01,-0.29534 -0.084,-0.51987 -0.2287,-0.6736 -0.1453,-0.15372 -0.322,-0.23059 -0.5302,-0.23059 -0.2227,0 -0.4067,0.0811 -0.552,0.2433 -0.1452,0.1622 -0.2166,0.3825 -0.2142,0.66089 z m 1.8484,-2.12067 v -0.94414 h 1.0204 v 0.94414 z m 0,4.37934 v -3.85644 h 1.0204 v 3.85644 z m 1.9681,0.25419 1.1657,0.14162 c 0.019,0.13557 0.064,0.22878 0.1343,0.27961 0.097,0.07263 0.2494,0.10894 0.4576,0.10894 0.2663,0 0.466,-0.03994 0.5991,-0.11983 0.09,-0.05326 0.1574,-0.1392 0.2034,-0.25782 0.032,-0.08473 0.047,-0.24088 0.047,-0.46844 v -0.56285 c -0.305,0.41639 -0.6899,0.62458 -1.1548,0.62458 -0.518,0 -0.9284,-0.21909 -1.231,-0.65726 -0.2372,-0.34619 -0.3558,-0.7771 -0.3558,-1.29275 0,-0.64636 0.1555,-1.14022 0.4666,-1.48156 0.3111,-0.34134 0.6978,-0.51201 1.1602,-0.51202 0.4769,10e-6 0.8703,0.20941 1.1802,0.62822 v -0.54107 h 0.955 v 3.46063 c 0,0.45512 -0.037,0.79525 -0.1126,1.0204 -0.075,0.22514 -0.1803,0.40186 -0.3159,0.53017 -0.1356,0.1283 -0.3165,0.22877 -0.5429,0.30139 -0.2263,0.07263 -0.5126,0.10894 -0.8588,0.10894 -0.6536,0 -1.1172,-0.11196 -1.3908,-0.33589 -0.2735,-0.22393 -0.4103,-0.50778 -0.4103,-0.85154 0,-0.03389 0,-0.07505 0,-0.12347 z m 0.9115,-2.2623 c 0,0.40913 0.079,0.70871 0.2378,0.89875 0.1586,0.19004 0.3541,0.28506 0.5865,0.28506 0.2493,0 0.46,-0.09744 0.6318,-0.29232 0.1719,-0.19488 0.2579,-0.48357 0.2579,-0.86607 0,-0.39944 -0.082,-0.69599 -0.247,-0.88966 -0.1646,-0.19367 -0.3728,-0.29051 -0.6246,-0.29051 -0.2445,0 -0.446,0.09502 -0.6046,0.28506 -0.1585,0.19004 -0.2378,0.47994 -0.2378,0.86969 z m 5.9626,0.78073 1.0167,0.17067 c -0.1307,0.37282 -0.3371,0.65666 -0.6191,0.85154 -0.282,0.19488 -0.6349,0.29232 -1.0585,0.29232 -0.6706,0 -1.1669,-0.21908 -1.4889,-0.65726 -0.2541,-0.35103 -0.3812,-0.79404 -0.3812,-1.32906 0,-0.6391 0.167,-1.13962 0.5011,-1.50154 0.3341,-0.36191 0.7565,-0.54287 1.2673,-0.54288 0.5737,10e-6 1.0264,0.18944 1.3581,0.5683 0.3317,0.37887 0.4902,0.95927 0.4757,1.74121 h -2.5564 c 0.01,0.30261 0.09,0.53804 0.2469,0.70629 0.1574,0.16825 0.3534,0.25237 0.5883,0.25237 0.1597,0 0.2941,-0.04357 0.403,-0.13073 0.109,-0.08715 0.1913,-0.22756 0.247,-0.42123 z m 0.058,-1.03129 c -0.01,-0.29534 -0.083,-0.51987 -0.2288,-0.6736 -0.1452,-0.15372 -0.322,-0.23059 -0.5302,-0.23059 -0.2227,0 -0.4067,0.0811 -0.5519,0.2433 -0.1453,0.1622 -0.2167,0.3825 -0.2143,0.66089 z m 1.7539,2.51286 1.1656,0.14162 c 0.019,0.13557 0.064,0.22878 0.1344,0.27961 0.097,0.07263 0.2493,0.10894 0.4575,0.10894 0.2663,0 0.4661,-0.03994 0.5992,-0.11983 0.09,-0.05326 0.1574,-0.1392 0.2034,-0.25782 0.031,-0.08473 0.047,-0.24088 0.047,-0.46844 v -0.56285 c -0.3051,0.41639 -0.69,0.62458 -1.1548,0.62458 -0.5181,0 -0.9284,-0.21909 -1.231,-0.65726 -0.2372,-0.34619 -0.3559,-0.7771 -0.3559,-1.29275 0,-0.64636 0.1556,-1.14022 0.4667,-1.48156 0.311,-0.34134 0.6978,-0.51201 1.1602,-0.51202 0.4769,10e-6 0.8703,0.20941 1.1801,0.62822 v -0.54107 h 0.9551 v 3.46063 c 0,0.45512 -0.038,0.79525 -0.1126,1.0204 -0.075,0.22514 -0.1804,0.40186 -0.3159,0.53017 -0.1356,0.1283 -0.3166,0.22877 -0.5429,0.30139 -0.2264,0.07263 -0.5126,0.10894 -0.8588,0.10894 -0.6536,0 -1.1172,-0.11196 -1.3908,-0.33589 -0.2736,-0.22393 -0.4103,-0.50778 -0.4103,-0.85154 0,-0.03389 0,-0.07505 0,-0.12347 z m 0.9115,-2.2623 c -1e-4,0.40913 0.079,0.70871 0.2378,0.89875 0.1586,0.19004 0.3541,0.28506 0.5865,0.28506 0.2493,0 0.4599,-0.09744 0.6318,-0.29232 0.1719,-0.19488 0.2578,-0.48357 0.2578,-0.86607 0,-0.39944 -0.082,-0.69599 -0.2469,-0.88966 -0.1646,-0.19367 -0.3728,-0.29051 -0.6246,-0.29051 -0.2445,0 -0.446,0.09502 -0.6046,0.28506 -0.1586,0.19004 -0.2379,0.47994 -0.2378,0.86969 z m 5.9625,0.78073 1.0168,0.17067 c -0.1307,0.37282 -0.3371,0.65666 -0.6191,0.85154 -0.2821,0.19488 -0.6349,0.29232 -1.0586,0.29232 -0.6705,0 -1.1668,-0.21908 -1.4888,-0.65726 -0.2542,-0.35103 -0.3813,-0.79404 -0.3813,-1.32906 0,-0.6391 0.1671,-1.13962 0.5011,-1.50154 0.3341,-0.36191 0.7566,-0.54287 1.2674,-0.54288 0.5737,10e-6 1.0264,0.18944 1.3581,0.5683 0.3316,0.37887 0.4902,0.95927 0.4757,1.74121 h -2.5565 c 0.01,0.30261 0.09,0.53804 0.247,0.70629 0.1573,0.16825 0.3534,0.25237 0.5882,0.25237 0.1598,0 0.2942,-0.04357 0.4031,-0.13073 0.109,-0.08715 0.1913,-0.22756 0.2469,-0.42123 z m 0.058,-1.03129 c -0.01,-0.29534 -0.084,-0.51987 -0.2287,-0.6736 -0.1453,-0.15372 -0.322,-0.23059 -0.5302,-0.23059 -0.2227,0 -0.4067,0.0811 -0.552,0.2433 -0.1452,0.1622 -0.2166,0.3825 -0.2142,0.66089 z m 1.8048,2.25867 v -5.32348 h 1.0204 v 1.91732 c 0.3147,-0.35828 0.6875,-0.53742 1.1184,-0.53743 0.4697,10e-6 0.8582,0.17007 1.1657,0.5102 0.3074,0.34013 0.4612,0.82854 0.4612,1.46523 0,0.65848 -0.1568,1.16565 -0.4703,1.52151 -0.3135,0.35587 -0.6942,0.5338 -1.142,0.5338 -0.2203,0 -0.4376,-0.05507 -0.6519,-0.16522 -0.2142,-0.11015 -0.3988,-0.27295 -0.5537,-0.48841 v 0.56648 z m 1.0131,-2.01174 c 0,0.39945 0.063,0.69479 0.1889,0.88604 0.1767,0.27114 0.4115,0.40671 0.7044,0.40671 0.2252,0 0.417,-0.09623 0.5756,-0.28869 0.1586,-0.19246 0.2378,-0.49567 0.2378,-0.90964 0,-0.4406 -0.08,-0.75834 -0.2396,-0.95322 -0.1598,-0.19488 -0.3644,-0.29232 -0.6137,-0.29232 -0.2445,0 -0.4479,0.09502 -0.6101,0.28506 -0.1622,0.19004 -0.2433,0.47873 -0.2433,0.86606 z m 5.8101,0.78436 1.0168,0.17067 c -0.1307,0.37282 -0.3371,0.65666 -0.6192,0.85154 -0.282,0.19488 -0.6348,0.29232 -1.0585,0.29232 -0.6706,0 -1.1668,-0.21909 -1.4888,-0.65726 -0.2542,-0.35103 -0.3813,-0.79405 -0.3813,-1.32906 0,-0.63911 0.167,-1.13963 0.5011,-1.50155 0.3341,-0.36192 0.7565,-0.54288 1.2673,-0.54288 0.5738,0 1.0265,0.18943 1.3582,0.5683 0.3316,0.37887 0.4902,0.95927 0.4757,1.74121 h -2.5565 c 0.01,0.30261 0.09,0.53804 0.2469,0.70629 0.1574,0.16825 0.3535,0.25238 0.5883,0.25238 0.1598,0 0.2941,-0.04358 0.4031,-0.13073 0.1089,-0.08715 0.1912,-0.22756 0.2469,-0.42123 z m 0.058,-1.03129 c -0.01,-0.29535 -0.083,-0.51988 -0.2288,-0.67361 -0.1452,-0.15373 -0.3219,-0.23059 -0.5301,-0.23059 -0.2227,0 -0.4067,0.0811 -0.552,0.2433 -0.1452,0.1622 -0.2167,0.3825 -0.2142,0.6609 z m 5.3562,2.25867 h -1.0204 v -1.96817 c 0,-0.41639 -0.022,-0.68571 -0.065,-0.80797 -0.044,-0.12225 -0.1143,-0.21727 -0.2124,-0.28505 -0.098,-0.06779 -0.2161,-0.10168 -0.354,-0.10168 -0.1768,0 -0.3353,0.04842 -0.4757,0.14525 -0.1405,0.09684 -0.2367,0.22515 -0.2887,0.38492 -0.052,0.15978 -0.078,0.45513 -0.078,0.88604 v 1.74666 h -1.0204 v -3.85645 h 0.9478 v 0.56648 c 0.3365,-0.43575 0.7601,-0.65363 1.2709,-0.65363 0.2252,0 0.4309,0.04055 0.6174,0.12165 0.1864,0.0811 0.3274,0.18459 0.423,0.31047 0.096,0.12589 0.1622,0.26872 0.1997,0.4285 0.037,0.15978 0.056,0.38855 0.056,0.68632 z"
         id="text3201"
         style="font-style:normal;font-weight:normal;font-size:14.8739px;font-family:'Bitstream Vera Sans';fill:#000000;fill-opacity:1;stroke:none;stroke-width:1px;stroke-linecap:butt;stroke-linejoin:miter;stroke-opacity:1" />
    </g>
  </g>
</svg>