<?xml version="1.0" encoding="UTF-8" standalone="no"?>
<svg
   xmlns:dc="http://purl.org/dc/elements/1.1/"
   xmlns:cc="http://creativecommons.org/ns#"
   xmlns:rdf="http://www.w3.org/1999/02/22-rdf-syntax-ns#"
   xmlns:svg="http://www.w3.org/2000/svg"
   xmlns="http://www.w3.org/2000/svg"
   xmlns:sodipodi="http://sodipodi.sourceforge.net/DTD/sodipodi-0.dtd"
   xmlns:inkscape="http://www.inkscape.org/namespaces/inkscape"
   version="1.0"
   width="1875"
   height="1875"
   id="svg2">
  <defs
     id="defs4" />
  <g
     transform="matrix(15.293834,0,0,15.293834,18363.696,2924.4945)"
     id="layer1">
    <g
       transform="translate(-111.75464,-17.254279)"
       id="g4248">
      <rect
         width="120.41093"
         height="120.41093"
         rx="10.629922"
         ry="10.629921"
         x="-1087.8771"
         y="-172.87247"
         id="rect3235"
         style="fill:#ffe500;fill-opacity:0.701961;stroke:#ffe500;stroke-width:2.1875;stroke-linecap:butt;stroke-linejoin:miter;stroke-miterlimit:4;stroke-dasharray:none;stroke-opacity:1" />
      <rect
         width="77.257874"
         height="77.257874"
         rx="6.8203545"
         ry="6.820354"
         x="-844.97003"
         y="608.37708"
         transform="rotate(45)"
         id="rect3237"
         style="fill:#ffe500;fill-opacity:1;stroke:#000000;stroke-width:1.25;stroke-linecap:butt;stroke-linejoin:miter;stroke-miterlimit:4;stroke-dasharray:none;stroke-opacity:1" />
      <path
         d="m -1041.565,-150.46324 h 1.9695 v 5.28322 c 0,0.8384 0.024,1.3818 0.073,1.63021 0.084,0.39924 0.285,0.71974 0.6022,0.9615 0.3172,0.24176 0.7508,0.36264 1.3009,0.36264 0.5589,0 0.9803,-0.11423 1.2642,-0.34268 0.2839,-0.22845 0.4547,-0.50902 0.5124,-0.84172 0.058,-0.3327 0.086,-0.88497 0.086,-1.65683 v -5.39634 h 1.9695 v 5.12353 c 0,1.17109 -0.053,1.9984 -0.1597,2.48191 -0.1064,0.48352 -0.3027,0.89163 -0.5888,1.22433 -0.2862,0.33269 -0.6688,0.59774 -1.1478,0.79514 -0.4791,0.1974 -1.1046,0.2961 -1.8765,0.2961 -0.9315,0 -1.6379,-0.10757 -2.1192,-0.32271 -0.4813,-0.21515 -0.8617,-0.49461 -1.1412,-0.8384 -0.2795,-0.34378 -0.4635,-0.70421 -0.5523,-1.08126 -0.1286,-0.55893 -0.1929,-1.38402 -0.1929,-2.47527 z m 9.3621,6.58074 1.9163,-0.18631 c 0.1153,0.64321 0.3493,1.11564 0.702,1.41728 0.3526,0.30165 0.8284,0.45247 1.4273,0.45247 0.6343,0 1.1123,-0.13418 1.4339,-0.40256 0.3216,-0.26837 0.4824,-0.58222 0.4824,-0.94153 0,-0.23067 -0.068,-0.42696 -0.203,-0.58888 -0.1353,-0.1619 -0.3715,-0.30275 -0.7086,-0.42252 -0.2307,-0.0798 -0.7563,-0.22179 -1.577,-0.42585 -1.0557,-0.26172 -1.7966,-0.58333 -2.2224,-0.96482 -0.5989,-0.53675 -0.8983,-1.19105 -0.8983,-1.96291 0,-0.49682 0.1409,-0.96149 0.4225,-1.394 0.2817,-0.4325 0.6876,-0.76187 1.2177,-0.98811 0.5301,-0.22623 1.17,-0.33934 1.9197,-0.33935 1.2243,1e-5 2.1459,0.26838 2.7647,0.80512 0.6188,0.53676 0.9437,1.25317 0.9748,2.14922 l -1.9696,0.0865 c -0.084,-0.50126 -0.265,-0.86168 -0.5423,-1.08127 -0.2772,-0.21957 -0.6931,-0.32936 -1.2476,-0.32937 -0.5722,1e-5 -1.0203,0.11756 -1.3441,0.35266 -0.2085,0.15083 -0.3127,0.35267 -0.3127,0.60551 0,0.23067 0.098,0.42807 0.2928,0.5922 0.2484,0.20849 0.8517,0.42586 1.8098,0.65208 0.9582,0.22624 1.6668,0.46024 2.126,0.70199 0.4591,0.24177 0.8184,0.57225 1.0779,0.99144 0.2595,0.4192 0.3892,0.9371 0.3892,1.55369 0,0.55894 -0.1552,1.08238 -0.4657,1.57033 -0.3106,0.48796 -0.7497,0.8506 -1.3175,1.08792 -0.5678,0.23732 -1.2753,0.35599 -2.1226,0.35599 -1.2332,0 -2.1803,-0.28501 -2.8412,-0.85503 -0.661,-0.57002 -1.0558,-1.40066 -1.1844,-2.4919 z m 9.6282,3.17392 v -9.75466 h 1.9696 v 4.33171 l 3.979,-4.33171 h 2.6483 l -3.673,3.79939 3.8726,5.95527 h -2.5485 l -2.6815,-4.5779 -1.5969,1.63021 v 2.94769 z"
         id="text3241"
         style="font-style:normal;font-weight:normal;font-size:14.8661px;font-family:'Bitstream Vera Sans';fill:#000000;fill-opacity:1;stroke:none;stroke-width:1px;stroke-linecap:butt;stroke-linejoin:miter;stroke-opacity:1" />
      <path
         d="m -1030.7056,-135.73088 -0.9259,-0.16704 c 0.1041,-0.37281 0.2832,-0.64879 0.5374,-0.82794 0.2542,-0.17914 0.6318,-0.26871 1.133,-0.26871 0.4551,0 0.794,0.0539 1.0167,0.16159 0.2227,0.10773 0.3795,0.24451 0.4703,0.41034 0.091,0.16583 0.1362,0.47025 0.1362,0.91327 l -0.011,1.19106 c 0,0.33893 0.016,0.58888 0.049,0.74987 0.033,0.16098 0.094,0.33347 0.1834,0.51746 h -1.0095 c -0.027,-0.0678 -0.059,-0.16825 -0.098,-0.3014 -0.017,-0.0605 -0.029,-0.10047 -0.036,-0.11983 -0.1743,0.16946 -0.3607,0.29655 -0.5592,0.38128 -0.1985,0.0847 -0.4104,0.1271 -0.6355,0.1271 -0.397,0 -0.7099,-0.10773 -0.9387,-0.32319 -0.2288,-0.21545 -0.3431,-0.4878 -0.3431,-0.81704 0,-0.21788 0.052,-0.41215 0.1561,-0.58282 0.1041,-0.17067 0.25,-0.3014 0.4376,-0.39218 0.1876,-0.0908 0.4581,-0.17007 0.8116,-0.23785 0.4769,-0.0896 0.8073,-0.17309 0.9913,-0.25056 v -0.10168 c 0,-0.19609 -0.048,-0.33589 -0.1452,-0.41942 -0.097,-0.0835 -0.2796,-0.12527 -0.5484,-0.12528 -0.1815,1e-5 -0.3231,0.0357 -0.4248,0.10713 -0.1017,0.0714 -0.184,0.1967 -0.247,0.37584 z m 1.3654,0.82793 c -0.1307,0.0436 -0.3377,0.0956 -0.6209,0.15615 -0.2833,0.0605 -0.4685,0.11983 -0.5556,0.17793 -0.1332,0.0944 -0.1997,0.21425 -0.1997,0.3595 0,0.14283 0.053,0.2663 0.1597,0.37039 0.1065,0.1041 0.2421,0.15615 0.4067,0.15615 0.184,0 0.3595,-0.0605 0.5266,-0.18156 0.1234,-0.092 0.2045,-0.20457 0.2433,-0.33772 0.027,-0.0872 0.04,-0.25297 0.04,-0.49748 z m 1.9682,1.85197 v -5.32349 h 1.0204 v 1.91733 c 0.3147,-0.35829 0.6875,-0.53743 1.1184,-0.53743 0.4697,0 0.8582,0.17007 1.1657,0.51019 0.3074,0.34014 0.4611,0.82855 0.4611,1.46523 0,0.65848 -0.1567,1.16565 -0.4702,1.52152 -0.3135,0.35586 -0.6942,0.5338 -1.1421,0.5338 -0.2203,0 -0.4375,-0.0551 -0.6518,-0.16523 -0.2142,-0.11015 -0.3988,-0.27295 -0.5538,-0.48841 v 0.56649 z m 1.0131,-2.01174 c 0,0.39944 0.063,0.69479 0.1888,0.88603 0.1768,0.27114 0.4116,0.40671 0.7045,0.40671 0.2251,0 0.417,-0.0962 0.5756,-0.28869 0.1585,-0.19246 0.2378,-0.49567 0.2378,-0.90964 0,-0.44059 -0.08,-0.75833 -0.2396,-0.95322 -0.1598,-0.19487 -0.3644,-0.29231 -0.6137,-0.29232 -0.2445,1e-5 -0.4479,0.095 -0.6101,0.28506 -0.1622,0.19004 -0.2433,0.47873 -0.2433,0.86607 z"
         id="text3245"
         style="font-style:normal;font-weight:normal;font-size:12px;font-family:'Bitstream Vera Sans';fill:#000000;fill-opacity:1;stroke:none;stroke-width:1px;stroke-linecap:butt;stroke-linejoin:miter;stroke-opacity:1" />
      <path
         d="m -1016.542,-120.27365 -6.5454,0.72192 c -0.1605,-1.34756 -0.5776,-2.34221 -1.2513,-2.98395 -0.6739,-0.64168 -1.5482,-0.96253 -2.623,-0.96256 -1.4278,3e-5 -2.6351,0.64174 -3.6217,1.92513 -0.9866,1.28344 -1.6083,3.95456 -1.865,8.01335 1.6845,-1.98928 3.7781,-2.98393 6.2808,-2.98395 2.8235,2e-5 5.2419,1.07489 7.2553,3.22459 2.0134,2.14975 3.02,4.92514 3.0201,8.32619 -10e-5,3.60963 -1.0589,6.505343 -3.1765,8.687153 -2.1177,2.18181 -4.8369,3.27272 -8.1577,3.27272 -3.5615,0 -6.4893,-1.38369 -8.7834,-4.15106 -2.2942,-2.76737 -3.4412,-7.303453 -3.4412,-13.608263 0,-6.46521 1.1952,-11.12562 3.5855,-13.98126 2.3904,-2.85558 5.4947,-4.28338 9.3129,-4.28342 2.6791,4e-5 4.897,0.75004 6.6537,2.25 1.7566,1.50003 2.8756,3.67783 3.3569,6.53341 z m -15.3288,14.75131 c 0,2.19787 0.5053,3.89438 1.516,5.08956 1.0107,1.195193 2.1658,1.792783 3.4653,1.792783 1.2513,0 2.2941,-0.4893 3.1283,-1.467913 0.8342,-0.9786 1.2513,-2.58288 1.2513,-4.81283 0,-2.2941 -0.4492,-3.97457 -1.3476,-5.04143 -0.8984,-1.06683 -2.0214,-1.60025 -3.3689,-1.60027 -1.2995,2e-5 -2.3984,0.50938 -3.2968,1.52808 -0.8984,1.01873 -1.3476,2.52273 -1.3476,4.51202 z"
         id="text3249"
         style="font-style:normal;font-weight:normal;font-size:14.785px;font-family:'Bitstream Vera Sans';fill:#000000;fill-opacity:1;stroke:none;stroke-width:1px;stroke-linecap:butt;stroke-linejoin:miter;stroke-opacity:1" />
      <path
         d="m -1048.4663,-85.547327 h 0.5665 v -0.29051 c 0,-0.32439 0.034,-0.56648 0.1035,-0.72626 0.069,-0.15977 0.1961,-0.28989 0.3813,-0.39036 0.1852,-0.10047 0.4194,-0.1507 0.7026,-0.1507 0.2905,0 0.575,0.04358 0.8534,0.13072 l -0.138,0.71174 c -0.1622,-0.03873 -0.3183,-0.0581 -0.4684,-0.0581 -0.1477,0 -0.2536,0.0345 -0.3178,0.10349 -0.064,0.069 -0.096,0.20154 -0.096,0.39763 v 0.27235 h 0.7626 v 0.80252 h -0.7626 v 3.05393 h -1.0204 v -3.05393 h -0.5665 z m 3.9073,3.85645 h -1.0204 v -3.85645 h 0.9478 v 0.54833 c 0.1622,-0.25903 0.308,-0.4297 0.4376,-0.51202 0.1295,-0.0823 0.2765,-0.12346 0.4412,-0.12346 0.2324,0 0.4563,0.06416 0.6717,0.19246 l -0.3159,0.88967 c -0.1719,-0.11136 -0.3316,-0.16704 -0.4793,-0.16704 -0.1428,0 -0.2639,0.03934 -0.3631,0.11802 -0.099,0.07868 -0.1774,0.2209 -0.2343,0.42668 -0.057,0.20577 -0.085,0.63669 -0.085,1.29274 z m 4.147,-1.22738 1.0167,0.17068 c -0.1307,0.37281 -0.3371,0.65666 -0.6191,0.85154 -0.2821,0.19488 -0.6349,0.29231 -1.0585,0.29231 -0.6706,0 -1.1669,-0.21908 -1.4889,-0.65726 -0.2542,-0.35102 -0.3813,-0.79404 -0.3813,-1.32906 0,-0.6391 0.1671,-1.13962 0.5012,-1.50154 0.334,-0.36191 0.7565,-0.54287 1.2673,-0.54288 0.5737,1e-5 1.0264,0.18944 1.3581,0.5683 0.3316,0.37887 0.4902,0.95927 0.4757,1.74121 h -2.5564 c 0.01,0.30261 0.09,0.53804 0.2469,0.70629 0.1573,0.16825 0.3534,0.25237 0.5882,0.25237 0.1598,0 0.2942,-0.04357 0.4031,-0.13072 0.109,-0.08715 0.1913,-0.22756 0.247,-0.42124 z m 0.058,-1.03128 c -0.01,-0.29535 -0.084,-0.51988 -0.2288,-0.67361 -0.1453,-0.15372 -0.322,-0.23058 -0.5302,-0.23059 -0.2227,10e-6 -0.4067,0.0811 -0.5519,0.2433 -0.1453,0.1622 -0.2167,0.3825 -0.2143,0.6609 z m 1.8483,-2.12068 v -0.94414 h 1.0204 v 0.94414 z m 0,4.37934 v -3.85644 h 1.0204 v 3.85644 z m 1.9681,0.25419 1.1657,0.14163 c 0.019,0.13556 0.064,0.22877 0.1344,0.27961 0.097,0.07262 0.2493,0.10893 0.4575,0.10893 0.2663,0 0.466,-0.03994 0.5992,-0.11983 0.089,-0.05326 0.1573,-0.1392 0.2033,-0.25782 0.032,-0.08473 0.047,-0.24088 0.047,-0.46844 v -0.56285 c -0.305,0.41639 -0.6899,0.62458 -1.1547,0.62458 -0.5181,0 -0.9284,-0.21908 -1.231,-0.65726 -0.2373,-0.34618 -0.3559,-0.7771 -0.3559,-1.29274 0,-0.64637 0.1555,-1.14023 0.4666,-1.48157 0.3111,-0.34134 0.6978,-0.51201 1.1602,-0.51202 0.4769,1e-5 0.8703,0.20941 1.1802,0.62822 v -0.54107 h 0.955 v 3.46063 c 0,0.45512 -0.038,0.79526 -0.1126,1.0204 -0.075,0.22514 -0.1803,0.40186 -0.3159,0.53017 -0.1355,0.1283 -0.3165,0.22877 -0.5429,0.30139 -0.2263,0.07263 -0.5126,0.10894 -0.8588,0.10894 -0.6536,0 -1.1172,-0.11196 -1.3907,-0.33589 -0.2736,-0.22393 -0.4104,-0.50778 -0.4104,-0.85154 0,-0.03389 0,-0.07505 0,-0.12347 z m 0.9115,-2.26229 c 0,0.40912 0.079,0.70871 0.2379,0.89874 0.1585,0.19004 0.354,0.28506 0.5864,0.28506 0.2494,0 0.46,-0.09744 0.6319,-0.29232 0.1718,-0.19488 0.2578,-0.48357 0.2578,-0.86607 0,-0.39944 -0.082,-0.69599 -0.247,-0.88966 -0.1646,-0.19367 -0.3728,-0.2905 -0.6245,-0.29051 -0.2445,10e-6 -0.4461,0.09502 -0.6046,0.28506 -0.1586,0.19004 -0.2379,0.47994 -0.2379,0.8697 z m 5.9626,0.78072 1.0168,0.17068 c -0.1308,0.37281 -0.3371,0.65666 -0.6192,0.85154 -0.282,0.19488 -0.6349,0.29231 -1.0585,0.29231 -0.6706,0 -1.1669,-0.21908 -1.4888,-0.65726 -0.2542,-0.35102 -0.3813,-0.79404 -0.3813,-1.32906 0,-0.6391 0.167,-1.13962 0.5011,-1.50154 0.3341,-0.36191 0.7565,-0.54287 1.2673,-0.54288 0.5738,1e-5 1.0265,0.18944 1.3581,0.5683 0.3317,0.37887 0.4903,0.95927 0.4757,1.74121 h -2.5564 c 0.01,0.30261 0.09,0.53804 0.2469,0.70629 0.1574,0.16825 0.3535,0.25237 0.5883,0.25237 0.1598,0 0.2941,-0.04357 0.4031,-0.13072 0.1089,-0.08715 0.1912,-0.22756 0.2469,-0.42124 z m 0.058,-1.03128 c -0.01,-0.29535 -0.083,-0.51988 -0.2288,-0.67361 -0.1452,-0.15372 -0.322,-0.23058 -0.5301,-0.23059 -0.2228,10e-6 -0.4068,0.0811 -0.552,0.2433 -0.1453,0.1622 -0.2167,0.3825 -0.2142,0.6609 z m 1.7539,2.51285 1.1657,0.14163 c 0.019,0.13556 0.064,0.22877 0.1343,0.27961 0.097,0.07262 0.2494,0.10893 0.4576,0.10893 0.2663,0 0.466,-0.03994 0.5991,-0.11983 0.09,-0.05326 0.1574,-0.1392 0.2034,-0.25782 0.031,-0.08473 0.047,-0.24088 0.047,-0.46844 v -0.56285 c -0.305,0.41639 -0.69,0.62458 -1.1548,0.62458 -0.518,0 -0.9284,-0.21908 -1.231,-0.65726 -0.2372,-0.34618 -0.3558,-0.7771 -0.3558,-1.29274 0,-0.64637 0.1555,-1.14023 0.4666,-1.48157 0.3111,-0.34134 0.6978,-0.51201 1.1602,-0.51202 0.4769,1e-5 0.8703,0.20941 1.1802,0.62822 v -0.54107 h 0.955 v 3.46063 c 0,0.45512 -0.037,0.79526 -0.1126,1.0204 -0.075,0.22514 -0.1803,0.40186 -0.3159,0.53017 -0.1356,0.1283 -0.3165,0.22877 -0.5429,0.30139 -0.2263,0.07263 -0.5126,0.10894 -0.8588,0.10894 -0.6536,0 -1.1172,-0.11196 -1.3908,-0.33589 -0.2735,-0.22393 -0.4103,-0.50778 -0.4103,-0.85154 0,-0.03389 0,-0.07505 0,-0.12347 z m 0.9115,-2.26229 c 0,0.40912 0.079,0.70871 0.2378,0.89874 0.1586,0.19004 0.3541,0.28506 0.5865,0.28506 0.2493,0 0.4599,-0.09744 0.6318,-0.29232 0.1719,-0.19488 0.2578,-0.48357 0.2578,-0.86607 0,-0.39944 -0.082,-0.69599 -0.2469,-0.88966 -0.1646,-0.19367 -0.3728,-0.2905 -0.6246,-0.29051 -0.2445,10e-6 -0.446,0.09502 -0.6046,0.28506 -0.1585,0.19004 -0.2378,0.47994 -0.2378,0.8697 z m 5.9626,0.78072 1.0167,0.17068 c -0.1307,0.37281 -0.3371,0.65666 -0.6191,0.85154 -0.282,0.19488 -0.6349,0.29231 -1.0585,0.29231 -0.6706,0 -1.1669,-0.21908 -1.4889,-0.65726 -0.2542,-0.35102 -0.3813,-0.79404 -0.3813,-1.32906 0,-0.6391 0.1671,-1.13962 0.5012,-1.50154 0.334,-0.36191 0.7565,-0.54287 1.2673,-0.54288 0.5737,1e-5 1.0264,0.18944 1.3581,0.5683 0.3317,0.37887 0.4902,0.95927 0.4757,1.74121 h -2.5564 c 0.01,0.30261 0.089,0.53804 0.2469,0.70629 0.1573,0.16825 0.3534,0.25237 0.5883,0.25237 0.1597,0 0.2941,-0.04357 0.403,-0.13072 0.109,-0.08715 0.1913,-0.22756 0.247,-0.42124 z m 0.058,-1.03128 c -0.01,-0.29535 -0.084,-0.51988 -0.2288,-0.67361 -0.1453,-0.15372 -0.322,-0.23058 -0.5302,-0.23059 -0.2227,10e-6 -0.4067,0.0811 -0.5519,0.2433 -0.1453,0.1622 -0.2167,0.3825 -0.2143,0.6609 z m 1.8047,2.25866 v -5.32348 h 1.0204 v 1.91733 c 0.3147,-0.35829 0.6875,-0.53743 1.1185,-0.53744 0.4696,1e-5 0.8581,0.17007 1.1656,0.5102 0.3074,0.34014 0.4612,0.82854 0.4612,1.46523 0,0.65848 -0.1568,1.16565 -0.4703,1.52151 -0.3135,0.35587 -0.6942,0.5338 -1.142,0.5338 -0.2203,0 -0.4376,-0.05507 -0.6518,-0.16522 -0.2143,-0.11015 -0.3989,-0.27295 -0.5538,-0.48841 v 0.56648 z m 1.0132,-2.01174 c 0,0.39945 0.063,0.69479 0.1888,0.88604 0.1767,0.27114 0.4115,0.40671 0.7045,0.40671 0.2251,0 0.4169,-0.09623 0.5755,-0.28869 0.1586,-0.19246 0.2379,-0.49567 0.2379,-0.90964 0,-0.4406 -0.08,-0.75834 -0.2397,-0.95322 -0.1598,-0.19487 -0.3643,-0.29231 -0.6137,-0.29232 -0.2445,10e-6 -0.4479,0.09502 -0.61,0.28506 -0.1622,0.19004 -0.2433,0.47873 -0.2433,0.86606 z m 5.81,0.78436 1.0168,0.17067 c -0.1307,0.37282 -0.3371,0.65666 -0.6191,0.85154 -0.2821,0.19489 -0.6349,0.29233 -1.0586,0.29233 -0.6705,0 -1.1668,-0.21909 -1.4888,-0.65727 -0.2542,-0.35103 -0.3813,-0.79405 -0.3813,-1.32906 0,-0.63911 0.1671,-1.13963 0.5011,-1.50155 0.3341,-0.36192 0.7566,-0.54288 1.2674,-0.54288 0.5737,0 1.0264,0.18944 1.3581,0.5683 0.3316,0.37887 0.4902,0.95927 0.4757,1.74121 h -2.5565 c 0.01,0.30261 0.09,0.53804 0.247,0.70629 0.1573,0.16825 0.3534,0.25238 0.5882,0.25238 0.1598,0 0.2942,-0.04358 0.4031,-0.13073 0.1089,-0.08715 0.1913,-0.22756 0.2469,-0.42123 z m 0.058,-1.03129 c -0.01,-0.29535 -0.083,-0.51988 -0.2287,-0.67361 -0.1453,-0.15372 -0.322,-0.23059 -0.5302,-0.23059 -0.2227,0 -0.4067,0.0811 -0.552,0.2433 -0.1452,0.1622 -0.2166,0.3825 -0.2142,0.6609 z m 5.3562,2.25867 h -1.0204 v -1.96817 c 0,-0.41639 -0.022,-0.68571 -0.065,-0.80796 -0.044,-0.12226 -0.1144,-0.21728 -0.2125,-0.28506 -0.098,-0.06778 -0.216,-0.10168 -0.354,-0.10168 -0.1767,0 -0.3353,0.04842 -0.4757,0.14525 -0.1404,0.09684 -0.2367,0.22515 -0.2887,0.38492 -0.052,0.15978 -0.078,0.45513 -0.078,0.88604 v 1.74666 h -1.0204 v -3.85645 h 0.9478 v 0.56648 c 0.3365,-0.43575 0.7601,-0.65363 1.271,-0.65363 0.2251,0 0.4309,0.04055 0.6173,0.12165 0.1864,0.0811 0.3274,0.18459 0.423,0.31047 0.096,0.12589 0.1622,0.26872 0.1997,0.4285 0.038,0.15978 0.056,0.38855 0.056,0.68632 z"
         id="text3253"
         style="font-style:normal;font-weight:normal;font-size:14.8739px;font-family:'Bitstream Vera Sans';fill:#000000;fill-opacity:1;stroke:none;stroke-width:1px;stroke-linecap:butt;stroke-linejoin:miter;stroke-opacity:1" />
    </g>
  </g>
</svg>