<?xml version="1.0" encoding="UTF-8" standalone="no"?>
<!-- Created with Inkscape (http://www.inkscape.org/) -->
<svg xmlns:svg="http://www.w3.org/2000/svg" xmlns="http://www.w3.org/2000/svg" version="1.0" width="200" height="200" id="svg2">
  <defs id="defs4"/>
  <g id="g2419">
    <path d="M 191.30964,175.90856 C 191.30964,184.38568 184.37363,190.93617 175.89627,190.93617 L 24.074649,190.93617 C 15.98261,190.93617 9.0466018,184.38568 9.0466018,175.90856 L 9.0466018,24.09143 C 9.0466018,15.999673 15.98261,9.0638694 24.074649,9.0638694 L 175.89627,9.0638694 C 184.37363,9.0638694 191.30964,15.999673 191.30964,24.09143 L 191.30964,175.90856 z " style="fill: none; stroke: rgb(255, 255, 255); stroke-width: 18.1104;" id="path3490"/>
    <path d="M 191.11694,175.90861 C 191.11694,184.00036 184.56626,190.93617 176.08893,190.93617 L 24.267313,190.93617 C 16.175275,190.93617 9.2392663,184.00036 9.2392663,175.90861 L 9.2392663,24.091472 C 9.2392663,15.614356 16.175275,9.0638694 24.267313,9.0638694 L 176.08893,9.0638694 C 184.56626,9.0638694 191.11694,15.614356 191.11694,24.091472 L 191.11694,175.90861 z " style="fill: rgb(255, 255, 0); fill-opacity: 1; stroke: none; stroke-width: 4.31371;" id="61587352"/>
    <path d="M 191.11694,175.90861 C 191.11694,184.00036 184.56626,190.93617 176.08893,190.93617 L 24.267313,190.93617 C 16.175275,190.93617 9.2392663,184.00036 9.2392663,175.90861 L 9.2392663,24.091472 C 9.2392663,15.614356 16.175275,9.0638694 24.267313,9.0638694 L 176.08893,9.0638694 C 184.56626,9.0638694 191.11694,15.614356 191.11694,24.091472 L 191.11694,175.90861 z " style="fill: none; stroke: rgb(0, 0, 0); stroke-width: 1.15599;" id="61587264"/>
    <path d="M 73.975404,78.42195 L 61.644703,78.42195 L 61.644703,96.917455 L 73.975404,96.917455 C 79.755383,96.917455 83.608758,93.064235 83.608758,87.669702 C 83.608758,82.27517 79.755383,78.42195 73.975404,78.42195 z M 74.746062,108.86243 L 61.644703,108.86243 L 61.644703,134.29374 L 48.543344,134.29374 L 48.543344,66.862291 L 74.746062,66.862291 C 88.618079,66.862291 96.710117,76.495361 96.710117,87.669702 C 96.710117,99.229361 88.618079,108.86243 74.746062,108.86243 z " style="fill: rgb(0, 0, 0);" id="61587176"/>
    <path d="M 145.64751,126.97262 C 140.25286,132.75247 133.70218,134.67906 126.76617,134.67906 C 119.05946,134.67906 113.27948,131.98179 108.27012,127.35794 C 101.71944,120.42213 101.71944,111.94502 101.71944,100.38536 C 101.71944,88.825656 101.71944,80.348581 108.27012,73.412777 C 113.27948,68.78888 119.05946,66.091613 126.76617,66.091613 C 142.1795,66.091613 150.27154,76.495361 151.81286,87.669702 L 138.7115,87.669702 C 137.17018,81.504534 133.31685,78.036632 126.76617,78.036632 C 122.91279,78.036632 120.21549,79.192585 118.2888,81.504534 C 115.59146,84.2018 114.8208,87.669702 114.8208,100.38536 C 114.8208,113.48633 115.59146,116.56891 118.2888,119.26618 C 120.21549,121.57809 122.91279,122.73408 126.76617,122.73408 C 130.6195,122.73408 133.70218,121.57809 136.01415,119.26618 C 138.32617,116.56891 139.09683,113.48633 139.09683,110.01843 L 139.09683,107.70648 L 126.76617,107.70648 L 126.76617,96.532137 L 152.19819,96.532137 L 152.19819,106.55053 C 152.19819,116.1836 150.27154,121.9634 145.64751,126.97262 z " style="fill: rgb(0, 0, 0);" id="61587088"/>
    <path d="M 165.29955,53.376001 C 165.29955,57.614538 165.29955,142.38554 165.29955,146.23876 C 161.06088,146.23876 39.680647,146.23876 35.441985,146.23876 C 35.441985,142.38554 35.441985,57.614538 35.441985,53.376001 C 39.680647,53.376001 161.06088,53.376001 165.29955,53.376001 z M 167.22623,49.137421 L 31.203322,49.137421 L 31.203322,150.86261 L 169.53825,150.86261 L 169.53825,49.137421 L 167.22623,49.137421 z " style="fill: rgb(0, 0, 0);" id="61587000"/>
  </g>
</svg>