<?xml version="1.0" encoding="UTF-8" standalone="no"?>
<!-- Created with Inkscape (http://www.inkscape.org/) -->
<svg xmlns:svg="http://www.w3.org/2000/svg" xmlns="http://www.w3.org/2000/svg" width="200" height="200" id="svg2">
  <defs id="defs4"/>
  <g id="g2613">
    <path d="M 191.70254,175.91169 C 191.70254,184.38714 184.75223,190.93633 176.25738,190.93633 L 24.122712,190.93633 C 16.013988,190.93633 9.0636773,184.38714 9.0636773,175.91169 L 9.0636773,24.124507 C 9.0636773,16.034343 16.013988,9.0999058 24.122712,9.0999058 L 176.25738,9.0999058 C 184.75223,9.0999058 191.70254,16.034343 191.70254,24.124507 L 191.70254,175.91169 z " style="fill: none; stroke: rgb(255, 255, 255); stroke-width: 18.1273;" id="path3596"/>
    <path d="M 191.50948,175.91169 C 191.50948,184.0019 184.94529,190.93633 176.45044,190.93633 L 24.315773,190.93633 C 16.207092,190.93633 9.2567391,184.0019 9.2567391,175.91169 L 9.2567391,24.124465 C 9.2567391,15.64906 16.207092,9.0998638 24.315773,9.0998638 L 176.45044,9.0998638 C 184.94529,9.0998638 191.50948,15.64906 191.50948,24.124465 L 191.50948,175.91169 z " style="fill: rgb(0, 160, 198); fill-opacity: 1; stroke: none; stroke-width: 4.314; stroke-miterlimit: 4; stroke-dasharray: none;" id="path4000"/>
    <path d="M 191.50948,175.91169 C 191.50948,184.0019 184.94529,190.93633 176.45044,190.93633 L 24.315773,190.93633 C 16.207092,190.93633 9.2567391,184.0019 9.2567391,175.91169 L 9.2567391,24.124465 C 9.2567391,15.64906 16.207092,9.0998638 24.315773,9.0998638 L 176.45044,9.0998638 C 184.94529,9.0998638 191.50948,15.64906 191.50948,24.124465 L 191.50948,175.91169 z " style="fill: none; stroke: rgb(0, 0, 0); stroke-width: 1.15706;" id="path5000"/>
    <path d="M 116.98664,132.37881 L 116.98664,95.009892 L 104.63051,119.28042 L 96.135706,119.28042 L 83.779579,95.009892 L 83.779579,132.37881 L 71.423453,132.37881 L 71.423453,68.427867 L 83.779579,68.427867 L 100.38311,103.10006 L 116.98664,68.427867 L 129.34276,68.427867 L 129.34276,132.37881 L 116.98664,132.37881 z " style="fill: rgb(255, 255, 255);" id="path6000"/>
    <path d="M 51.730892,100.01808 C 51.730892,73.050812 73.740237,51.476973 100.38311,51.476973 C 127.4121,51.476973 149.03532,73.050812 149.03532,100.01808 C 149.03532,126.6001 127.4121,148.55918 100.38311,148.55918 C 73.740237,148.55918 51.730892,126.6001 51.730892,100.01808 z M 47.483489,100.01808 C 47.483489,128.9116 71.423453,152.79689 100.38311,152.79689 C 129.72889,152.79689 153.28273,128.9116 153.28273,100.01808 C 153.28273,70.739318 129.72889,47.239271 100.38311,47.239271 C 71.423453,47.239271 47.483489,70.739318 47.483489,100.01808 z " style="fill: rgb(255, 255, 255);" id="path7000"/>
  </g>
</svg>