<?xml version="1.0" encoding="utf-8"?>
<!-- Generator: Adobe Illustrator 16.0.0, SVG Export Plug-In . SVG Version: 6.00 Build 0)  -->
<!DOCTYPE svg PUBLIC "-//W3C//DTD SVG 1.1//EN" "http://www.w3.org/Graphics/SVG/1.1/DTD/svg11.dtd">
<svg version="1.1" id="svg2" xmlns:svg="http://www.w3.org/2000/svg"
	 xmlns="http://www.w3.org/2000/svg" xmlns:xlink="http://www.w3.org/1999/xlink" x="0px" y="0px" width="200px" height="200px"
	 viewBox="0 0 200 200" enable-background="new 0 0 200 200" xml:space="preserve">
<g id="g3724" transform="matrix(4.19056, 0, 0, 4.19056, -873.402, -1803.31)">
	<path id="path3610" fill="none" stroke="#FFFFFF" stroke-width="4.3137" d="M253.991,472.317c0,2.019-1.652,3.579-3.671,3.579
		h-36.162c-1.927,0-3.579-1.56-3.579-3.579v-36.162c0-1.927,1.652-3.579,3.579-3.579h36.162c2.019,0,3.671,1.652,3.671,3.579
		V472.317z"/>
	<path id="_x36_2499816" fill="#FFFFFF" d="M254.037,472.317c0,2.019-1.652,3.579-3.579,3.579h-36.162
		c-2.019,0-3.579-1.56-3.579-3.579v-36.162c0-1.927,1.56-3.579,3.579-3.579h36.162c1.927,0,3.579,1.652,3.579,3.579V472.317z"/>
	<path id="_x36_2499728" fill="none" stroke="#000000" stroke-width="0.2753" d="M254.037,472.317c0,2.019-1.652,3.579-3.579,3.579
		h-36.162c-2.019,0-3.579-1.56-3.579-3.579v-36.162c0-1.927,1.56-3.579,3.579-3.579h36.162c1.927,0,3.579,1.652,3.579,3.579V472.317
		z"/>
	<path id="_x36_2636256" fill="none" stroke="#000000" stroke-width="0.5507" d="M210.716,466.259h43.321"/>
	<g>
		<path d="M212.86,469.748h0.333v2.374h-0.333V469.748z M213.005,470.802h0.809c0.063,0,0.119-0.015,0.168-0.046
			c0.049-0.031,0.087-0.074,0.113-0.13c0.027-0.056,0.04-0.12,0.04-0.193s-0.013-0.137-0.04-0.193
			c-0.027-0.056-0.064-0.099-0.113-0.13c-0.048-0.031-0.105-0.046-0.169-0.046h-0.809v-0.316h0.796c0.137,0,0.258,0.028,0.361,0.085
			c0.104,0.057,0.184,0.137,0.241,0.241c0.057,0.104,0.086,0.224,0.086,0.36s-0.029,0.256-0.086,0.36
			c-0.058,0.104-0.138,0.184-0.242,0.241c-0.104,0.057-0.224,0.085-0.36,0.085h-0.796V470.802z M213.651,471.045l0.331-0.075
			l0.607,1.152h-0.395L213.651,471.045z"/>
		<path d="M215.004,469.75h0.333v2.372h-0.333V469.75z M215.166,469.75h1.362v0.316h-1.362V469.75z M215.166,470.786h1.183v0.316
			h-1.183V470.786z M215.166,471.805h1.362v0.316h-1.362V471.805z"/>
		<path d="M216.967,469.75h0.333v2.372h-0.333V469.75z M217.131,469.75h1.329v0.316h-1.329V469.75z M217.131,470.807h1.15v0.316
			h-1.15V470.807z"/>
		<path d="M219.152,472.042c-0.125-0.069-0.219-0.17-0.285-0.302c-0.065-0.132-0.098-0.291-0.098-0.477v-1.514h0.333v1.525
			c0,0.173,0.043,0.307,0.13,0.401s0.21,0.142,0.369,0.142c0.16,0,0.284-0.047,0.371-0.142c0.087-0.095,0.131-0.228,0.131-0.401
			v-1.525h0.333v1.514c0,0.186-0.033,0.345-0.098,0.477c-0.065,0.132-0.16,0.233-0.285,0.302c-0.125,0.069-0.276,0.104-0.452,0.104
			C219.426,472.146,219.276,472.112,219.152,472.042z"/>
		<path d="M221.434,472.146c0,0-0.051-0.011-0.153-0.033c-0.102-0.022-0.198-0.054-0.286-0.098s-0.172-0.098-0.249-0.163
			l0.207-0.254c0.09,0.078,0.19,0.137,0.299,0.176c0.109,0.039,0.227,0.059,0.354,0.059c0.172,0,0.305-0.032,0.4-0.095
			c0.095-0.064,0.142-0.154,0.142-0.27v-0.002c0-0.083-0.021-0.148-0.064-0.197c-0.043-0.048-0.098-0.084-0.166-0.108
			c-0.068-0.023-0.156-0.045-0.263-0.064c-0.003-0.001-0.007-0.002-0.011-0.002s-0.007,0-0.011-0.002l-0.024-0.005
			c-0.159-0.027-0.288-0.058-0.387-0.092c-0.1-0.034-0.185-0.097-0.255-0.188c-0.071-0.091-0.106-0.22-0.106-0.387v-0.002
			c0-0.147,0.033-0.272,0.099-0.376c0.066-0.104,0.162-0.183,0.288-0.237s0.278-0.082,0.455-0.082c0.085,0,0.168,0.009,0.25,0.028
			c0.082,0.018,0.163,0.046,0.243,0.083c0.08,0.036,0.158,0.082,0.236,0.138l-0.189,0.264c-0.09-0.066-0.18-0.116-0.27-0.149
			c-0.09-0.033-0.18-0.05-0.27-0.05c-0.162,0-0.288,0.032-0.378,0.097c-0.09,0.065-0.135,0.156-0.135,0.275v0.002
			c0,0.082,0.023,0.146,0.069,0.193c0.046,0.047,0.104,0.081,0.173,0.103c0.069,0.022,0.165,0.045,0.288,0.069
			c0.004,0.001,0.008,0.002,0.012,0.002c0.004,0.001,0.008,0.001,0.012,0.003c0.005,0.001,0.011,0.002,0.018,0.003
			c0.007,0.001,0.012,0.002,0.018,0.003c0.144,0.029,0.263,0.064,0.36,0.104c0.096,0.04,0.177,0.105,0.241,0.195
			c0.065,0.089,0.097,0.212,0.097,0.368v0.003c0,0.145-0.034,0.268-0.103,0.371c-0.069,0.103-0.168,0.181-0.298,0.235
			c-0.13,0.054-0.287,0.081-0.471,0.081C221.491,472.146,221.434,472.146,221.434,472.146z"/>
		<path d="M222.883,469.75h0.333v2.372h-0.333V469.75z M223.045,469.75h1.362v0.316h-1.362V469.75z M223.045,470.786h1.183v0.316
			h-1.183V470.786z M223.045,471.805h1.362v0.316h-1.362V471.805z"/>
		<path d="M224.847,469.75h0.333v2.372h-0.333V469.75z M225.072,471.805h0.537c0.175,0,0.311-0.045,0.407-0.136
			c0.096-0.091,0.144-0.219,0.144-0.384v-0.698c0-0.165-0.048-0.293-0.144-0.384c-0.096-0.091-0.232-0.136-0.407-0.136h-0.537
			v-0.316h0.527c0.19,0,0.353,0.033,0.488,0.1c0.135,0.066,0.238,0.163,0.308,0.29c0.071,0.127,0.106,0.281,0.106,0.46v0.672
			c0,0.179-0.035,0.333-0.106,0.46c-0.071,0.127-0.174,0.224-0.309,0.29s-0.298,0.1-0.489,0.1h-0.525V471.805z"/>
		<path d="M228.399,472.146c0,0-0.062-0.036-0.187-0.109c-0.125-0.073-0.221-0.176-0.29-0.31s-0.103-0.289-0.103-0.465v-0.651
			c0-0.176,0.034-0.331,0.103-0.465c0.069-0.134,0.165-0.237,0.29-0.311c0.125-0.074,0.269-0.11,0.433-0.11
			c0.136,0,0.261,0.029,0.375,0.087c0.114,0.058,0.21,0.141,0.286,0.247c0.077,0.106,0.129,0.23,0.156,0.37h-0.341
			c-0.021-0.074-0.055-0.14-0.104-0.198c-0.048-0.058-0.105-0.103-0.17-0.134s-0.133-0.047-0.202-0.047
			c-0.097,0-0.182,0.023-0.254,0.07c-0.073,0.047-0.129,0.112-0.17,0.196c-0.04,0.084-0.06,0.182-0.06,0.295v0.651
			c0,0.111,0.02,0.209,0.06,0.294c0.04,0.085,0.097,0.15,0.17,0.196c0.073,0.046,0.158,0.069,0.254,0.069
			c0.071,0,0.138-0.015,0.203-0.044s0.121-0.073,0.17-0.13c0.048-0.058,0.083-0.126,0.104-0.206h0.341
			c-0.027,0.14-0.079,0.264-0.157,0.37c-0.077,0.106-0.173,0.189-0.287,0.247c-0.114,0.058-0.239,0.087-0.374,0.087
			C228.482,472.146,228.399,472.146,228.399,472.146z"/>
		<path d="M229.87,469.75h0.333v2.372h-0.333V469.75z M230.037,471.805h1.357v0.316h-1.357V471.805z"/>
		<path d="M232.43,469.75h0.284l0.874,2.372h-0.359l-0.657-1.913l-0.658,1.913h-0.359L232.43,469.75z M231.959,471.285h1.248v0.316
			h-1.248V471.285z"/>
		<path d="M234.325,472.146c0,0-0.051-0.011-0.153-0.033c-0.102-0.022-0.198-0.054-0.286-0.098
			c-0.089-0.044-0.172-0.098-0.249-0.163l0.207-0.254c0.09,0.078,0.19,0.137,0.298,0.176c0.109,0.039,0.227,0.059,0.354,0.059
			c0.172,0,0.305-0.032,0.399-0.095c0.095-0.064,0.142-0.154,0.142-0.27v-0.002c0-0.083-0.021-0.148-0.064-0.197
			c-0.043-0.048-0.099-0.084-0.166-0.108c-0.068-0.023-0.156-0.045-0.264-0.064c-0.003-0.001-0.007-0.002-0.01-0.002
			c-0.004,0-0.007,0-0.011-0.002l-0.025-0.005c-0.158-0.027-0.288-0.058-0.387-0.092c-0.099-0.034-0.185-0.097-0.255-0.188
			c-0.07-0.091-0.106-0.22-0.106-0.387v-0.002c0-0.147,0.033-0.272,0.099-0.376c0.066-0.104,0.162-0.183,0.288-0.237
			c0.126-0.054,0.278-0.082,0.455-0.082c0.085,0,0.168,0.009,0.25,0.028c0.082,0.018,0.163,0.046,0.243,0.083
			c0.08,0.036,0.158,0.082,0.235,0.138l-0.189,0.264c-0.09-0.066-0.18-0.116-0.27-0.149c-0.089-0.033-0.179-0.05-0.27-0.05
			c-0.162,0-0.288,0.032-0.378,0.097c-0.09,0.065-0.135,0.156-0.135,0.275v0.002c0,0.082,0.023,0.146,0.069,0.193
			c0.046,0.047,0.103,0.081,0.173,0.103c0.069,0.022,0.165,0.045,0.288,0.069c0.005,0.001,0.008,0.002,0.013,0.002
			c0.004,0.001,0.008,0.001,0.012,0.003c0.006,0.001,0.011,0.002,0.018,0.003c0.007,0.001,0.013,0.002,0.018,0.003
			c0.144,0.029,0.263,0.064,0.36,0.104c0.096,0.04,0.177,0.105,0.241,0.195c0.064,0.089,0.097,0.212,0.097,0.368v0.003
			c0,0.145-0.034,0.268-0.103,0.371c-0.069,0.103-0.168,0.181-0.297,0.235c-0.13,0.054-0.287,0.081-0.471,0.081
			C234.382,472.146,234.325,472.146,234.325,472.146z"/>
		<path d="M236.283,472.146c0,0-0.051-0.011-0.153-0.033c-0.102-0.022-0.198-0.054-0.286-0.098s-0.172-0.098-0.249-0.163
			l0.207-0.254c0.09,0.078,0.19,0.137,0.298,0.176s0.227,0.059,0.354,0.059c0.172,0,0.305-0.032,0.399-0.095
			c0.095-0.064,0.142-0.154,0.142-0.27v-0.002c0-0.083-0.021-0.148-0.065-0.197c-0.043-0.048-0.098-0.084-0.166-0.108
			c-0.068-0.023-0.156-0.045-0.263-0.064c-0.003-0.001-0.007-0.002-0.011-0.002c-0.004,0-0.007,0-0.01-0.002l-0.025-0.005
			c-0.159-0.027-0.288-0.058-0.387-0.092c-0.1-0.034-0.185-0.097-0.255-0.188c-0.071-0.091-0.106-0.22-0.106-0.387v-0.002
			c0-0.147,0.033-0.272,0.098-0.376c0.066-0.104,0.162-0.183,0.288-0.237c0.126-0.054,0.278-0.082,0.455-0.082
			c0.085,0,0.168,0.009,0.25,0.028c0.082,0.018,0.163,0.046,0.243,0.083c0.08,0.036,0.158,0.082,0.236,0.138l-0.189,0.264
			c-0.09-0.066-0.18-0.116-0.27-0.149c-0.09-0.033-0.18-0.05-0.27-0.05c-0.162,0-0.288,0.032-0.378,0.097
			c-0.089,0.065-0.134,0.156-0.134,0.275v0.002c0,0.082,0.023,0.146,0.069,0.193c0.047,0.047,0.104,0.081,0.173,0.103
			c0.069,0.022,0.165,0.045,0.288,0.069c0.004,0.001,0.008,0.002,0.012,0.002c0.004,0.001,0.008,0.001,0.013,0.003
			c0.005,0.001,0.011,0.002,0.018,0.003c0.007,0.001,0.013,0.002,0.018,0.003c0.144,0.029,0.263,0.064,0.359,0.104
			c0.096,0.04,0.177,0.105,0.241,0.195c0.065,0.089,0.097,0.212,0.097,0.368v0.003c0,0.145-0.034,0.268-0.103,0.371
			c-0.069,0.103-0.168,0.181-0.298,0.235c-0.13,0.054-0.287,0.081-0.47,0.081C236.341,472.146,236.283,472.146,236.283,472.146z"/>
		<path d="M238.066,472.122h-0.333v-2.372h0.333V472.122z"/>
		<path d="M238.619,469.75h0.333v2.372h-0.333V469.75z M238.783,469.75h1.33v0.316h-1.33V469.75z M238.783,470.807h1.15v0.316h-1.15
			V470.807z"/>
		<path d="M240.819,472.122h-0.333v-2.372h0.333V472.122z"/>
		<path d="M241.903,472.146c0,0-0.062-0.036-0.187-0.109s-0.221-0.176-0.289-0.31c-0.069-0.134-0.103-0.289-0.103-0.465v-0.651
			c0-0.176,0.034-0.331,0.103-0.465c0.069-0.134,0.165-0.237,0.289-0.311c0.124-0.074,0.269-0.11,0.433-0.11
			c0.136,0,0.261,0.029,0.375,0.087c0.114,0.058,0.21,0.141,0.287,0.247c0.076,0.106,0.129,0.23,0.156,0.37h-0.341
			c-0.021-0.074-0.055-0.14-0.103-0.198c-0.048-0.058-0.105-0.103-0.171-0.134c-0.065-0.031-0.132-0.047-0.202-0.047
			c-0.096,0-0.181,0.023-0.254,0.07c-0.073,0.047-0.129,0.112-0.17,0.196c-0.04,0.084-0.06,0.182-0.06,0.295v0.651
			c0,0.111,0.02,0.209,0.06,0.294c0.041,0.085,0.097,0.15,0.17,0.196c0.073,0.046,0.158,0.069,0.254,0.069
			c0.071,0,0.138-0.015,0.203-0.044c0.065-0.029,0.121-0.073,0.17-0.13s0.083-0.126,0.103-0.206h0.341
			c-0.027,0.14-0.079,0.264-0.157,0.37c-0.077,0.106-0.173,0.189-0.287,0.247c-0.114,0.058-0.239,0.087-0.374,0.087
			C241.985,472.146,241.903,472.146,241.903,472.146z"/>
		<path d="M243.955,469.75h0.284l0.874,2.372h-0.359l-0.657-1.913l-0.658,1.913h-0.359L243.955,469.75z M243.483,471.285h1.248
			v0.316h-1.248V471.285z"/>
		<path d="M245.047,469.75h1.674v0.316h-1.674V469.75z M245.717,469.944h0.333v2.178h-0.333V469.944z"/>
		<path d="M247.346,472.122h-0.333v-2.372h0.333V472.122z"/>
		<path d="M248.248,472.038c-0.126-0.072-0.224-0.175-0.293-0.307c-0.069-0.132-0.104-0.285-0.104-0.459V470.6
			c0-0.174,0.034-0.327,0.104-0.459c0.069-0.132,0.166-0.234,0.293-0.307c0.126-0.072,0.272-0.108,0.437-0.108
			s0.311,0.036,0.437,0.108c0.126,0.072,0.224,0.175,0.293,0.307c0.069,0.132,0.103,0.285,0.103,0.459v0.672
			c0,0.174-0.034,0.327-0.103,0.459c-0.069,0.132-0.166,0.234-0.293,0.307c-0.126,0.072-0.272,0.108-0.437,0.108
			S248.374,472.11,248.248,472.038z M248.943,471.752c0.074-0.044,0.132-0.107,0.173-0.187c0.041-0.081,0.061-0.175,0.061-0.281
			v-0.695c0-0.106-0.021-0.2-0.061-0.281c-0.041-0.081-0.099-0.144-0.173-0.187c-0.075-0.044-0.161-0.066-0.259-0.066
			c-0.098,0-0.184,0.022-0.259,0.066c-0.075,0.044-0.132,0.107-0.173,0.187c-0.041,0.081-0.061,0.175-0.061,0.281v0.695
			c0,0.106,0.021,0.2,0.061,0.281c0.041,0.081,0.098,0.144,0.173,0.187c0.075,0.044,0.161,0.066,0.259,0.066
			C248.783,471.818,248.869,471.796,248.943,471.752z"/>
		<path d="M249.991,469.75h0.302l1.16,1.834l-0.039,0.042v-1.876h0.33v2.37h-0.305l-1.156-1.806l0.039-0.042v1.848h-0.33V469.75z"/>
	</g>
	<path fill="#EC1F25" d="M232.284,437.05c-7.009,0-12.711,5.702-12.711,12.711c0,7.009,5.702,12.712,12.711,12.712
		s12.711-5.702,12.711-12.712C244.995,442.753,239.293,437.05,232.284,437.05z M232.284,439.215c2.303,0,4.434,0.744,6.171,2.002
		l-14.716,14.716c-1.258-1.736-2.002-3.868-2.002-6.171C221.738,443.946,226.469,439.215,232.284,439.215z M232.284,460.309
		c-2.739,0-5.238-1.051-7.115-2.769l14.893-14.893c1.718,1.877,2.769,4.375,2.769,7.114
		C242.831,455.577,238.1,460.309,232.284,460.309z"/>
	<g>
		<path d="M230.347,450.011c0.471-0.256,0.843-0.625,1.104-1.097c0.259-0.466,0.39-1.007,0.39-1.609c0-0.602-0.13-1.143-0.386-1.608
			c-0.259-0.472-0.63-0.841-1.102-1.098c-0.465-0.253-1.008-0.382-1.614-0.382h-4.131v10.261h1.952v-4.085h1.535l2.061,4.085h2.286
			l-2.3-4.365C230.212,450.081,230.28,450.048,230.347,450.011z M229.669,446.646c0.089,0.187,0.134,0.409,0.134,0.659
			s-0.045,0.472-0.134,0.659c-0.084,0.177-0.199,0.309-0.35,0.403c-0.152,0.095-0.325,0.141-0.527,0.141h-2.232v-2.406h2.232
			c0.206,0,0.379,0.046,0.529,0.14C229.471,446.336,229.584,446.468,229.669,446.646z"/>
		<path d="M238.56,451.335c-0.073,0.278-0.194,0.521-0.362,0.72c-0.167,0.199-0.364,0.351-0.586,0.452
			c-0.223,0.101-0.46,0.153-0.703,0.153c-0.34,0-0.626-0.077-0.877-0.236c-0.25-0.159-0.44-0.38-0.581-0.676
			c-0.144-0.303-0.217-0.663-0.217-1.068v-2.65c0-0.409,0.073-0.77,0.217-1.071c0.141-0.295,0.331-0.516,0.583-0.678
			c0.25-0.16,0.536-0.238,0.875-0.238c0.237,0,0.47,0.055,0.694,0.163c0.226,0.11,0.426,0.268,0.595,0.47
			c0.169,0.203,0.292,0.438,0.364,0.697l0.061,0.218h1.976l-0.069-0.355c-0.118-0.611-0.349-1.158-0.685-1.625
			c-0.339-0.471-0.767-0.84-1.272-1.098c-0.505-0.257-1.065-0.388-1.663-0.388c-0.72,0-1.364,0.165-1.915,0.49
			c-0.554,0.327-0.989,0.793-1.293,1.386c-0.3,0.585-0.452,1.267-0.452,2.029v2.65c0,0.762,0.152,1.444,0.452,2.029
			c0.304,0.594,0.739,1.059,1.294,1.383c0,0,0.485,0.27,0.813,0.363c0.261,0.074,0.511,0.123,1.101,0.123
			c0.594,0,1.151-0.131,1.656-0.388c0.505-0.257,0.934-0.626,1.275-1.097c0.338-0.467,0.57-1.014,0.689-1.626l0.069-0.355h-1.98
			L238.56,451.335z"/>
	</g>
</g>
</svg>
