<?xml version="1.0" encoding="UTF-8" standalone="no"?>
<!-- Created with Inkscape (http://www.inkscape.org/) -->
<svg xmlns:svg="http://www.w3.org/2000/svg" xmlns="http://www.w3.org/2000/svg" version="1.0" width="200" height="200" id="svg2">
  <defs id="defs4"/>
  <g transform="matrix(4.20705, 0, 0, 4.19748, -880.123, -1468.19)" id="g3683">
    <path d="M 254.77082,391.6872 C 254.77082,393.70639 253.11876,395.26667 251.09957,395.26667 L 214.93779,395.26667 C 213.01038,395.26667 211.35832,393.70639 211.35832,391.6872 L 211.35832,355.52542 C 211.35832,353.59802 213.01038,351.94596 214.93779,351.94596 L 251.09957,351.94596 C 253.11876,351.94596 254.77082,353.59802 254.77082,355.52542 L 254.77082,391.6872 z " style="fill: none; stroke: rgb(255, 255, 255); stroke-width: 4.31371;" id="path3608"/>
    <path d="M 254.77081,391.64131 C 254.77081,393.6605 253.11875,395.31256 251.19135,395.31256 L 215.02957,395.31256 C 213.01038,395.31256 211.4501,393.6605 211.4501,391.64131 L 211.4501,355.47953 C 211.4501,353.55213 213.01038,351.90007 215.02957,351.90007 L 251.19135,351.90007 C 253.11875,351.90007 254.77081,353.55213 254.77081,355.47953 L 254.77081,391.64131 z " style="fill: rgb(0, 0, 0); stroke: none; stroke-width: 4.31371;" id="61575584"/>
    <path d="M 254.77081,391.64131 C 254.77081,393.6605 253.11875,395.31256 251.19135,395.31256 L 215.02957,395.31256 C 213.01038,395.31256 211.4501,393.6605 211.4501,391.64131 L 211.4501,355.47953 C 211.4501,353.55213 213.01038,351.90007 215.02957,351.90007 L 251.19135,351.90007 C 253.11875,351.90007 254.77081,353.55213 254.77081,355.47953 L 254.77081,391.64131 z " style="fill: none; stroke: rgb(0, 0, 0); stroke-width: 0.275344;" id="61575496"/>
    <path d="M 211.35832,385.58376 L 211.35832,391.64131 C 211.35832,393.6605 213.01038,395.31256 215.02957,395.31256 L 251.09957,395.31256 C 253.11875,395.31256 254.77081,393.6605 254.77081,391.64131 L 254.77081,385.58376 L 211.35832,385.58376 z " style="fill: rgb(0, 0, 0); stroke: rgb(0, 0, 0); stroke-width: 0.275344;" id="61575408"/>
    <path d="M 216.40628,388.24541 L 215.30491,388.24541 L 215.30491,389.80569 L 216.40628,389.80569 C 216.95697,389.80569 217.3241,389.53035 217.3241,388.97966 C 217.3241,388.52075 216.95697,388.24541 216.40628,388.24541 z M 217.3241,392.55913 L 216.22272,390.44816 L 215.30491,390.44816 L 215.30491,392.55913 L 214.57066,392.55913 L 214.57066,387.51116 L 216.49807,387.51116 C 217.41588,387.51116 218.05835,388.15363 218.05835,388.97966 C 218.05835,389.71391 217.59944,390.17282 217.04875,390.35638 L 218.24191,392.55913 L 217.3241,392.55913 z " style="fill: rgb(255, 255, 255);" id="61575320"/>
    <path d="M 218.97616,392.55913 L 218.97616,387.51116 L 222.1885,387.51116 L 222.1885,388.24541 L 219.71041,388.24541 L 219.71041,389.71391 L 221.82137,389.71391 L 221.82137,390.35638 L 219.71041,390.35638 L 219.71041,391.82488 L 222.1885,391.82488 L 222.1885,392.55913 L 218.97616,392.55913 z " style="fill: rgb(255, 255, 255);" id="61575232"/>
    <path d="M 224.39125,392.55913 C 223.56522,392.55913 223.10631,392.37556 222.55562,391.91666 L 223.10631,391.45775 C 223.47343,391.82488 223.84056,391.91666 224.39125,391.91666 C 225.03371,391.91666 225.40084,391.64131 225.40084,391.18241 C 225.40084,390.90706 225.30906,390.7235 225.21728,390.63172 C 225.1255,390.53994 224.94193,390.44816 224.66659,390.44816 L 224.1159,390.35638 C 223.657,390.2646 223.38165,390.17282 223.10631,389.89747 C 222.92275,389.71391 222.73919,389.34678 222.73919,388.97966 C 222.73919,388.06185 223.38165,387.51116 224.39125,387.51116 C 225.1255,387.51116 225.5844,387.69472 225.95153,388.06185 L 225.49262,388.52075 C 225.21728,388.24541 224.85015,388.15363 224.39125,388.15363 C 223.84056,388.15363 223.47343,388.52075 223.47343,388.97966 C 223.47343,389.16322 223.56522,389.255 223.657,389.43857 C 223.84056,389.53035 224.02412,389.62213 224.20768,389.62213 L 224.85015,389.71391 C 225.30906,389.80569 225.49262,389.89747 225.76796,390.08103 C 226.04331,390.35638 226.13509,390.7235 226.13509,391.09063 C 226.13509,392.00844 225.40084,392.55913 224.39125,392.55913 z " style="fill: rgb(255, 255, 255);" id="61575144"/>
    <path d="M 228.70496,388.24541 L 228.70496,392.55913 L 227.97071,392.55913 L 227.97071,388.24541 L 226.59399,388.24541 L 226.59399,387.51116 L 230.08168,387.51116 L 230.08168,388.24541 L 228.70496,388.24541 z " style="fill: rgb(255, 255, 255);" id="61575056"/>
    <path d="M 232.65155,388.24541 L 231.4584,388.24541 L 231.4584,389.80569 L 232.65155,389.80569 C 233.11046,389.80569 233.47758,389.53035 233.47758,388.97966 C 233.47758,388.52075 233.11046,388.24541 232.65155,388.24541 z M 233.47758,392.55913 L 232.46799,390.44816 L 231.4584,390.44816 L 231.4584,392.55913 L 230.72415,392.55913 L 230.72415,387.51116 L 232.65155,387.51116 C 233.66114,387.51116 234.21183,388.15363 234.21183,388.97966 C 234.21183,389.71391 233.75293,390.17282 233.20224,390.35638 L 234.39539,392.55913 L 233.47758,392.55913 z " style="fill: rgb(255, 255, 255);" id="61574968"/>
    <path d="M 235.12964,392.55913 L 235.95567,392.55913 L 235.95567,387.51116 L 235.12964,387.51116 L 235.12964,392.55913 z " style="fill: rgb(255, 255, 255);" id="61574880"/>
    <path d="M 238.61733,392.55913 C 238.15842,392.55913 237.69952,392.37556 237.33239,392.00844 C 236.87349,391.54953 236.87349,390.99885 236.87349,390.08103 C 236.87349,389.07144 236.87349,388.52075 237.33239,388.06185 C 237.69952,387.69472 238.15842,387.51116 238.61733,387.51116 C 239.53514,387.51116 240.26939,388.06185 240.45295,389.07144 L 239.62692,389.07144 C 239.53514,388.52075 239.16801,388.15363 238.61733,388.15363 C 238.34198,388.15363 238.06664,388.33719 237.88308,388.52075 C 237.69952,388.7961 237.60773,389.07144 237.60773,390.08103 C 237.60773,391.09063 237.69952,391.36597 237.88308,391.64131 C 238.06664,391.82488 238.34198,391.91666 238.61733,391.91666 C 239.16801,391.91666 239.53514,391.54953 239.7187,391.09063 L 240.45295,391.09063 C 240.26939,392.00844 239.53514,392.55913 238.61733,392.55913 z " style="fill: rgb(255, 255, 255);" id="61574792"/>
    <path d="M 242.83926,388.24541 L 242.83926,392.55913 L 242.10501,392.55913 L 242.10501,388.24541 L 240.72829,388.24541 L 240.72829,387.51116 L 244.21598,387.51116 L 244.21598,388.24541 L 242.83926,388.24541 z " style="fill: rgb(255, 255, 255);" id="61574704"/>
    <path d="M 244.85845,392.55913 L 244.85845,387.51116 L 248.07079,387.51116 L 248.07079,388.24541 L 245.68448,388.24541 L 245.68448,389.71391 L 247.70366,389.71391 L 247.70366,390.35638 L 245.68448,390.35638 L 245.68448,391.82488 L 248.07079,391.82488 L 248.07079,392.55913 L 244.85845,392.55913 z " style="fill: rgb(255, 255, 255);" id="61574616"/>
    <path d="M 251.46669,388.61254 C 251.28313,388.33719 251.00779,388.24541 250.64066,388.24541 L 249.72285,388.24541 L 249.72285,391.82488 L 250.64066,391.82488 C 251.00779,391.82488 251.28313,391.73309 251.46669,391.54953 C 251.74203,391.27419 251.74203,390.7235 251.74203,389.98925 C 251.74203,389.34678 251.74203,388.88788 251.46669,388.61254 z M 252.01738,392.10022 C 251.65025,392.37556 251.19135,392.55913 250.73244,392.55913 L 248.89682,392.55913 L 248.89682,387.51116 L 250.73244,387.51116 C 251.19135,387.51116 251.65025,387.69472 252.01738,388.06185 C 252.47628,388.52075 252.47628,389.255 252.47628,389.98925 C 252.47628,390.7235 252.47628,391.54953 252.01738,392.10022 z " style="fill: rgb(255, 255, 255);" id="61574528"/>
    <path d="M 211.35832,385.58376 L 254.77081,385.58376" style="fill: none; stroke: rgb(255, 255, 255); stroke-width: 0.550687;" id="61574440"/>
    <path d="M 239.44336,373.74399 L 239.44336,366.30971 L 237.88308,367.68643 L 237.88308,366.67684 L 239.44336,365.30012 L 240.36117,365.30012 L 240.36117,373.74399 L 239.44336,373.74399 z " style="fill: rgb(255, 255, 255);" id="61574176"/>
    <path d="M 244.03242,366.03437 C 243.20639,366.03437 242.56392,366.67684 242.56392,367.50287 C 242.56392,368.42068 243.20639,369.06315 244.03242,369.06315 C 244.95023,369.06315 245.50092,368.42068 245.50092,367.50287 C 245.50092,366.67684 244.95023,366.03437 244.03242,366.03437 z M 244.03242,369.7974 C 243.1146,369.7974 242.38036,370.53164 242.38036,371.44946 C 242.38036,372.36727 243.1146,373.10152 244.03242,373.10152 C 244.95023,373.10152 245.68448,372.36727 245.68448,371.44946 C 245.68448,370.53164 244.95023,369.7974 244.03242,369.7974 z M 244.03242,373.83577 C 242.6557,373.83577 241.55432,372.91796 241.55432,371.44946 C 241.55432,370.43986 242.10501,369.7974 242.83926,369.43027 C 242.19679,368.97136 241.73789,368.42068 241.73789,367.50287 C 241.73789,366.21793 242.74748,365.20834 244.03242,365.20834 C 245.40913,365.20834 246.41873,366.21793 246.41873,367.50287 C 246.41873,368.42068 245.95982,368.97136 245.31735,369.43027 C 246.0516,369.7974 246.60229,370.43986 246.60229,371.44946 C 246.60229,372.91796 245.50092,373.83577 244.03242,373.83577 z " style="fill: rgb(255, 255, 255);" id="61574088"/>
    <path d="M 250.64066,370.99055 L 250.64066,373.10152 L 249.90641,373.10152 L 249.90641,370.99055 L 247.79544,370.99055 L 247.79544,370.16452 L 249.90641,370.16452 L 249.90641,368.14533 L 250.64066,368.14533 L 250.64066,370.16452 L 252.75163,370.16452 L 252.75163,370.99055 L 250.64066,370.99055 z " style="fill: rgb(255, 255, 255);" id="61574000"/>
    <path d="M 225.49262,366.40149 L 223.38165,366.40149 L 223.38165,369.43027 L 225.49262,369.43027 C 226.50221,369.43027 227.14468,368.7878 227.14468,367.86999 C 227.14468,367.04396 226.50221,366.40149 225.49262,366.40149 z M 227.23646,375.85495 L 225.03371,371.26589 L 223.38165,371.26589 L 223.38165,375.85495 L 221.17891,375.85495 L 221.17891,364.38231 L 225.67618,364.38231 C 227.97071,364.38231 229.43921,365.94259 229.43921,367.86999 C 229.43921,369.52205 228.42962,370.53164 227.32824,370.89877 L 229.89812,375.85495 L 227.23646,375.85495 z " style="fill: rgb(255, 255, 255);" id="61573912"/>
    <path d="M 225.30906,359.15078 C 225.76796,359.70147 235.68033,369.52205 236.13924,370.07274 C 235.68033,370.53164 225.76796,380.44401 225.30906,380.90292 C 224.85015,380.44401 214.93779,370.53164 214.3871,370.07274 C 214.93779,369.52205 224.85015,359.70147 225.30906,359.15078 z M 225.03371,358.41653 L 213.37751,370.07274 L 225.30906,382.00429 L 237.24061,370.07274 L 225.30906,358.14119 L 225.03371,358.41653 z " style="fill: rgb(255, 255, 255);" id="62507824"/>
  </g>
</svg>