<?xml version="1.0" encoding="utf-8"?>
<!-- Generator: Adobe Illustrator 27.2.0, SVG Export Plug-In . SVG Version: 6.00 Build 0)  -->
<svg version="1.1" id="레이어_1" xmlns="http://www.w3.org/2000/svg" xmlns:xlink="http://www.w3.org/1999/xlink" x="0px"
	 y="0px" viewBox="0 0 720 834.69" enable-background="new 0 0 720 834.69" xml:space="preserve">
<g>
	<rect x="21.604" y="23.875" fill="#A31639" width="660.165" height="695.353"/>
	<path fill="#9CA3AB" d="M322.006,88.519c-69.814,89.204-161.395,95.183-174.138,95.42v81.295c0,0,7.977,0.131,65.011,0.298
		c37.446,0.1,36.936,37.285,36.936,37.285v371.897h127.06h312.586V612.31V448.04V158.676V88.519H322.006z"/>
	<path fill="#FFFFFF" d="M567.727,121.815c-104.262,0-181.381,38.665-181.381,150.848c0,75.981,18.922,97.168,47.134,117.229
		c-24.342,18.573-58.384,53.313-58.384,159.33c0,112.189,19.519,119.12,60.17,138.236h172.042c26.022,0,69.411,7.367,82.154,1.947
		v-281.99V149.249C663.974,132.779,628.395,121.815,567.727,121.815 M593.886,610.879c0,19.812-10.927,35.853-25.487,35.853
		c-14.561,0-25.487-16.041-25.487-35.853V494.241c0-19.806,10.926-35.853,25.487-35.853c14.56,0,25.487,16.048,25.487,35.853
		V610.879z M593.886,321.95c0,19.806-10.927,35.853-25.487,35.853c-14.561,0-25.487-16.048-25.487-35.853v-71.694
		c0-19.806,10.926-35.853,25.487-35.853c14.56,0,25.487,16.048,25.487,35.853V321.95z"/>
	<path fill="#231F20" d="M669.027,0H50.973C26.333,0,0,26.538,0,51.365v731.96c0,24.815,26.333,51.365,50.973,51.365h618.053
		c24.634,0,50.973-26.551,50.973-51.365V51.365C720,26.538,693.661,0,669.027,0 M675.317,627.412
		c0,21.267-17.13,38.523-38.236,38.523H82.913c-21.113,0-38.236-17.255-38.236-38.523V81.65c0-21.274,17.124-38.523,38.236-38.523
		h554.169c21.106,0,38.236,17.248,38.236,38.523V627.412z"/>
	<path fill="#FFFFFF" d="M71.321,708.955v-7.467h13.428v7.467h18.132v10.161H84.748c0,6.011,2.016,11.543,6.061,16.589
		c3.746,4.698,8.917,8.569,15.512,11.624l-5.992,7.834c-4.828-1.936-9.358-4.605-13.596-8.027
		c-4.231-3.491-7.224-6.938-8.978-10.379c-1.867,3.441-4.96,6.888-9.247,10.379c-4.349,3.541-8.979,6.253-13.876,8.139l-4.984-7.759
		c6.223-3.099,11.269-7.006,15.139-11.73c4.349-5.232,6.534-10.783,6.534-16.67H53.183v-10.161H71.321z M119.282,764.191
		c5.818,3.721,8.711,8.326,8.711,13.752c-0.062,5.357-3.006,9.881-8.792,13.565c-6.471,4.131-15.3,6.203-26.482,6.203
		c-11.132,0-19.924-2.072-26.389-6.203c-5.737-3.684-8.612-8.207-8.612-13.565c0-5.426,2.875-10.031,8.612-13.752
		c6.527-4.143,15.326-6.203,26.389-6.203C103.963,757.987,112.811,760.047,119.282,764.191 M76.585,771.353
		c-3.516,1.742-5.264,3.908-5.264,6.484c0,2.52,1.748,4.648,5.264,6.397c3.913,2.01,9.29,3.018,16.134,3.018
		c6.944,0,12.426-1.008,16.408-3.018c3.559-1.749,5.357-3.877,5.357-6.397c0-2.576-1.798-4.742-5.357-6.484
		c-3.982-1.941-9.464-2.906-16.408-2.906C85.875,768.447,80.499,769.412,76.585,771.353 M126.724,755.163h-13.421v-18.3H97.971
		v-10.18h15.332V701.98h13.421V755.163z"/>
	<path fill="#FFFFFF" d="M198.076,733.073c5.37,6.203,13.266,11.119,23.67,14.722l-5.992,8.257
		c-8.463-3.049-15.413-6.471-20.858-10.273c-5.675-4.026-10.186-8.724-13.502-14.137c-3.093,5.413-7.473,10.111-13.154,14.137
		c-5.438,3.802-12.457,7.224-21.032,10.273l-5.357-8.257c9.919-3.603,17.56-8.562,22.955-14.815
		c6.695-7.809,10.049-17.889,10.049-30.228h13.341C188.195,715.284,191.493,725.389,198.076,733.073 M174.854,778.229v-25.866
		h13.341v25.866h32.723v10.174h-78.514v-10.174H174.854z"/>
	<path fill="#FFFFFF" d="M294.28,736.95h-24.665v-10.553h24.665v-7.286h-24.211v-10.46h24.211v-6.671h13.421v67.432H294.28v-14.137
		h-48.796c-3.261,0-5.675-1.014-7.249-3.018c-1.45-1.792-2.171-4.393-2.171-7.753v-41.752h13.415v42.15h44.801V736.95z
		 M253.822,783.76h54.514v10.46h-56.045c-4.3,0-7.367-0.815-9.246-2.433c-1.761-1.605-2.639-4.231-2.639-7.834v-19.762h13.416
		V783.76z"/>
	<path fill="#FFFFFF" d="M367.542,714.276c4.094,7.821,6.16,17.777,6.16,29.842c0,12.793-2.066,23.203-6.16,31.198
		c-4.362,8.724-10.472,13.086-18.319,13.086c-7.933,0-14.1-4.362-18.512-13.086c-4.038-7.995-6.066-18.405-6.066-31.198
		c0-12.065,2.029-22.021,6.066-29.842c4.468-8.525,10.641-12.787,18.512-12.787C357.007,701.488,363.111,705.751,367.542,714.276
		 M340.786,721.244c-1.767,5.893-2.632,13.477-2.632,22.786c0,10.074,0.865,18.182,2.632,24.31c1.929,6.59,4.716,9.888,8.338,9.888
		c3.566,0,6.322-3.298,8.251-9.888c1.817-6.129,2.726-14.237,2.726-24.31c0-9.309-0.909-16.894-2.726-22.786
		c-2.003-6.384-4.748-9.576-8.251-9.576C345.552,711.668,342.777,714.861,340.786,721.244 M398.187,795.191h-13.416V701.98h13.416
		V795.191z"/>
	<path fill="#FFFFFF" d="M420.656,728.624c-1.743-2.458-2.62-5.078-2.62-7.846c0-5.37,2.9-9.85,8.705-13.472
		c6.409-3.877,15.195-5.818,26.383-5.818c11.131,0,19.93,1.941,26.395,5.818c5.862,3.622,8.786,8.102,8.786,13.472
		c0,2.768-0.902,5.389-2.712,7.846c-1.948,2.514-4.661,4.717-8.164,6.583v9.987h14.959v10.553h-78.526v-10.553h14.778v-9.987
		C425.129,733.341,422.472,731.138,420.656,728.624 M478.424,766.892c5.687,3.422,8.525,7.653,8.525,12.687
		c0,4.916-2.838,9.078-8.525,12.507c-6.285,3.808-14.747,5.712-25.387,5.712c-10.696,0-19.19-1.904-25.487-5.712
		c-5.606-3.429-8.432-7.591-8.432-12.507c0-5.034,2.825-9.265,8.432-12.687c6.297-3.815,14.791-5.719,25.487-5.719
		C463.677,761.173,472.139,763.077,478.424,766.892 M437.164,714.767c-3.498,1.556-5.246,3.547-5.246,6.011
		c0,2.37,1.748,4.349,5.246,5.905c3.814,1.693,9.072,2.52,15.779,2.52c6.714,0,12.009-0.827,15.874-2.52
		c3.497-1.555,5.257-3.534,5.257-5.905c0-2.464-1.76-4.455-5.257-6.011c-3.864-1.618-9.159-2.426-15.874-2.426
		C446.236,712.341,440.978,713.149,437.164,714.767 M437.624,774.259c-3.391,1.413-5.083,3.155-5.083,5.227
		c0,2.066,1.692,3.815,5.083,5.246c3.808,1.599,8.973,2.414,15.5,2.414c6.347,0,11.393-0.815,15.138-2.414
		c3.441-1.431,5.171-3.18,5.171-5.246c0-2.072-1.73-3.814-5.171-5.227c-3.746-1.549-8.792-2.327-15.138-2.327
		C446.596,771.932,441.432,772.71,437.624,774.259 M464,745.194v-6.005c-1.562,0.243-3.292,0.473-5.152,0.672
		c-1.705,0.131-3.609,0.193-5.724,0.193c-2.166,0-4.101-0.062-5.799-0.193c-1.929-0.199-3.683-0.43-5.264-0.672v6.005H464z"/>
	<path fill="#FFFFFF" d="M582.878,748.106h-32.475v6.59h28.032v24.69H522.21v4.268h56.941v10.566h-58.111
		c-4.001,0-7.05-0.933-9.172-2.818c-2.047-1.799-3.074-4.387-3.074-7.747V768.92h56.225v-3.764h-56.225v-10.46h28.199v-6.59h-32.649
		v-10.385h78.532V748.106z M522.21,702.752v4.467h42.81v-4.467h13.416v31.591h-57.395c-4.3,0-7.442-0.877-9.445-2.626
		c-1.867-1.736-2.8-4.424-2.8-8.033v-20.932H522.21z M522.21,723.877h42.816v-6.304H522.21V723.877z"/>
	<path fill="#FFFFFF" d="M638.282,703.922v28.871c0,13.814-3.391,25.419-10.167,34.783c-6.291,8.587-15.637,15.531-28.025,20.826
		l-5.332-7.94c9.066-4.144,16.103-9.402,21.125-15.799c6.042-7.685,9.066-16.956,9.066-27.802v-22.388h-28.032v-10.553H638.282z
		 M668.373,701.98v37.788h9.153v10.666h-9.153v44.757h-13.428V701.98H668.373z"/>
</g>
</svg>
