<?xml version="1.0" encoding="UTF-8" standalone="no"?>
<!-- Created with Inkscape (http://www.inkscape.org/) -->

<svg
   xmlns:svg="http://www.w3.org/2000/svg"
   xmlns="http://www.w3.org/2000/svg"
   version="1.1"
   width="400"
   height="400"
   id="svg3051">
  <defs
     id="defs3053" />
  <g
     transform="translate(0,-652.36218)"
     id="layer1">
    <g
       transform="matrix(0.2951006,0,0,0.2951006,-2641.3037,-2336.2691)"
       id="g3061"
       style="fill-rule:evenodd">
      <rect
         width="1355.47"
         height="1355.47"
         rx="116.97"
         ry="116.97"
         x="8950.5195"
         y="10127.5"
         id="rect56"
         style="fill:#ffcc00;fill-opacity:1" />
      <g
         id="text74"
         style="font-size:966.48999023px;font-weight:normal;fill:#ffffff;font-family:Zurich BdXCn BT">
        <path
           d="m 9402.1311,10473.972 114.2043,0 0,673.428 -130.2496,0 0,-500.706 c -11.3262,11.642 -23.5961,21.709 -36.8097,30.203 -13.2138,8.495 -27.686,15.574 -43.4165,21.237 l 0,-120.812 c 23.2812,-13.213 43.0231,-28.472 59.2258,-45.776 16.2024,-17.303 28.551,-36.494 37.0457,-57.574 z"
           id="path2886"
           style="font-size:966.48999023px;font-weight:normal;fill:#ffffff;font-family:Zurich BdXCn BT" />
      </g>
      <g
         id="text76"
         style="font-size:966.48999023px;font-weight:normal;fill:#ffffff;font-family:Zurich BdXCn BT">
        <path
           d="m 9961.739,10645.751 0,9.91 c -4e-4,31.147 -4.5623,60.17 -13.6857,87.069 -9.1241,26.9 -24.5401,55.765 -46.248,86.597 l -151.9579,215.667 223.2176,0 0,102.406 -361.018,0 0,-125.53 157.149,-229.353 c 18.2474,-26.112 32.169,-50.888 41.7649,-74.327 9.5954,-23.438 14.3933,-44.281 14.3935,-62.529 l 0,-27.371 c -2e-4,-33.663 -2.4385,-55.922 -7.3147,-66.777 -4.8768,-10.854 -13.7646,-16.281 -26.6635,-16.281 -11.9554,0 -20.3713,5.663 -25.2476,16.989 -4.8767,11.327 -7.3149,33.349 -7.3148,66.069 l 0,27.371 -136.3845,0 0,-9.91 c -10e-5,-68.9 12.4271,-116.564 37.2816,-142.992 24.8542,-26.427 69.2146,-39.64 133.0811,-39.641 63.5515,0 107.5972,13.057 132.1373,39.169 24.5394,26.114 36.8093,73.935 36.8097,143.464 z"
           id="path2883"
           style="font-size:966.48999023px;font-weight:normal;fill:#ffffff;font-family:Zurich BdXCn BT" />
      </g>
    </g>
  </g>
</svg>
