<?xml version="1.0" encoding="UTF-8" standalone="no"?>
<!-- Created with Inkscape (http://www.inkscape.org/) -->
<svg xmlns:svg="http://www.w3.org/2000/svg" xmlns="http://www.w3.org/2000/svg" width="200" height="200" id="svg2">
  <defs id="defs4"/>
  <g id="g2844">
    <path d="M 191.70229,175.91125 C 191.70229,184.38669 184.75199,190.93589 176.25715,190.93589 L 24.122622,190.93589 C 16.013906,190.93589 9.0636022,184.38669 9.0636022,175.91125 L 9.0636022,24.124059 C 9.0636022,16.033897 16.013906,9.0994615 24.122622,9.0994615 L 176.25715,9.0994615 C 184.75199,9.0994615 191.70229,16.033897 191.70229,24.124059 L 191.70229,175.91125 z " style="fill: none; stroke: rgb(255, 255, 255); stroke-width: 18.1273;" id="path3606"/>
    <path d="M 191.70225,176.10391 C 191.70225,184.19407 184.75194,191.12851 176.25715,191.12851 L 24.508746,191.12851 C 16.013906,191.12851 9.0636022,184.19407 9.0636022,176.10391 L 9.0636022,24.316722 C 9.0636022,15.841277 16.013906,8.9068406 24.508746,8.9068406 L 176.25715,8.9068406 C 184.75194,8.9068406 191.70225,15.841277 191.70225,24.316722 L 191.70225,176.10391 z " style="fill: rgb(255, 0, 0); fill-opacity: 1; stroke: none; stroke-width: 4.31371;" id="path3607"/>
    <path d="M 191.70225,176.10391 C 191.70225,184.19407 184.75194,191.12851 176.25715,191.12851 L 24.508746,191.12851 C 16.013906,191.12851 9.0636022,184.19407 9.0636022,176.10391 L 9.0636022,24.316722 C 9.0636022,15.841277 16.013906,8.9068406 24.508746,8.9068406 L 176.25715,8.9068406 C 184.75194,8.9068406 191.70225,15.841277 191.70225,24.316722 L 191.70225,176.10391 z " style="fill: none; stroke: rgb(0, 0, 0); stroke-width: 1.15706;" id="path3608"/>
    <path d="M 9.0636022,150.67762 L 9.0636022,176.10391 C 9.0636022,184.19407 16.013906,191.12851 24.122622,191.12851 L 176.25715,191.12851 C 184.75194,191.12851 191.31613,184.19407 191.31613,176.10391 L 191.31613,150.67762 L 9.0636022,150.67762 z " style="fill: rgb(0, 0, 0); stroke: rgb(0, 0, 0); stroke-width: 1.15706;" id="path3609"/>
    <path d="M 30.300638,161.46452 L 25.667116,161.46452 L 25.667116,168.01371 L 30.300638,168.01371 C 32.61742,168.01371 33.775789,166.85798 33.775789,164.93173 C 33.775789,162.62028 32.61742,161.46452 30.300638,161.46452 z M 34.161955,179.57113 L 29.528391,170.71044 L 25.667116,170.71044 L 25.667116,179.57113 L 22.578087,179.57113 L 22.578087,158.76778 L 30.686803,158.76778 C 34.548078,158.76778 37.250941,161.07927 37.250941,164.93173 C 37.250941,168.01371 35.320325,169.55472 33.003543,170.3252 L 37.637107,179.57113 L 34.161955,179.57113 z " style="fill: rgb(255, 255, 255);" id="path3621"/>
    <path d="M 41.112259,179.57113 L 41.112259,158.76778 L 54.626744,158.76778 L 54.626744,161.46452 L 44.201288,161.46452 L 44.201288,167.62847 L 53.082208,167.62847 L 53.082208,170.3252 L 44.201288,170.3252 L 44.201288,176.8744 L 54.626744,176.8744 L 54.626744,179.57113 L 41.112259,179.57113 z " style="fill: rgb(255, 255, 255);" id="path3610"/>
    <path d="M 63.507664,179.95637 C 60.418678,179.95637 58.101895,179.18589 56.171237,177.25964 L 58.488019,174.94815 C 60.032512,176.48915 61.577047,176.8744 63.893829,176.8744 C 66.596693,176.8744 68.141228,175.71867 68.141228,173.79242 C 68.141228,173.02194 67.755105,172.25145 67.368981,171.48093 C 66.596693,171.09569 66.210569,170.71044 65.052199,170.71044 L 62.349294,170.3252 C 60.804801,170.3252 59.260265,169.55472 58.488019,168.78423 C 57.329649,167.62847 56.943483,166.47274 56.943483,164.54649 C 56.943483,161.07927 59.646389,158.38254 63.893829,158.38254 C 66.596693,158.38254 68.527351,159.15306 70.45801,161.07927 L 68.527351,163.00552 C 66.982858,161.84976 65.824446,161.46452 63.893829,161.46452 C 61.577047,161.46452 60.032512,162.62028 60.032512,164.54649 C 60.032512,165.31698 60.418678,166.0875 60.804801,166.47274 C 61.190924,166.85798 62.349294,167.24323 63.121541,167.62847 L 65.438323,168.01371 C 67.368981,168.01371 68.527351,168.78423 69.685721,169.55472 C 70.45801,170.3252 71.230257,171.86617 71.230257,173.79242 C 71.230257,177.64488 68.141228,179.95637 63.507664,179.95637 z " style="fill: rgb(255, 255, 255);" id="path3611"/>
    <path d="M 82.041836,161.46452 L 82.041836,179.57113 L 78.566684,179.57113 L 78.566684,161.46452 L 72.77475,161.46452 L 72.77475,158.76778 L 87.447647,158.76778 L 87.447647,161.46452 L 82.041836,161.46452 z " style="fill: rgb(255, 255, 255);" id="path3612"/>
    <path d="M 98.259226,161.46452 L 93.625704,161.46452 L 93.625704,168.01371 L 98.259226,168.01371 C 100.57601,168.01371 102.1205,166.85798 102.1205,164.93173 C 102.1205,162.62028 100.57601,161.46452 98.259226,161.46452 z M 102.1205,179.57113 L 97.873103,170.71044 L 93.625704,170.71044 L 93.625704,179.57113 L 90.536675,179.57113 L 90.536675,158.76778 L 98.645349,158.76778 C 102.50662,158.76778 105.20953,161.07927 105.20953,164.93173 C 105.20953,168.01371 103.27887,169.55472 100.96213,170.3252 L 105.98178,179.57113 L 102.1205,179.57113 z " style="fill: rgb(255, 255, 255);" id="path3640"/>
    <path d="M 109.07081,179.57113 L 112.15983,179.57113 L 112.15983,158.76778 L 109.07081,158.76778 L 109.07081,179.57113 z " style="fill: rgb(255, 255, 255);" id="path3613"/>
    <path d="M 123.7437,179.95637 C 121.81304,179.95637 119.88243,179.18589 118.33789,177.64488 C 116.40723,175.71867 116.40723,173.40718 116.40723,169.16948 C 116.40723,165.31698 116.40723,163.00552 118.33789,160.69403 C 119.88243,159.15306 121.81304,158.38254 123.7437,158.38254 C 127.60498,158.38254 130.69401,160.69403 131.46625,164.93173 L 127.9911,164.93173 C 127.60498,163.00552 126.06044,161.46452 123.7437,161.46452 C 122.58529,161.46452 121.42692,161.84976 120.65467,162.62028 C 119.88243,163.77601 119.49626,164.93173 119.49626,169.16948 C 119.49626,173.40718 119.88243,174.5629 120.65467,175.71867 C 121.42692,176.48915 122.58529,176.8744 123.7437,176.8744 C 126.06044,176.8744 127.60498,175.33343 127.9911,173.40718 L 131.46625,173.40718 C 130.69401,177.64488 127.60498,179.95637 123.7437,179.95637 z " style="fill: rgb(255, 255, 255);" id="path3614"/>
    <path d="M 141.50559,161.46452 L 141.50559,179.57113 L 138.03043,179.57113 L 138.03043,161.46452 L 132.2385,161.46452 L 132.2385,158.76778 L 147.29752,158.76778 L 147.29752,161.46452 L 141.50559,161.46452 z " style="fill: rgb(255, 255, 255);" id="path3615"/>
    <path d="M 150.00042,179.57113 L 150.00042,158.76778 L 163.51491,158.76778 L 163.51491,161.46452 L 153.08945,161.46452 L 153.08945,167.62847 L 161.97037,167.62847 L 161.97037,170.3252 L 153.08945,170.3252 L 153.08945,176.8744 L 163.51491,176.8744 L 163.51491,179.57113 L 150.00042,179.57113 z " style="fill: rgb(255, 255, 255);" id="path3616"/>
    <path d="M 177.80164,163.00552 C 176.64327,161.84976 175.48486,161.46452 173.94037,161.46452 L 170.07909,161.46452 L 170.07909,176.8744 L 173.94037,176.8744 C 175.48486,176.8744 176.64327,176.48915 177.80164,175.33343 C 178.96001,174.17766 178.96001,171.86617 178.96001,169.16948 C 178.96001,166.0875 178.96001,164.16125 177.80164,163.00552 z M 179.7323,177.64488 C 178.57389,179.18589 176.64327,179.57113 174.32649,179.57113 L 166.99006,179.57113 L 166.99006,158.76778 L 174.32649,158.76778 C 176.64327,158.76778 178.57389,159.53831 179.7323,160.69403 C 182.04904,163.00552 182.04904,166.0875 182.04904,169.16948 C 182.04904,172.25145 182.04904,175.33343 179.7323,177.64488 z " style="fill: rgb(255, 255, 255);" id="path3617"/>
    <path d="M 136.87206,93.661123 L 136.87206,67.079105 L 131.08013,72.08729 L 131.08013,68.620072 L 136.87206,63.611887 L 139.96109,63.611887 L 139.96109,93.661123 L 136.87206,93.661123 z " style="fill: rgb(255, 255, 255);" id="path3618"/>
    <path d="M 159.26747,91.734872 C 157.72298,92.890597 155.79232,94.046365 153.08945,94.046365 C 150.38655,94.046365 148.45589,92.890597 146.9114,91.734872 C 145.75298,90.579147 144.98074,88.652896 144.98074,86.341403 L 148.06977,86.341403 C 148.45589,89.423379 150.00042,91.34963 153.08945,91.34963 C 154.63395,91.34963 155.79232,90.579147 156.95073,89.808663 C 158.49522,88.267654 158.49522,85.956161 158.49522,83.644711 C 158.49522,80.177493 157.72298,76.324991 153.47558,76.324991 C 150.77267,76.324991 148.84201,77.480758 148.45589,79.406967 L 145.75298,79.406967 L 145.75298,63.611887 L 160.812,63.611887 L 160.812,66.308579 L 148.45589,66.308579 L 148.45589,75.939749 C 149.6143,74.398782 151.54492,73.628299 153.8617,73.628299 C 156.17848,73.628299 157.72298,74.398782 158.88135,75.554508 C 161.19813,77.866 161.58425,80.947976 161.58425,83.644711 C 161.58425,86.726687 161.19813,89.423379 159.26747,91.734872 z " style="fill: rgb(255, 255, 255);" id="path3619"/>
    <path d="M 175.87098,83.644711 L 175.87098,91.34963 L 172.782,91.34963 L 172.782,83.644711 L 165.44553,83.644711 L 165.44553,80.947976 L 172.782,80.947976 L 172.782,73.628299 L 175.87098,73.628299 L 175.87098,80.947976 L 183.20745,80.947976 L 183.20745,83.644711 L 175.87098,83.644711 z " style="fill: rgb(255, 255, 255);" id="path3645"/>
    <path d="M 65.052199,99.825075 L 65.052199,76.710275 L 57.715772,91.734872 L 52.309961,91.734872 L 44.587411,76.710275 L 44.587411,99.825075 L 36.864818,99.825075 L 36.864818,60.52991 L 44.587411,60.52991 L 55.012867,81.71846 L 65.438323,60.52991 L 72.77475,60.52991 L 72.77475,99.825075 L 65.052199,99.825075 z " style="fill: rgb(255, 255, 255);" id="path3620"/>
    <path d="M 92.853415,72.08729 L 87.83377,86.341403 L 97.873103,86.341403 L 92.853415,72.08729 z M 102.1205,99.825075 L 99.803719,92.890597 L 85.903111,92.890597 L 83.200206,99.825075 L 75.091532,99.825075 L 89.764387,60.52991 L 95.942444,60.52991 L 110.22922,99.825075 L 102.1205,99.825075 z " style="fill: rgb(255, 255, 255);" id="path3671"/>
    <path d="M 100.18988,41.26757 C 100.96213,42.423295 123.35758,78.636484 124.12983,79.792251 C 123.35758,80.947976 100.96213,117.16117 100.18988,118.31689 C 99.031473,118.31689 46.518027,118.31689 44.973534,118.31689 C 44.587411,117.16117 22.191964,80.947976 21.033594,79.792251 C 22.191964,78.636484 44.587411,42.423295 44.973534,41.26757 C 46.518027,41.26757 99.031473,41.26757 100.18988,41.26757 z M 100.96213,38.956077 L 43.815122,38.956077 L 18.330688,79.792251 L 43.815122,120.62838 L 101.73438,120.62838 L 127.21885,79.792251 L 101.73438,38.956077 L 100.96213,38.956077 z " style="fill: rgb(255, 255, 255);" id="path3622"/>
  </g>
</svg>