<?xml version="1.0" encoding="UTF-8" standalone="no"?>
<svg xmlns="http://www.w3.org/2000/svg" viewBox="0 0 200 200">
  <path d="M 191.70234,175.91171 C 191.70234,184.38715 184.75204,190.93635 176.2572,190.93635 L 24.122669,190.93635 C 16.013959,190.93635 9.0636492,184.38715 9.0636492,175.91171 L 9.0636492,24.124519 C 9.0636492,16.034357 16.013959,9.0999218 24.122669,9.0999218 L 176.2572,9.0999218 C 184.75204,9.0999218 191.70234,16.034357 191.70234,24.124519 L 191.70234,175.91171 z" fill="none" stroke="#fff" stroke-width="18.1273"/>
  <path d="M 190.98805,175.92545 C 190.98805,184.40244 184.0643,190.95282 175.60192,190.95282 L 24.048621,190.95282 C 15.970885,190.95282 9.0471341,184.40244 9.0471341,175.92545 L 9.0471341,24.110631 C 9.0471341,16.018998 15.970885,9.0832994 24.048621,9.0832994 L 175.60192,9.0832994 C 184.0643,9.0832994 190.98805,16.018998 190.98805,24.110631 L 190.98805,175.92545 z" fill="#33a02c" stroke-width="18.0943"/>
  <path d="M 115.9807,132.38466 C 111.36484,137.3938 105.97972,138.93505 99.82527,138.93505 C 93.286167,138.93505 88.285658,137.00844 84.054486,132.76997 C 78.28468,126.99021 78.28468,119.6692 78.28468,109.65096 C 78.28468,99.632729 78.28468,92.311719 84.054486,86.531956 C 88.285658,82.293484 93.286167,79.98157 99.82527,79.98157 C 113.28812,79.98157 119.82722,88.84387 121.36586,98.862105 L 110.2109,98.862105 C 108.6723,93.082343 105.59508,90.385117 99.82527,90.385117 C 96.748043,90.385117 94.055464,91.541095 92.516871,93.467654 C 90.20894,95.779568 89.824292,98.476793 89.824292,109.65096 C 89.824292,120.82514 90.20894,123.52236 92.516871,125.83427 C 94.055464,127.76088 96.748043,128.91681 99.82527,128.91681 C 102.9025,128.91681 105.97972,127.76088 107.90296,125.83427 C 109.4416,123.52236 110.2109,121.21049 110.2109,118.12795 L 110.2109,115.81604 L 99.82527,115.81604 L 99.82527,106.56843 L 121.36586,106.56843 L 121.36586,115.04541 C 121.36586,123.13705 120.21187,128.14619 115.9807,132.38466 z" fill="#fff"/>
  <path d="M 99.82527,48.770929 C 102.9025,53.780025 153.29203,138.93505 156.36926,144.3295 C 150.21481,144.3295 49.820382,144.3295 43.665928,144.3295 C 46.743155,138.93505 97.132691,53.780025 99.82527,48.770929 z M 98.286677,44.147102 L 37.126826,148.18266 L 162.90836,148.18266 L 99.82527,41.449877 L 98.286677,44.147102 z" fill="#fff"/>
</svg>
