<?xml version="1.0" encoding="UTF-8" standalone="no"?>
<svg
   xmlns:dc="http://purl.org/dc/elements/1.1/"
   xmlns:cc="http://creativecommons.org/ns#"
   xmlns:rdf="http://www.w3.org/1999/02/22-rdf-syntax-ns#"
   xmlns:svg="http://www.w3.org/2000/svg"
   xmlns="http://www.w3.org/2000/svg"
   xmlns:sodipodi="http://sodipodi.sourceforge.net/DTD/sodipodi-0.dtd"
   xmlns:inkscape="http://www.inkscape.org/namespaces/inkscape"
   version="1.0"
   width="1875"
   height="1875"
   id="svg2">
  <defs
     id="defs4" />
  <g
     transform="matrix(15.293834,0,0,15.293834,18363.696,2924.4945)"
     id="layer1">
    <g
       transform="translate(-18.316043,-6.6362678)"
       id="g4302">
      <rect
         width="120.41093"
         height="120.41093"
         rx="10.629922"
         ry="10.629921"
         x="-1181.3157"
         y="-183.49048"
         id="rect3267"
         style="fill:#13a538;fill-opacity:0.701961;stroke:#13a538;stroke-width:2.1875;stroke-linecap:butt;stroke-linejoin:miter;stroke-miterlimit:4;stroke-dasharray:none;stroke-opacity:1" />
      <rect
         width="77.257874"
         height="77.257874"
         rx="6.8203545"
         ry="6.820354"
         x="-918.54913"
         y="666.94006"
         transform="rotate(45)"
         id="rect3269"
         style="fill:#13a538;fill-opacity:1;stroke:#000000;stroke-width:1.25;stroke-linecap:butt;stroke-linejoin:miter;stroke-miterlimit:4;stroke-dasharray:none;stroke-opacity:1" />
      <path
         d="m -1135.0036,-161.08127 h 1.9696 v 5.28322 c 0,0.8384 0.024,1.38181 0.073,1.63022 0.084,0.39924 0.285,0.71973 0.6022,0.96149 0.3171,0.24176 0.7507,0.36264 1.3008,0.36264 0.5589,0 0.9803,-0.11422 1.2643,-0.34268 0.2838,-0.22845 0.4546,-0.50902 0.5123,-0.84172 0.058,-0.33269 0.086,-0.88497 0.086,-1.65683 v -5.39634 h 1.9696 v 5.12353 c 0,1.1711 -0.053,1.9984 -0.1597,2.48192 -0.1065,0.48352 -0.3028,0.89163 -0.5889,1.22432 -0.2861,0.3327 -0.6687,0.59775 -1.1478,0.79515 -0.4791,0.1974 -1.1046,0.2961 -1.8764,0.2961 -0.9316,0 -1.638,-0.10758 -2.1193,-0.32272 -0.4813,-0.21514 -0.8617,-0.49461 -1.1411,-0.8384 -0.2795,-0.34378 -0.4636,-0.7042 -0.5523,-1.08126 -0.1287,-0.55893 -0.193,-1.38401 -0.193,-2.47526 z m 9.3621,6.58074 1.9163,-0.18631 c 0.1154,0.64322 0.3494,1.11565 0.702,1.41729 0.3527,0.30165 0.8284,0.45247 1.4273,0.45247 0.6343,0 1.1123,-0.13419 1.4339,-0.40257 0.3216,-0.26837 0.4824,-0.58221 0.4824,-0.94153 0,-0.23066 -0.068,-0.42696 -0.2029,-0.58887 -0.1353,-0.16191 -0.3715,-0.30275 -0.7087,-0.42253 -0.2306,-0.0798 -0.7563,-0.22179 -1.5769,-0.42585 -1.0558,-0.26171 -1.7966,-0.58332 -2.2225,-0.96482 -0.5988,-0.53674 -0.8982,-1.19105 -0.8982,-1.96291 0,-0.49682 0.1408,-0.96148 0.4225,-1.394 0.2817,-0.43249 0.6876,-0.76186 1.2177,-0.98811 0.5301,-0.22622 1.1699,-0.33934 1.9196,-0.33935 1.2243,1e-5 2.1459,0.26839 2.7647,0.80513 0.6188,0.53676 0.9438,1.25316 0.9748,2.14922 l -1.9695,0.0865 c -0.084,-0.50126 -0.2651,-0.86168 -0.5423,-1.08126 -0.2773,-0.21958 -0.6932,-0.32937 -1.2476,-0.32937 -0.5723,0 -1.0203,0.11756 -1.3441,0.35265 -0.2085,0.15083 -0.3128,0.35267 -0.3128,0.60551 0,0.23068 0.098,0.42808 0.2928,0.5922 0.2484,0.2085 0.8517,0.42586 1.8099,0.65209 0.9581,0.22624 1.6668,0.46023 2.1259,0.70199 0.4591,0.24176 0.8184,0.57224 1.0779,0.99143 0.2595,0.41921 0.3893,0.9371 0.3893,1.5537 0,0.55893 -0.1553,1.08237 -0.4658,1.57033 -0.3105,0.48795 -0.7497,0.85059 -1.3175,1.08791 -0.5678,0.23733 -1.2753,0.35599 -2.1226,0.35599 -1.2332,0 -2.1802,-0.28501 -2.8412,-0.85503 -0.661,-0.57002 -1.0558,-1.40065 -1.1844,-2.4919 z m 9.6282,3.17393 v -9.75467 h 1.9696 v 4.33171 l 3.9791,-4.33171 h 2.6482 l -3.6729,3.7994 3.8725,5.95527 h -2.5484 l -2.6815,-4.57791 -1.597,1.63022 v 2.94769 z"
         id="text3273"
         style="font-style:normal;font-weight:normal;font-size:14.8661px;font-family:'Bitstream Vera Sans';fill:#000000;fill-opacity:1;stroke:none;stroke-width:1px;stroke-linecap:butt;stroke-linejoin:miter;stroke-opacity:1" />
      <path
         d="m -1124.1441,-146.34891 -0.926,-0.16704 c 0.1041,-0.37281 0.2833,-0.64879 0.5374,-0.82793 0.2542,-0.17914 0.6319,-0.26872 1.133,-0.26872 0.4551,0 0.7941,0.0539 1.0168,0.16159 0.2227,0.10774 0.3794,0.24451 0.4702,0.41034 0.091,0.16583 0.1362,0.47026 0.1362,0.91327 l -0.011,1.19107 c 0,0.33892 0.016,0.58887 0.049,0.74986 0.033,0.16099 0.094,0.33348 0.1834,0.51746 h -1.0095 c -0.027,-0.0678 -0.059,-0.16825 -0.098,-0.3014 -0.017,-0.0605 -0.029,-0.10046 -0.036,-0.11983 -0.1744,0.16946 -0.3608,0.29656 -0.5593,0.38129 -0.1985,0.0847 -0.4103,0.12709 -0.6354,0.12709 -0.3971,0 -0.71,-0.10773 -0.9387,-0.32318 -0.2288,-0.21546 -0.3432,-0.48781 -0.3432,-0.81705 0,-0.21787 0.052,-0.41215 0.1562,-0.58282 0.104,-0.17067 0.2499,-0.3014 0.4375,-0.39218 0.1876,-0.0908 0.4582,-0.17006 0.8116,-0.23785 0.4769,-0.0896 0.8074,-0.17309 0.9914,-0.25056 v -0.10168 c 0,-0.19608 -0.048,-0.33589 -0.1453,-0.41941 -0.097,-0.0835 -0.2796,-0.12528 -0.5483,-0.12528 -0.1816,0 -0.3232,0.0357 -0.4249,0.10712 -0.1017,0.0714 -0.184,0.1967 -0.2469,0.37584 z m 1.3654,0.82794 c -0.1308,0.0436 -0.3378,0.0956 -0.621,0.15614 -0.2832,0.0605 -0.4684,0.11984 -0.5556,0.17794 -0.1331,0.0944 -0.1997,0.21425 -0.1997,0.3595 0,0.14283 0.053,0.26629 0.1598,0.37039 0.1065,0.1041 0.2421,0.15615 0.4067,0.15614 0.184,1e-5 0.3595,-0.0605 0.5265,-0.18156 0.1235,-0.092 0.2046,-0.20456 0.2433,-0.33771 0.027,-0.0871 0.04,-0.25298 0.04,-0.49749 z m 1.9681,1.85196 v -5.32348 h 1.0204 v 1.91732 c 0.3147,-0.35828 0.6875,-0.53743 1.1185,-0.53743 0.4696,0 0.8582,0.17007 1.1656,0.5102 0.3075,0.34013 0.4612,0.82854 0.4612,1.46523 0,0.65847 -0.1568,1.16564 -0.4703,1.52151 -0.3135,0.35587 -0.6942,0.5338 -1.142,0.5338 -0.2203,0 -0.4376,-0.0551 -0.6518,-0.16522 -0.2143,-0.11015 -0.3989,-0.27295 -0.5538,-0.48841 v 0.56648 z m 1.0132,-2.01174 c 0,0.39945 0.063,0.69479 0.1888,0.88604 0.1767,0.27114 0.4115,0.4067 0.7045,0.4067 0.2251,0 0.4169,-0.0962 0.5755,-0.28868 0.1586,-0.19246 0.2379,-0.49568 0.2379,-0.90965 0,-0.44059 -0.08,-0.75833 -0.2397,-0.95321 -0.1598,-0.19488 -0.3643,-0.29232 -0.6137,-0.29232 -0.2445,0 -0.4478,0.095 -0.61,0.28506 -0.1622,0.19004 -0.2433,0.47873 -0.2433,0.86606 z"
         id="text3277"
         style="font-style:normal;font-weight:normal;font-size:12px;font-family:'Bitstream Vera Sans';fill:#000000;fill-opacity:1;stroke:none;stroke-width:1px;stroke-linecap:butt;stroke-linejoin:miter;stroke-opacity:1" />
      <path
         d="m -1129.8455,-104.25269 h -6.762 v -25.48391 c -2.4706,2.31018 -5.3823,4.01873 -8.7353,5.12566 v -6.13635 c 1.7647,-0.57751 3.6819,-1.67243 5.7514,-3.28475 2.0695,-1.61227 3.4893,-3.49328 4.2593,-5.64304 h 5.4866 z m 32.9679,-6.28074 v 6.28074 h -23.7032 c 0.2567,-2.37432 1.0268,-4.62432 2.3102,-6.74999 1.2834,-2.12565 3.8182,-4.94516 7.6043,-8.45854 3.0481,-2.83954 4.917,-4.76467 5.6069,-5.77539 0.9305,-1.39569 1.3957,-2.77537 1.3957,-4.13903 0,-1.50799 -0.4051,-2.66707 -1.2152,-3.47726 -0.8102,-0.81013 -1.9292,-1.21521 -3.357,-1.21524 -1.4117,3e-5 -2.5347,0.42516 -3.3689,1.2754 -0.8343,0.85029 -1.3156,2.26205 -1.4439,4.23528 l -6.7379,-0.67379 c 0.401,-3.72189 1.6604,-6.39301 3.778,-8.01335 2.1177,-1.62029 4.7647,-2.43045 7.9412,-2.43048 3.4812,3e-5 6.2165,0.93853 8.2058,2.8155 1.9893,1.87703 2.984,4.21125 2.984,7.00266 0,1.58826 -0.2848,3.10029 -0.8543,4.53609 -0.5695,1.43585 -1.4719,2.93985 -2.7072,4.51202 -0.8182,1.0428 -2.2941,2.54279 -4.4278,4.49999 -2.1337,1.95723 -3.4853,3.25669 -4.0548,3.89839 -0.5695,0.64172 -1.0308,1.26739 -1.3837,1.877 z"
         id="text3281"
         style="font-style:normal;font-weight:normal;font-size:14.785px;font-family:'Bitstream Vera Sans';fill:#000000;fill-opacity:1;stroke:none;stroke-width:1px;stroke-linecap:butt;stroke-linejoin:miter;stroke-opacity:1" />
      <path
         d="m -1141.9048,-96.165364 h 0.5664 v -0.2905 c 0,-0.32439 0.034,-0.56648 0.1035,-0.72626 0.069,-0.15978 0.1961,-0.2899 0.3813,-0.39037 0.1852,-0.10046 0.4194,-0.15069 0.7027,-0.1507 0.2905,1e-5 0.5749,0.04358 0.8533,0.13073 l -0.1379,0.71174 c -0.1622,-0.03873 -0.3184,-0.0581 -0.4685,-0.05811 -0.1477,1e-5 -0.2536,0.03451 -0.3177,0.1035 -0.064,0.069 -0.096,0.20154 -0.096,0.39763 v 0.27234 h 0.7626 v 0.80252 h -0.7626 v 3.05394 h -1.0204 v -3.05394 h -0.5664 z m 3.9073,3.85646 h -1.0204 v -3.85646 h 0.9477 v 0.54833 c 0.1622,-0.25903 0.3081,-0.4297 0.4376,-0.51201 0.1295,-0.08231 0.2766,-0.12346 0.4412,-0.12347 0.2324,1e-5 0.4563,0.06416 0.6718,0.19246 l -0.3159,0.88967 c -0.1719,-0.11135 -0.3317,-0.16703 -0.4794,-0.16704 -0.1428,1e-5 -0.2638,0.03935 -0.3631,0.11802 -0.099,0.07868 -0.1773,0.22091 -0.2342,0.42668 -0.057,0.20578 -0.085,0.63669 -0.085,1.29275 z m 4.1469,-1.22738 1.0168,0.17067 c -0.1308,0.37281 -0.3371,0.65666 -0.6192,0.85154 -0.282,0.19488 -0.6348,0.29232 -1.0585,0.29232 -0.6706,0 -1.1669,-0.21909 -1.4888,-0.65727 -0.2542,-0.35102 -0.3813,-0.79404 -0.3813,-1.32905 0,-0.63911 0.167,-1.13962 0.5011,-1.50154 0.3341,-0.36192 0.7565,-0.54288 1.2673,-0.54288 0.5738,0 1.0265,0.18943 1.3581,0.5683 0.3317,0.37886 0.4903,0.95927 0.4757,1.7412 h -2.5564 c 0.01,0.30261 0.09,0.53804 0.2469,0.70629 0.1574,0.16825 0.3535,0.25238 0.5883,0.25238 0.1598,0 0.2941,-0.04358 0.4031,-0.13073 0.1089,-0.08715 0.1912,-0.22756 0.2469,-0.42123 z m 0.058,-1.03129 c -0.01,-0.29534 -0.083,-0.51988 -0.2288,-0.67361 -0.1452,-0.15372 -0.3219,-0.23058 -0.5301,-0.23058 -0.2228,0 -0.4067,0.0811 -0.552,0.24329 -0.1453,0.1622 -0.2167,0.3825 -0.2142,0.6609 z m 1.8483,-2.12068 v -0.94414 h 1.0204 v 0.94414 z m 0,4.37935 v -3.85644 h 1.0204 v 3.85644 z m 1.9682,0.25419 1.1656,0.14162 c 0.019,0.13557 0.064,0.22877 0.1344,0.27961 0.097,0.07262 0.2493,0.10894 0.4575,0.10894 0.2663,0 0.4661,-0.03995 0.5992,-0.11983 0.09,-0.05326 0.1574,-0.1392 0.2034,-0.25783 0.031,-0.08473 0.047,-0.24087 0.047,-0.46843 v -0.56286 c -0.3051,0.41639 -0.69,0.62459 -1.1548,0.62459 -0.5181,0 -0.9284,-0.21909 -1.231,-0.65727 -0.2372,-0.34618 -0.3559,-0.77709 -0.3559,-1.29274 0,-0.64637 0.1556,-1.14022 0.4667,-1.48157 0.311,-0.34134 0.6978,-0.51201 1.1602,-0.51201 0.4769,0 0.8703,0.20941 1.1801,0.62821 v -0.54106 h 0.9551 v 3.46063 c 0,0.45512 -0.038,0.79525 -0.1126,1.02039 -0.075,0.22514 -0.1804,0.40186 -0.3159,0.53017 -0.1356,0.12831 -0.3166,0.22877 -0.5429,0.3014 -0.2264,0.07262 -0.5126,0.10894 -0.8588,0.10894 -0.6536,0 -1.1172,-0.11197 -1.3908,-0.3359 -0.2736,-0.22393 -0.4103,-0.50777 -0.4103,-0.85154 0,-0.03389 0,-0.07504 0,-0.12346 z m 0.9115,-2.2623 c 0,0.40913 0.079,0.70871 0.2378,0.89875 0.1586,0.19004 0.3541,0.28505 0.5865,0.28505 0.2493,0 0.4599,-0.09744 0.6318,-0.29232 0.1719,-0.19487 0.2578,-0.48356 0.2578,-0.86606 0,-0.39944 -0.082,-0.696 -0.2469,-0.88967 -0.1646,-0.19367 -0.3728,-0.2905 -0.6246,-0.2905 -0.2445,0 -0.446,0.09502 -0.6046,0.28505 -0.1586,0.19004 -0.2378,0.47994 -0.2378,0.8697 z m 5.9625,0.78073 1.0168,0.17067 c -0.1307,0.37281 -0.3371,0.65666 -0.6191,0.85154 -0.2821,0.19488 -0.6349,0.29232 -1.0586,0.29232 -0.6705,0 -1.1668,-0.21909 -1.4888,-0.65727 -0.2542,-0.35102 -0.3813,-0.79404 -0.3813,-1.32905 0,-0.63911 0.1671,-1.13962 0.5011,-1.50154 0.3341,-0.36192 0.7566,-0.54288 1.2674,-0.54288 0.5737,0 1.0264,0.18943 1.3581,0.5683 0.3316,0.37886 0.4902,0.95927 0.4757,1.7412 h -2.5565 c 0.01,0.30261 0.09,0.53804 0.247,0.70629 0.1573,0.16825 0.3534,0.25238 0.5882,0.25238 0.1598,0 0.2942,-0.04358 0.4031,-0.13073 0.109,-0.08715 0.1913,-0.22756 0.2469,-0.42123 z m 0.058,-1.03129 c -0.01,-0.29534 -0.084,-0.51988 -0.2287,-0.67361 -0.1453,-0.15372 -0.322,-0.23058 -0.5302,-0.23058 -0.2227,0 -0.4067,0.0811 -0.552,0.24329 -0.1452,0.1622 -0.2166,0.3825 -0.2142,0.6609 z m 1.754,2.51286 1.1656,0.14162 c 0.019,0.13557 0.064,0.22877 0.1344,0.27961 0.097,0.07262 0.2493,0.10894 0.4575,0.10894 0.2663,0 0.466,-0.03995 0.5992,-0.11983 0.09,-0.05326 0.1573,-0.1392 0.2033,-0.25783 0.032,-0.08473 0.047,-0.24087 0.047,-0.46843 v -0.56286 c -0.305,0.41639 -0.6899,0.62459 -1.1547,0.62459 -0.5181,0 -0.9284,-0.21909 -1.231,-0.65727 -0.2373,-0.34618 -0.3559,-0.77709 -0.3559,-1.29274 0,-0.64637 0.1555,-1.14022 0.4666,-1.48157 0.3111,-0.34134 0.6978,-0.51201 1.1602,-0.51201 0.4769,0 0.8703,0.20941 1.1802,0.62821 v -0.54106 h 0.955 v 3.46063 c 0,0.45512 -0.038,0.79525 -0.1125,1.02039 -0.075,0.22514 -0.1804,0.40186 -0.316,0.53017 -0.1355,0.12831 -0.3165,0.22877 -0.5428,0.3014 -0.2264,0.07262 -0.5127,0.10894 -0.8588,0.10894 -0.6537,0 -1.1173,-0.11197 -1.3908,-0.3359 -0.2736,-0.22393 -0.4104,-0.50777 -0.4104,-0.85154 0,-0.03389 0,-0.07504 0,-0.12346 z m 0.9114,-2.2623 c 0,0.40913 0.079,0.70871 0.2379,0.89875 0.1585,0.19004 0.354,0.28505 0.5864,0.28505 0.2494,0 0.46,-0.09744 0.6319,-0.29232 0.1718,-0.19487 0.2578,-0.48356 0.2578,-0.86606 0,-0.39944 -0.082,-0.696 -0.2469,-0.88967 -0.1647,-0.19367 -0.3729,-0.2905 -0.6246,-0.2905 -0.2445,0 -0.4461,0.09502 -0.6046,0.28505 -0.1586,0.19004 -0.2379,0.47994 -0.2379,0.8697 z m 5.9626,0.78073 1.0168,0.17067 c -0.1308,0.37281 -0.3371,0.65666 -0.6192,0.85154 -0.282,0.19488 -0.6348,0.29232 -1.0585,0.29232 -0.6706,0 -1.1668,-0.21909 -1.4888,-0.65727 -0.2542,-0.35102 -0.3813,-0.79404 -0.3813,-1.32905 0,-0.63911 0.167,-1.13962 0.5011,-1.50154 0.3341,-0.36192 0.7565,-0.54288 1.2673,-0.54288 0.5738,0 1.0265,0.18943 1.3581,0.5683 0.3317,0.37886 0.4903,0.95927 0.4757,1.7412 h -2.5564 c 0.01,0.30261 0.09,0.53804 0.2469,0.70629 0.1574,0.16825 0.3535,0.25238 0.5883,0.25238 0.1598,0 0.2941,-0.04358 0.4031,-0.13073 0.1089,-0.08715 0.1912,-0.22756 0.2469,-0.42123 z m 0.058,-1.03129 c -0.01,-0.29534 -0.083,-0.51988 -0.2288,-0.67361 -0.1452,-0.15372 -0.3219,-0.23058 -0.5301,-0.23058 -0.2228,0 -0.4067,0.0811 -0.552,0.24329 -0.1452,0.1622 -0.2167,0.3825 -0.2142,0.6609 z m 1.8048,2.25867 v -5.32349 h 1.0204 v 1.91733 c 0.3147,-0.35828 0.6875,-0.53743 1.1184,-0.53743 0.4696,0 0.8582,0.17007 1.1657,0.5102 0.3074,0.34013 0.4611,0.82854 0.4611,1.46522 0,0.65848 -0.1567,1.16565 -0.4702,1.52152 -0.3135,0.35587 -0.6942,0.5338 -1.1421,0.5338 -0.2203,0 -0.4375,-0.05508 -0.6518,-0.16522 -0.2142,-0.11015 -0.3988,-0.27296 -0.5538,-0.48841 v 0.56648 z m 1.0131,-2.01174 c 0,0.39944 0.063,0.69479 0.1888,0.88604 0.1767,0.27113 0.4116,0.4067 0.7045,0.4067 0.2251,0 0.417,-0.09623 0.5756,-0.28869 0.1585,-0.19245 0.2378,-0.49567 0.2378,-0.90964 0,-0.44059 -0.08,-0.75833 -0.2397,-0.95321 -0.1597,-0.19488 -0.3643,-0.29232 -0.6136,-0.29232 -0.2446,0 -0.4479,0.09502 -0.6101,0.28505 -0.1622,0.19004 -0.2433,0.47873 -0.2433,0.86607 z m 5.8101,0.78435 1.0168,0.17068 c -0.1308,0.37281 -0.3372,0.65666 -0.6192,0.85154 -0.282,0.19488 -0.6349,0.29232 -1.0585,0.29232 -0.6706,0 -1.1669,-0.21909 -1.4888,-0.65727 -0.2542,-0.35102 -0.3813,-0.79404 -0.3813,-1.32906 0,-0.63911 0.167,-1.13962 0.5011,-1.50155 0.3341,-0.36191 0.7565,-0.54287 1.2673,-0.54288 0.5738,1e-5 1.0265,0.18944 1.3581,0.5683 0.3317,0.37887 0.4902,0.95928 0.4757,1.74122 h -2.5564 c 0.01,0.30261 0.09,0.53804 0.2469,0.70629 0.1574,0.16825 0.3535,0.25237 0.5883,0.25237 0.1598,0 0.2941,-0.04357 0.4031,-0.13072 0.1089,-0.08715 0.1912,-0.22756 0.2469,-0.42124 z m 0.058,-1.03129 c -0.01,-0.29534 -0.083,-0.51988 -0.2288,-0.67361 -0.1452,-0.15372 -0.322,-0.23058 -0.5302,-0.23059 -0.2227,1e-5 -0.4067,0.08111 -0.5519,0.2433 -0.1453,0.1622 -0.2167,0.3825 -0.2143,0.6609 z m 5.3562,2.25868 h -1.0204 v -1.96817 c 0,-0.41639 -0.022,-0.68571 -0.065,-0.80797 -0.044,-0.12225 -0.1144,-0.21727 -0.2124,-0.28506 -0.098,-0.06778 -0.2161,-0.10167 -0.3541,-0.10168 -0.1767,1e-5 -0.3353,0.04843 -0.4757,0.14526 -0.1404,0.09684 -0.2366,0.22514 -0.2887,0.38492 -0.052,0.15978 -0.078,0.45512 -0.078,0.88604 v 1.74666 h -1.0204 v -3.85646 h 0.9477 v 0.56649 c 0.3365,-0.43576 0.7602,-0.65363 1.271,-0.65364 0.2251,1e-5 0.4309,0.04056 0.6173,0.12165 0.1864,0.0811 0.3274,0.1846 0.4231,0.31048 0.096,0.12589 0.1622,0.26872 0.1997,0.42849 0.037,0.15978 0.056,0.38856 0.056,0.68632 z"
         id="text3285"
         style="font-style:normal;font-weight:normal;font-size:14.8739px;font-family:'Bitstream Vera Sans';fill:#000000;fill-opacity:1;stroke:none;stroke-width:1px;stroke-linecap:butt;stroke-linejoin:miter;stroke-opacity:1" />
    </g>
  </g>
</svg>