<?xml version="1.0" encoding="UTF-8" standalone="no"?>
<svg
   xmlns:dc="http://purl.org/dc/elements/1.1/"
   xmlns:cc="http://creativecommons.org/ns#"
   xmlns:rdf="http://www.w3.org/1999/02/22-rdf-syntax-ns#"
   xmlns:svg="http://www.w3.org/2000/svg"
   xmlns="http://www.w3.org/2000/svg"
   xmlns:sodipodi="http://sodipodi.sourceforge.net/DTD/sodipodi-0.dtd"
   xmlns:inkscape="http://www.inkscape.org/namespaces/inkscape"
   version="1.0"
   width="1875"
   height="1875"
   id="svg2">
  <defs
     id="defs4" />
  <g
     transform="matrix(15.293834,0,0,15.293834,18363.696,2924.4945)"
     id="layer1">
    <g
       transform="translate(-27.695315,1.6811913)"
       id="g4398">
      <rect
         width="120.41093"
         height="120.41093"
         rx="10.629922"
         ry="10.629921"
         x="-1171.9364"
         y="-191.80794"
         id="rect3315"
         style="fill:#e30613;fill-opacity:0.701961;stroke:#e30613;stroke-width:2.1875;stroke-linecap:butt;stroke-linejoin:miter;stroke-miterlimit:4;stroke-dasharray:none;stroke-opacity:1" />
      <rect
         width="77.257874"
         height="77.257874"
         rx="6.8203545"
         ry="6.820354"
         x="-917.79828"
         y="654.4267"
         transform="rotate(45)"
         id="rect3317"
         style="fill:#e30613;fill-opacity:1;stroke:#000000;stroke-width:1.25;stroke-linecap:butt;stroke-linejoin:miter;stroke-miterlimit:4;stroke-dasharray:none;stroke-opacity:1" />
      <path
         d="m -1125.6244,-168.82932 h 1.9696 v 5.28322 c 0,0.8384 0.024,1.38181 0.073,1.63022 0.084,0.39924 0.285,0.71973 0.6022,0.96149 0.3171,0.24176 0.7508,0.36264 1.3008,0.36264 0.5589,0 0.9804,-0.11422 1.2643,-0.34268 0.2839,-0.22845 0.4546,-0.50902 0.5123,-0.84172 0.058,-0.33269 0.087,-0.88497 0.087,-1.65683 v -5.39634 h 1.9696 v 5.12353 c 0,1.17109 -0.053,1.9984 -0.1597,2.48192 -0.1065,0.48352 -0.3028,0.89162 -0.5889,1.22432 -0.2861,0.3327 -0.6687,0.59775 -1.1478,0.79514 -0.4791,0.1974 -1.1045,0.2961 -1.8764,0.2961 -0.9316,0 -1.638,-0.10757 -2.1193,-0.32271 -0.4813,-0.21514 -0.8617,-0.49461 -1.1411,-0.8384 -0.2795,-0.34378 -0.4636,-0.7042 -0.5523,-1.08126 -0.1286,-0.55893 -0.193,-1.38402 -0.193,-2.47526 z m 9.3621,6.58074 1.9164,-0.18631 c 0.1153,0.64322 0.3493,1.11565 0.7019,1.41729 0.3527,0.30164 0.8285,0.45247 1.4273,0.45247 0.6343,0 1.1123,-0.13419 1.4339,-0.40257 0.3216,-0.26837 0.4824,-0.58221 0.4824,-0.94153 0,-0.23067 -0.068,-0.42696 -0.2029,-0.58887 -0.1353,-0.16191 -0.3715,-0.30275 -0.7086,-0.42253 -0.2307,-0.0798 -0.7564,-0.22179 -1.577,-0.42585 -1.0558,-0.26172 -1.7966,-0.58332 -2.2224,-0.96482 -0.5989,-0.53674 -0.8983,-1.19105 -0.8983,-1.96291 0,-0.49682 0.1408,-0.96149 0.4225,-1.394 0.2817,-0.4325 0.6876,-0.76187 1.2177,-0.98811 0.5301,-0.22622 1.17,-0.33934 1.9196,-0.33935 1.2244,1e-5 2.1459,0.26839 2.7647,0.80513 0.6189,0.53676 0.9438,1.25316 0.9748,2.14922 l -1.9695,0.0865 c -0.084,-0.50126 -0.2651,-0.86168 -0.5423,-1.08127 -0.2773,-0.21957 -0.6931,-0.32936 -1.2476,-0.32937 -0.5723,1e-5 -1.0203,0.11757 -1.3441,0.35266 -0.2085,0.15083 -0.3128,0.35267 -0.3128,0.60551 0,0.23068 0.098,0.42808 0.2928,0.5922 0.2484,0.2085 0.8517,0.42586 1.8099,0.65209 0.9581,0.22624 1.6668,0.46023 2.1259,0.70199 0.4591,0.24176 0.8184,0.57224 1.078,0.99143 0.2594,0.4192 0.3892,0.9371 0.3892,1.5537 0,0.55893 -0.1553,1.08237 -0.4658,1.57033 -0.3105,0.48795 -0.7497,0.85059 -1.3174,1.08791 -0.5679,0.23733 -1.2754,0.35599 -2.1227,0.35599 -1.2331,0 -2.1802,-0.28501 -2.8412,-0.85503 -0.6609,-0.57002 -1.0557,-1.40065 -1.1844,-2.4919 z m 9.6283,3.17393 v -9.75467 h 1.9695 v 4.33171 l 3.9791,-4.33171 h 2.6482 l -3.6729,3.7994 3.8726,5.95527 h -2.5485 l -2.6815,-4.57791 -1.597,1.63021 v 2.9477 z"
         id="text3321"
         style="font-style:normal;font-weight:normal;font-size:14.8661px;font-family:'Bitstream Vera Sans';fill:#000000;fill-opacity:1;stroke:none;stroke-width:1px;stroke-linecap:butt;stroke-linejoin:miter;stroke-opacity:1" />
      <path
         d="m -1115.5632,-153.11667 -1.1696,-0.21099 c 0.1315,-0.47091 0.3578,-0.8195 0.6789,-1.04579 0.321,-0.22627 0.798,-0.33941 1.431,-0.33942 0.5749,1e-5 1.003,0.068 1.2843,0.20411 0.2813,0.13608 0.4793,0.30885 0.594,0.51831 0.1147,0.20947 0.172,0.59399 0.172,1.15357 l -0.014,1.50446 c 0,0.4281 0.021,0.74382 0.062,0.94717 0.041,0.20335 0.1185,0.42122 0.2316,0.65361 h -1.2751 c -0.034,-0.0856 -0.075,-0.21252 -0.1239,-0.3807 -0.021,-0.0764 -0.037,-0.1269 -0.046,-0.15136 -0.2202,0.21405 -0.4557,0.37459 -0.7064,0.48161 -0.2507,0.10702 -0.5183,0.16054 -0.8027,0.16054 -0.5015,0 -0.8967,-0.13608 -1.1857,-0.40823 -0.2889,-0.27214 -0.4334,-0.61615 -0.4334,-1.03202 0,-0.2752 0.066,-0.5206 0.1972,-0.73618 0.1315,-0.21557 0.3157,-0.38069 0.5527,-0.49537 0.237,-0.11466 0.5787,-0.21481 1.0252,-0.30043 0.6024,-0.11314 1.0198,-0.21863 1.2522,-0.31649 v -0.12843 c 0,-0.24768 -0.061,-0.42427 -0.1835,-0.52977 -0.1223,-0.10549 -0.3532,-0.15824 -0.6926,-0.15824 -0.2294,0 -0.4082,0.0451 -0.5367,0.13531 -0.1284,0.0902 -0.2324,0.24845 -0.3119,0.47473 z m 1.7247,1.04578 c -0.1652,0.055 -0.4266,0.12079 -0.7844,0.19723 -0.3577,0.0764 -0.5917,0.15137 -0.7018,0.22475 -0.1681,0.11926 -0.2522,0.27063 -0.2522,0.45409 0,0.18042 0.067,0.33637 0.2018,0.46786 0.1345,0.13148 0.3058,0.19723 0.5137,0.19723 0.2324,0 0.4541,-0.0764 0.6651,-0.22934 0.1559,-0.1162 0.2584,-0.25839 0.3073,-0.42657 0.034,-0.11008 0.05,-0.31954 0.05,-0.62839 z m 2.486,2.33925 v -6.7242 h 1.2889 v 2.42182 c 0.3975,-0.45256 0.8684,-0.67884 1.4127,-0.67885 0.5932,1e-5 1.084,0.21482 1.4724,0.64444 0.3883,0.42964 0.5825,1.04656 0.5825,1.85077 0,0.83173 -0.198,1.47235 -0.594,1.92185 -0.396,0.44951 -0.8769,0.67426 -1.4426,0.67426 -0.2782,0 -0.5527,-0.0696 -0.8233,-0.2087 -0.2706,-0.13913 -0.5038,-0.34477 -0.6995,-0.61692 v 0.71553 z m 1.2797,-2.54107 c 0,0.50455 0.079,0.87761 0.2385,1.11918 0.2232,0.34248 0.5198,0.51371 0.8898,0.51371 0.2844,0 0.5268,-0.12154 0.727,-0.36464 0.2003,-0.2431 0.3005,-0.6261 0.3005,-1.14899 0,-0.55652 -0.1009,-0.95787 -0.3027,-1.20403 -0.2019,-0.24615 -0.4603,-0.36923 -0.7752,-0.36923 -0.3089,0 -0.5657,0.12002 -0.7706,0.36006 -0.2049,0.24004 -0.3073,0.60469 -0.3073,1.09394 z"
         id="text3325"
         style="font-style:normal;font-weight:normal;font-size:15.1574px;font-family:'Bitstream Vera Sans';fill:#000000;fill-opacity:1;stroke:none;stroke-width:1px;stroke-linecap:butt;stroke-linejoin:miter;stroke-opacity:1" />
      <path
         d="m -1120.5986,-107.43128 h -6.762 v -25.48391 c -2.4706,2.31018 -5.3823,4.01873 -8.7353,5.12566 v -6.13635 c 1.7647,-0.57752 3.6818,-1.67243 5.7514,-3.28476 2.0695,-1.61226 3.4892,-3.49327 4.2593,-5.64303 h 5.4866 z m 15.9305,-19.03473 c -1.7487,-0.73794 -3.0201,-1.75264 -3.8142,-3.04411 -0.7941,-1.29141 -1.1912,-2.70719 -1.1912,-4.24732 0,-2.63098 0.9185,-4.80477 2.7554,-6.52137 1.8369,-1.71654 4.4478,-2.57483 7.8329,-2.57486 3.3529,3e-5 5.9558,0.85832 7.8088,2.57486 1.8529,1.7166 2.7794,3.89039 2.7794,6.52137 0,1.63639 -0.4252,3.09227 -1.2754,4.36764 -0.8503,1.27542 -2.0455,2.25002 -3.5856,2.92379 1.9572,0.78612 3.4452,1.93317 4.4639,3.44117 1.0187,1.50804 1.5281,3.24867 1.5281,5.22192 0,3.25669 -1.0388,5.90374 -3.1163,7.94116 -2.0776,2.03743 -4.8409,3.05614 -8.2901,3.05615 -3.2086,-1e-5 -5.8797,-0.84225 -8.0134,-2.52674 -2.5187,-1.98929 -3.778,-4.71656 -3.778,-8.1818 0,-1.90908 0.4732,-3.66174 1.4198,-5.25801 0.9465,-1.59624 2.4385,-2.82752 4.4759,-3.69385 z m 1.3957,-6.81014 c 0,1.34761 0.381,2.39841 1.1431,3.1524 0.762,0.75403 1.7767,1.13103 3.0441,1.13101 1.2834,2e-5 2.3101,-0.38099 3.0802,-1.14304 0.77,-0.76201 1.155,-1.81682 1.1551,-3.16444 -10e-5,-1.26735 -0.3811,-2.28205 -1.1431,-3.04411 -0.762,-0.762 -1.7687,-1.14301 -3.02,-1.14304 -1.2995,3e-5 -2.3343,0.38505 -3.1043,1.15507 -0.7701,0.77008 -1.1551,1.7888 -1.1551,3.05615 z m -0.6257,15.11227 c 0,1.86097 0.4773,3.31283 1.4319,4.3556 0.9545,1.04279 2.1457,1.56418 3.5735,1.56417 1.3957,1e-5 2.5508,-0.50133 3.4652,-1.504 0.9144,-1.00267 1.3716,-2.45053 1.3717,-4.34358 -10e-5,-1.65239 -0.4653,-2.97993 -1.3958,-3.98261 -0.9304,-1.00266 -2.1096,-1.50399 -3.5374,-1.50401 -1.6524,2e-5 -2.8837,0.56953 -3.6938,1.70855 -0.8102,1.13905 -1.2153,2.37434 -1.2153,3.70588 z"
         id="text3329"
         style="font-style:normal;font-weight:normal;font-size:14.785px;font-family:'Bitstream Vera Sans';fill:#000000;fill-opacity:1;stroke:none;stroke-width:1px;stroke-linecap:butt;stroke-linejoin:miter;stroke-opacity:1" />
    </g>
  </g>
</svg>