<?xml version="1.0" encoding="UTF-8" standalone="no"?>
<svg
   xmlns:dc="http://purl.org/dc/elements/1.1/"
   xmlns:cc="http://creativecommons.org/ns#"
   xmlns:rdf="http://www.w3.org/1999/02/22-rdf-syntax-ns#"
   xmlns:svg="http://www.w3.org/2000/svg"
   xmlns="http://www.w3.org/2000/svg"
   xmlns:sodipodi="http://sodipodi.sourceforge.net/DTD/sodipodi-0.dtd"
   xmlns:inkscape="http://www.inkscape.org/namespaces/inkscape"
   version="1.0"
   width="1875"
   height="1875"
   id="svg2">
  <defs
     id="defs4" />
  <g
     transform="matrix(15.293834,0,0,15.293834,18363.696,2924.4946)"
     id="layer1">
    <g
       transform="translate(-42.914431,-16.546409)"
       id="g4350">
      <rect
         width="120.41093"
         height="120.41093"
         rx="10.629922"
         ry="10.629921"
         x="-1156.7173"
         y="-173.58034"
         id="rect3291"
         style="fill:#00a0de;fill-opacity:0.701961;stroke:#00a0de;stroke-width:2.1875;stroke-linecap:butt;stroke-linejoin:miter;stroke-miterlimit:4;stroke-dasharray:none;stroke-opacity:1" />
      <rect
         width="77.257874"
         height="77.257874"
         rx="6.8203545"
         ry="6.820354"
         x="-894.14783"
         y="656.55389"
         transform="rotate(45)"
         id="rect3293"
         style="fill:#00a0de;fill-opacity:1;stroke:#000000;stroke-width:1.25;stroke-linecap:butt;stroke-linejoin:miter;stroke-miterlimit:4;stroke-dasharray:none;stroke-opacity:1" />
      <path
         d="m -1110.4052,-151.17112 h 1.9696 v 5.28322 c 0,0.8384 0.024,1.3818 0.073,1.63022 0.084,0.39923 0.285,0.71973 0.6022,0.96149 0.3171,0.24176 0.7507,0.36264 1.3008,0.36264 0.5589,0 0.9803,-0.11423 1.2642,-0.34268 0.2839,-0.22845 0.4547,-0.50902 0.5124,-0.84172 0.058,-0.3327 0.087,-0.88497 0.087,-1.65683 v -5.39634 h 1.9696 v 5.12353 c 0,1.17109 -0.053,1.9984 -0.1597,2.48191 -0.1065,0.48353 -0.3028,0.89163 -0.5889,1.22433 -0.2861,0.3327 -0.6687,0.59774 -1.1478,0.79514 -0.4791,0.1974 -1.1046,0.2961 -1.8764,0.2961 -0.9316,0 -1.638,-0.10757 -2.1193,-0.32271 -0.4813,-0.21515 -0.8617,-0.49461 -1.1411,-0.8384 -0.2795,-0.34378 -0.4636,-0.7042 -0.5523,-1.08126 -0.1287,-0.55893 -0.193,-1.38402 -0.193,-2.47527 z m 9.3621,6.58074 1.9163,-0.18631 c 0.1154,0.64321 0.3494,1.11564 0.702,1.41729 0.3527,0.30164 0.8284,0.45247 1.4273,0.45246 0.6343,1e-5 1.1123,-0.13418 1.4339,-0.40256 0.3216,-0.26837 0.4824,-0.58222 0.4824,-0.94153 0,-0.23067 -0.068,-0.42696 -0.2029,-0.58887 -0.1353,-0.16191 -0.3715,-0.30275 -0.7087,-0.42253 -0.2306,-0.0798 -0.7563,-0.22179 -1.5769,-0.42585 -1.0558,-0.26172 -1.7966,-0.58332 -2.2225,-0.96482 -0.5988,-0.53675 -0.8982,-1.19105 -0.8982,-1.96291 0,-0.49682 0.1408,-0.96149 0.4225,-1.394 0.2817,-0.4325 0.6876,-0.76187 1.2177,-0.98811 0.5301,-0.22622 1.1699,-0.33934 1.9196,-0.33935 1.2243,1e-5 2.1459,0.26838 2.7647,0.80513 0.6188,0.53675 0.9438,1.25316 0.9748,2.14922 l -1.9695,0.0865 c -0.084,-0.50126 -0.2651,-0.86168 -0.5423,-1.08127 -0.2773,-0.21957 -0.6932,-0.32936 -1.2476,-0.32937 -0.5723,1e-5 -1.0203,0.11756 -1.3441,0.35266 -0.2085,0.15083 -0.3128,0.35267 -0.3128,0.60551 0,0.23068 0.098,0.42808 0.2928,0.5922 0.2484,0.2085 0.8517,0.42586 1.8099,0.65209 0.9581,0.22623 1.6668,0.46023 2.1259,0.70199 0.4591,0.24176 0.8184,0.57224 1.0779,0.99143 0.2595,0.4192 0.3893,0.9371 0.3893,1.5537 0,0.55893 -0.1553,1.08237 -0.4658,1.57032 -0.3105,0.48796 -0.7497,0.8506 -1.3175,1.08792 -0.5678,0.23733 -1.2753,0.35599 -2.1226,0.35599 -1.2332,0 -2.1802,-0.28501 -2.8412,-0.85503 -0.661,-0.57002 -1.0558,-1.40065 -1.1844,-2.4919 z m 9.6282,3.17393 v -9.75467 h 1.9696 v 4.33171 l 3.9791,-4.33171 h 2.6482 l -3.6729,3.79939 3.8725,5.95528 h -2.5484 l -2.6815,-4.57791 -1.597,1.63021 v 2.9477 z"
         id="text3297"
         style="font-style:normal;font-weight:normal;font-size:14.8661px;font-family:'Bitstream Vera Sans';fill:#000000;fill-opacity:1;stroke:none;stroke-width:1px;stroke-linecap:butt;stroke-linejoin:miter;stroke-opacity:1" />
      <path
         d="m -1099.5457,-136.43876 -0.926,-0.16704 c 0.1041,-0.37281 0.2833,-0.64879 0.5374,-0.82794 0.2542,-0.17914 0.6319,-0.26871 1.133,-0.26871 0.4551,0 0.7941,0.0539 1.0168,0.16159 0.2227,0.10773 0.3794,0.24451 0.4702,0.41034 0.091,0.16583 0.1362,0.47025 0.1362,0.91327 l -0.011,1.19106 c 0,0.33893 0.016,0.58888 0.049,0.74987 0.033,0.16099 0.094,0.33347 0.1834,0.51746 h -1.0095 c -0.027,-0.0678 -0.059,-0.16825 -0.098,-0.3014 -0.017,-0.0605 -0.029,-0.10047 -0.036,-0.11983 -0.1744,0.16946 -0.3608,0.29655 -0.5593,0.38128 -0.1985,0.0847 -0.4103,0.1271 -0.6354,0.1271 -0.3971,0 -0.71,-0.10773 -0.9387,-0.32319 -0.2288,-0.21545 -0.3432,-0.4878 -0.3432,-0.81704 0,-0.21788 0.052,-0.41215 0.1562,-0.58282 0.104,-0.17067 0.2499,-0.3014 0.4375,-0.39218 0.1876,-0.0908 0.4582,-0.17007 0.8116,-0.23785 0.4769,-0.0896 0.8074,-0.17309 0.9914,-0.25056 v -0.10168 c 0,-0.19609 -0.049,-0.33589 -0.1453,-0.41941 -0.097,-0.0835 -0.2796,-0.12528 -0.5483,-0.12528 -0.1816,0 -0.3232,0.0357 -0.4249,0.10712 -0.1017,0.0714 -0.184,0.1967 -0.2469,0.37584 z m 1.3654,0.82794 c -0.1308,0.0436 -0.3378,0.0956 -0.621,0.15614 -0.2832,0.0605 -0.4684,0.11984 -0.5556,0.17794 -0.1331,0.0944 -0.1997,0.21424 -0.1997,0.35949 0,0.14284 0.053,0.2663 0.1598,0.3704 0.1065,0.10409 0.2421,0.15614 0.4067,0.15614 0.184,0 0.3595,-0.0605 0.5265,-0.18156 0.1235,-0.092 0.2046,-0.20457 0.2433,-0.33771 0.027,-0.0872 0.04,-0.25298 0.04,-0.49749 z m 1.9681,1.85196 v -5.32349 h 1.0204 v 1.91733 c 0.3147,-0.35828 0.6875,-0.53743 1.1185,-0.53743 0.4696,0 0.8582,0.17007 1.1656,0.51019 0.3075,0.34014 0.4612,0.82855 0.4612,1.46523 0,0.65848 -0.1568,1.16565 -0.4703,1.52152 -0.3135,0.35587 -0.6942,0.5338 -1.142,0.5338 -0.2203,0 -0.4376,-0.0551 -0.6518,-0.16522 -0.2143,-0.11015 -0.3989,-0.27296 -0.5538,-0.48841 v 0.56648 z m 1.0132,-2.01174 c 0,0.39944 0.063,0.69479 0.1888,0.88604 0.1767,0.27113 0.4115,0.4067 0.7045,0.4067 0.2251,0 0.4169,-0.0962 0.5755,-0.28869 0.1586,-0.19246 0.2379,-0.49567 0.2379,-0.90964 0,-0.44059 -0.08,-0.75833 -0.2397,-0.95321 -0.1598,-0.19488 -0.3643,-0.29232 -0.6137,-0.29232 -0.2445,0 -0.4478,0.095 -0.61,0.28505 -0.1622,0.19004 -0.2433,0.47873 -0.2433,0.86607 z"
         id="text3301"
         style="font-style:normal;font-weight:normal;font-size:12px;font-family:'Bitstream Vera Sans';fill:#000000;fill-opacity:1;stroke:none;stroke-width:1px;stroke-linecap:butt;stroke-linejoin:miter;stroke-opacity:1" />
      <path
         d="m -1105.608,-94.342541 h -6.762 v -25.483909 c -2.4706,2.31018 -5.3824,4.01873 -8.7353,5.12566 v -6.13635 c 1.7647,-0.57752 3.6818,-1.67243 5.7513,-3.28476 2.0695,-1.61226 3.4893,-3.49327 4.2594,-5.64303 h 5.4866 z m 33.04,-26.638989 -6.5454,0.72193 c -0.1605,-1.34757 -0.5776,-2.34222 -1.2513,-2.98396 -0.6739,-0.64168 -1.5482,-0.96253 -2.623,-0.96256 -1.4279,3e-5 -2.6351,0.64174 -3.6217,1.92513 -0.9866,1.28345 -1.6083,3.95456 -1.865,8.01335 1.6845,-1.98928 3.7781,-2.98393 6.2808,-2.98395 2.8235,2e-5 5.2419,1.07489 7.2553,3.22459 2.0134,2.14975 3.02,4.92514 3.0201,8.32619 -10e-5,3.60963 -1.0589,6.505339 -3.1765,8.687149 -2.1177,2.18182 -4.8369,3.27272 -8.1577,3.27272 -3.5615,0 -6.4893,-1.38368 -8.7834,-4.15106 -2.2942,-2.767369 -3.4412,-7.303449 -3.4412,-13.608259 0,-6.46521 1.1952,-11.12562 3.5855,-13.98126 2.3904,-2.85558 5.4947,-4.28338 9.3129,-4.28341 2.6791,3e-5 4.897,0.75003 6.6537,2.24999 1.7566,1.50003 2.8756,3.67783 3.3569,6.53341 z m -15.3288,14.75131 c 0,2.19787 0.5053,3.89439 1.516,5.08956 1.0107,1.195189 2.1658,1.792789 3.4653,1.792779 1.2513,1e-5 2.2941,-0.4893 3.1283,-1.467909 0.8342,-0.9786 1.2513,-2.58287 1.2513,-4.81283 0,-2.2941 -0.4492,-3.97457 -1.3476,-5.04143 -0.8984,-1.06683 -2.0214,-1.60025 -3.3689,-1.60026 -1.2995,10e-6 -2.3984,0.50937 -3.2968,1.52807 -0.8984,1.01873 -1.3476,2.52273 -1.3476,4.51202 z"
         id="text3305"
         style="font-style:normal;font-weight:normal;font-size:14.785px;font-family:'Bitstream Vera Sans';fill:#000000;fill-opacity:1;stroke:none;stroke-width:1px;stroke-linecap:butt;stroke-linejoin:miter;stroke-opacity:1" />
      <path
         d="m -1117.3064,-86.255211 h 0.5664 v -0.2905 c 0,-0.3244 0.034,-0.56648 0.1035,-0.72627 0.069,-0.15977 0.1961,-0.28989 0.3813,-0.39036 0.1852,-0.10046 0.4194,-0.1507 0.7027,-0.1507 0.2905,0 0.5749,0.04358 0.8533,0.13073 l -0.138,0.71173 c -0.1622,-0.03873 -0.3183,-0.05809 -0.4684,-0.0581 -0.1477,1e-5 -0.2536,0.0345 -0.3177,0.10349 -0.064,0.069 -0.096,0.20155 -0.096,0.39763 v 0.27235 h 0.7626 v 0.80252 h -0.7626 v 3.05394 h -1.0204 v -3.05394 h -0.5664 z m 3.9072,3.85646 h -1.0203 v -3.85646 h 0.9477 v 0.54833 c 0.1622,-0.25903 0.3081,-0.4297 0.4376,-0.51202 0.1295,-0.0823 0.2766,-0.12346 0.4412,-0.12346 0.2324,0 0.4563,0.06416 0.6718,0.19246 l -0.3159,0.88967 c -0.1719,-0.11136 -0.3317,-0.16704 -0.4794,-0.16704 -0.1428,0 -0.2638,0.03934 -0.3631,0.11802 -0.099,0.07868 -0.1773,0.22091 -0.2342,0.42668 -0.057,0.20577 -0.085,0.63669 -0.085,1.29274 z m 4.147,-1.22738 1.0168,0.17067 c -0.1308,0.37281 -0.3371,0.65666 -0.6192,0.85154 -0.282,0.19488 -0.6348,0.29232 -1.0585,0.29232 -0.6706,0 -1.1669,-0.21909 -1.4888,-0.65727 -0.2542,-0.35102 -0.3813,-0.79404 -0.3813,-1.32905 0,-0.63911 0.167,-1.13962 0.5011,-1.50155 0.3341,-0.36191 0.7565,-0.54287 1.2673,-0.54288 0.5738,10e-6 1.0265,0.18944 1.3581,0.5683 0.3317,0.37887 0.4903,0.95927 0.4757,1.74121 h -2.5564 c 0.01,0.30261 0.09,0.53804 0.2469,0.70629 0.1574,0.16825 0.3535,0.25237 0.5883,0.25237 0.1598,0 0.2941,-0.04357 0.4031,-0.13072 0.1089,-0.08715 0.1912,-0.22756 0.2469,-0.42123 z m 0.058,-1.03129 c -0.01,-0.29535 -0.083,-0.51988 -0.2288,-0.67361 -0.1452,-0.15372 -0.322,-0.23058 -0.5301,-0.23059 -0.2228,1e-5 -0.4067,0.08111 -0.552,0.2433 -0.1453,0.1622 -0.2167,0.3825 -0.2142,0.6609 z m 1.8483,-2.12068 v -0.94414 h 1.0204 v 0.94414 z m 0,4.37935 v -3.85644 h 1.0204 v 3.85644 z m 1.9682,0.25419 1.1656,0.14162 c 0.019,0.13556 0.064,0.22877 0.1344,0.27961 0.097,0.07262 0.2493,0.10894 0.4575,0.10894 0.2663,0 0.4661,-0.03995 0.5992,-0.11984 0.09,-0.05326 0.1574,-0.1392 0.2034,-0.25782 0.031,-0.08473 0.047,-0.24088 0.047,-0.46844 v -0.56285 c -0.3051,0.41639 -0.69,0.62459 -1.1548,0.62459 -0.5181,0 -0.9284,-0.21909 -1.231,-0.65727 -0.2372,-0.34618 -0.3559,-0.7771 -0.3559,-1.29274 0,-0.64637 0.1556,-1.14023 0.4667,-1.48157 0.311,-0.34134 0.6978,-0.51201 1.1602,-0.51202 0.4769,10e-6 0.8703,0.20941 1.1801,0.62822 v -0.54106 h 0.9551 v 3.46062 c 0,0.45513 -0.038,0.79526 -0.1126,1.0204 -0.075,0.22514 -0.1804,0.40186 -0.3159,0.53017 -0.1356,0.1283 -0.3166,0.22877 -0.5429,0.3014 -0.2264,0.07262 -0.5126,0.10893 -0.8588,0.10894 -0.6536,-10e-6 -1.1172,-0.11197 -1.3908,-0.3359 -0.2736,-0.22393 -0.4103,-0.50778 -0.4103,-0.85154 0,-0.03389 0,-0.07505 0,-0.12346 z m 0.9115,-2.2623 c -10e-5,0.40913 0.079,0.70871 0.2378,0.89874 0.1586,0.19004 0.3541,0.28506 0.5865,0.28506 0.2493,0 0.4599,-0.09744 0.6318,-0.29232 0.1719,-0.19488 0.2578,-0.48357 0.2578,-0.86606 0,-0.39944 -0.082,-0.696 -0.2469,-0.88967 -0.1646,-0.19367 -0.3728,-0.2905 -0.6246,-0.29051 -0.2445,1e-5 -0.446,0.09503 -0.6046,0.28506 -0.1586,0.19004 -0.2379,0.47994 -0.2378,0.8697 z m 5.9625,0.78073 1.0168,0.17067 c -0.1307,0.37281 -0.3371,0.65666 -0.6191,0.85154 -0.2821,0.19488 -0.6349,0.29232 -1.0586,0.29232 -0.6705,0 -1.1668,-0.21909 -1.4888,-0.65727 -0.2542,-0.35102 -0.3813,-0.79404 -0.3813,-1.32905 0,-0.63911 0.1671,-1.13962 0.5011,-1.50155 0.3341,-0.36191 0.7566,-0.54287 1.2674,-0.54288 0.5737,10e-6 1.0264,0.18944 1.3581,0.5683 0.3316,0.37887 0.4902,0.95927 0.4757,1.74121 h -2.5565 c 0.01,0.30261 0.09,0.53804 0.247,0.70629 0.1573,0.16825 0.3534,0.25237 0.5882,0.25237 0.1598,0 0.2942,-0.04357 0.4031,-0.13072 0.109,-0.08715 0.1913,-0.22756 0.2469,-0.42123 z m 0.058,-1.03129 c -0.01,-0.29535 -0.083,-0.51988 -0.2287,-0.67361 -0.1453,-0.15372 -0.322,-0.23058 -0.5302,-0.23059 -0.2227,1e-5 -0.4067,0.08111 -0.552,0.2433 -0.1452,0.1622 -0.2166,0.3825 -0.2142,0.6609 z m 1.754,2.51286 1.1656,0.14162 c 0.019,0.13556 0.064,0.22877 0.1344,0.27961 0.097,0.07262 0.2493,0.10894 0.4575,0.10894 0.2663,0 0.466,-0.03995 0.5992,-0.11984 0.09,-0.05326 0.1573,-0.1392 0.2033,-0.25782 0.032,-0.08473 0.047,-0.24088 0.047,-0.46844 v -0.56285 c -0.305,0.41639 -0.6899,0.62459 -1.1547,0.62459 -0.5181,0 -0.9284,-0.21909 -1.231,-0.65727 -0.2373,-0.34618 -0.3559,-0.7771 -0.3559,-1.29274 0,-0.64637 0.1555,-1.14023 0.4666,-1.48157 0.3111,-0.34134 0.6978,-0.51201 1.1602,-0.51202 0.4769,10e-6 0.8703,0.20941 1.1802,0.62822 v -0.54106 h 0.955 v 3.46062 c 0,0.45513 -0.037,0.79526 -0.1125,1.0204 -0.075,0.22514 -0.1804,0.40186 -0.316,0.53017 -0.1355,0.1283 -0.3165,0.22877 -0.5428,0.3014 -0.2264,0.07262 -0.5127,0.10893 -0.8588,0.10894 -0.6537,-10e-6 -1.1173,-0.11197 -1.3908,-0.3359 -0.2736,-0.22393 -0.4104,-0.50778 -0.4104,-0.85154 0,-0.03389 0,-0.07505 0,-0.12346 z m 0.9114,-2.2623 c 0,0.40913 0.079,0.70871 0.2379,0.89874 0.1585,0.19004 0.354,0.28506 0.5864,0.28506 0.2494,0 0.46,-0.09744 0.6319,-0.29232 0.1718,-0.19488 0.2578,-0.48357 0.2578,-0.86606 0,-0.39944 -0.082,-0.696 -0.2469,-0.88967 -0.1647,-0.19367 -0.3729,-0.2905 -0.6246,-0.29051 -0.2445,1e-5 -0.4461,0.09503 -0.6046,0.28506 -0.1586,0.19004 -0.2379,0.47994 -0.2379,0.8697 z m 5.9626,0.78073 1.0168,0.17067 c -0.1308,0.37281 -0.3371,0.65666 -0.6192,0.85154 -0.282,0.19488 -0.6348,0.29232 -1.0585,0.29232 -0.6706,0 -1.1668,-0.21909 -1.4888,-0.65727 -0.2542,-0.35102 -0.3813,-0.79404 -0.3813,-1.32905 0,-0.63911 0.167,-1.13962 0.5011,-1.50155 0.3341,-0.36191 0.7565,-0.54287 1.2673,-0.54288 0.5738,10e-6 1.0265,0.18944 1.3581,0.5683 0.3317,0.37887 0.4903,0.95927 0.4757,1.74121 h -2.5564 c 0.01,0.30261 0.09,0.53804 0.2469,0.70629 0.1574,0.16825 0.3535,0.25237 0.5883,0.25237 0.1598,0 0.2941,-0.04357 0.4031,-0.13072 0.1089,-0.08715 0.1912,-0.22756 0.2469,-0.42123 z m 0.058,-1.03129 c -0.01,-0.29535 -0.084,-0.51988 -0.2288,-0.67361 -0.1452,-0.15372 -0.3219,-0.23058 -0.5301,-0.23059 -0.2228,1e-5 -0.4067,0.08111 -0.552,0.2433 -0.1452,0.1622 -0.2167,0.3825 -0.2142,0.6609 z m 1.8048,2.25867 v -5.32349 h 1.0204 v 1.91733 c 0.3147,-0.35829 0.6875,-0.53743 1.1184,-0.53744 0.4696,10e-6 0.8582,0.17007 1.1656,0.5102 0.3075,0.34014 0.4612,0.82855 0.4612,1.46523 0,0.65848 -0.1567,1.16565 -0.4702,1.52152 -0.3135,0.35586 -0.6942,0.5338 -1.1421,0.5338 -0.2203,0 -0.4375,-0.05508 -0.6518,-0.16523 -0.2142,-0.11015 -0.3988,-0.27295 -0.5538,-0.48841 v 0.56649 z m 1.0131,-2.01174 c 0,0.39944 0.063,0.69479 0.1888,0.88603 0.1767,0.27114 0.4116,0.40671 0.7045,0.40671 0.2251,0 0.417,-0.09623 0.5756,-0.28869 0.1585,-0.19246 0.2378,-0.49567 0.2378,-0.90964 0,-0.4406 -0.08,-0.75833 -0.2397,-0.95322 -0.1597,-0.19487 -0.3643,-0.29231 -0.6136,-0.29232 -0.2446,1e-5 -0.4479,0.09503 -0.6101,0.28506 -0.1622,0.19004 -0.2433,0.47873 -0.2433,0.86607 z m 5.8101,0.78435 1.0168,0.17067 c -0.1308,0.37282 -0.3372,0.65667 -0.6192,0.85155 -0.282,0.19488 -0.6349,0.29232 -1.0585,0.29232 -0.6706,0 -1.1669,-0.21909 -1.4889,-0.65727 -0.2541,-0.35103 -0.3812,-0.79405 -0.3812,-1.32906 0,-0.63911 0.167,-1.13963 0.5011,-1.50155 0.3341,-0.36192 0.7565,-0.54288 1.2673,-0.54288 0.5738,0 1.0265,0.18944 1.3581,0.5683 0.3317,0.37887 0.4902,0.95927 0.4757,1.74121 h -2.5564 c 0.01,0.30262 0.09,0.53805 0.2469,0.70629 0.1574,0.16826 0.3535,0.25238 0.5883,0.25238 0.1598,0 0.2941,-0.04357 0.4031,-0.13073 0.1089,-0.08715 0.1912,-0.22756 0.2469,-0.42123 z m 0.058,-1.03129 c -0.01,-0.29535 -0.083,-0.51988 -0.2288,-0.67361 -0.1452,-0.15372 -0.322,-0.23058 -0.5302,-0.23059 -0.2227,1e-5 -0.4067,0.0811 -0.5519,0.2433 -0.1453,0.1622 -0.2167,0.3825 -0.2143,0.6609 z m 5.3562,2.25868 h -1.0204 v -1.96818 c 0,-0.41638 -0.022,-0.68571 -0.065,-0.80796 -0.044,-0.12225 -0.1144,-0.21727 -0.2124,-0.28506 -0.098,-0.06778 -0.2161,-0.10167 -0.3541,-0.10168 -0.1767,1e-5 -0.3353,0.04842 -0.4757,0.14525 -0.1404,0.09684 -0.2366,0.22515 -0.2887,0.38492 -0.052,0.15978 -0.078,0.45513 -0.078,0.88604 v 1.74667 h -1.0204 v -3.85646 h 0.9477 v 0.56649 c 0.3365,-0.43576 0.7602,-0.65364 1.271,-0.65364 0.2251,0 0.4309,0.04055 0.6173,0.12165 0.1864,0.0811 0.3274,0.18459 0.4231,0.31048 0.096,0.12588 0.1622,0.26872 0.1997,0.42849 0.038,0.15978 0.056,0.38855 0.056,0.68632 z"
         id="text3309"
         style="font-style:normal;font-weight:normal;font-size:14.8739px;font-family:'Bitstream Vera Sans';fill:#000000;fill-opacity:1;stroke:none;stroke-width:1px;stroke-linecap:butt;stroke-linejoin:miter;stroke-opacity:1" />
    </g>
  </g>
</svg>