<?xml version="1.0" encoding="utf-8"?>
<!-- Uploaded to: SVG Repo, www.svgrepo.com, Generator: SVG Repo Mixer Tools -->
<svg width="800px" height="800px" viewBox="0 0 48 48" xmlns="http://www.w3.org/2000/svg">
  <title>stop-warning</title>
  <g id="Layer_2" data-name="Layer 2">
    <g id="invisible_box" data-name="invisible box">
      <rect width="48" height="48" fill="none"/>
    </g>
    <g id="icons_Q2" data-name="icons Q2">
      <g>
        <path d="M43.4,15.1,32.9,4.6A2,2,0,0,0,31.5,4h-15a2,2,0,0,0-1.4.6L4.6,15.1A2,2,0,0,0,4,16.5v15a2,2,0,0,0,.6,1.4L15.1,43.4a2,2,0,0,0,1.4.6h15a2,2,0,0,0,1.4-.6L43.4,32.9a2,2,0,0,0,.6-1.4v-15A2,2,0,0,0,43.4,15.1ZM40,30.6,30.6,40H17.4L8,30.6V17.4L17.4,8H30.6L40,17.4Z"/>
        <path d="M26.8,24l5.6-5.6a2,2,0,0,0-2.8-2.8L24,21.2l-5.6-5.6a2,2,0,0,0-2.8,2.8L21.2,24l-5.6,5.6a1.9,1.9,0,0,0,0,2.8,1.9,1.9,0,0,0,2.8,0L24,26.8l5.6,5.6a1.9,1.9,0,0,0,2.8,0,1.9,1.9,0,0,0,0-2.8Z"/>
      </g>
    </g>
  </g>
</svg>