<?xml version="1.0" encoding="utf-8"?><!-- Uploaded to: SVG Repo, www.svgrepo.com, Generator: SVG Repo Mixer Tools -->
<svg width="800px" height="800px" viewBox="0 0 24 24" xmlns="http://www.w3.org/2000/svg"><path d="M5 4h1v1H5V4zm2 1h1V4H7v1zm15-3v10.83c-.3-.3-.64-.57-1-.8V11H3v3h9.03c-.21.31-.38.65-.53 1H2V2h20zm-1 5H3v3h18V7zm0-4H3v3h18V3zM6 8H5v1h1V8zm2 0H7v1h1V8zm-3 4v1h1v-1H5zm2 0v1h1v-1H7zm2-7h1V4H9v1zm1 3H9v1h1V8zm-1 4v1h1v-1H9zm14 5.5c0 3.03-2.47 5.5-5.5 5.5s-5.49-2.47-5.49-5.5S14.47 12 17.5 12s5.5 2.47 5.5 5.5zm-1 0c0-2.48-2.02-4.5-4.5-4.5S13 15.02 13 17.5s2.02 4.5 4.5 4.5 4.5-2.02 4.5-4.5zm-4 .5v-3h-1v4h3v-1h-2z"/><path fill="none" d="M0 0h24v24H0z"/></svg>