<?xml version="1.0" encoding="UTF-8"?>
<!-- Generated by Pixelmator Pro 3.6.14 -->
<svg width="800" height="800" viewBox="0 0 800 800" xmlns="http://www.w3.org/2000/svg">
    <path id="Path" fill="none" stroke="#000000" stroke-width="33.333332" stroke-linejoin="round" d="M 400 230.302979 C 363.330017 183.630981 306.802002 136.958984 166.706345 133.533997 C 157.504333 133.309326 150 140.78363 150 149.988342 C 150 218.270996 150 476.779999 150 553.233337 C 150 562.436646 157.505005 569.666687 166.704666 569.966675 C 306.801666 574.546692 363.330017 636.660034 400 683.333313 M 400 230.302979 C 436.669983 183.630981 493.196686 136.958984 633.293335 133.533997 C 642.496704 133.309326 650 140.615662 650 149.820313 C 650 226.148987 650 476.880005 650 553.210022 C 650 562.41333 642.496704 569.666687 633.296631 569.966675 C 493.199982 574.546692 436.669983 636.660034 400 683.333313 M 400 230.302979 L 400 683.333313"/>
    <path id="path1" fill="none" stroke="#000000" stroke-width="33.333332" stroke-linejoin="round" d="M 641.176697 200 L 716.666687 200 C 725.869995 200 733.333313 207.461975 733.333313 216.666687 L 733.333313 651.299988 C 733.333313 664.786621 717.443359 673.746704 705.116638 668.27002 C 678.613342 656.493286 634.383301 642.106689 576.469971 642.106689 C 478.429993 642.106689 400 700 400 700 C 400 700 321.568665 642.106689 223.529343 642.106689 C 165.615005 642.106689 121.385338 656.493286 94.882339 668.27002 C 82.556 673.746704 66.666664 664.786621 66.666664 651.299988 L 66.666664 216.666687 C 66.666664 207.461975 74.12867 200 83.333336 200 L 158.823669 200"/>
</svg>
