<?xml version="1.0" encoding="iso-8859-1"?>
<!-- Uploaded to: SVG Repo, www.svgrepo.com, Generator: SVG Repo Mixer Tools -->
<svg fill="#000000" height="800px" width="800px" version="1.1" id="Capa_1" xmlns="http://www.w3.org/2000/svg" xmlns:xlink="http://www.w3.org/1999/xlink" 
	 viewBox="0 0 33.132 33.132" xml:space="preserve">
<g>
	<path d="M33.132,30.941l-6.096-5.439c1.151-1.459,1.843-3.297,1.843-5.297c0-4.453-3.414-8.107-7.761-8.525
		c-0.061-0.18-0.127-0.355-0.232-0.537l-0.148-0.258c0.339-0.482,0.529-0.996,0.529-1.535V6.289c0-0.416-0.116-0.838-0.347-1.256
		l-0.07-0.131c0.095-0.221,0.161-0.447,0.161-0.688c0-2.472-5.35-3.81-10.379-3.81c-5.03,0-10.375,1.338-10.375,3.811
		c0,0.24,0.064,0.467,0.16,0.688L0.345,5.037C0.114,5.451,0,5.873,0,6.289V9.35c0,0.539,0.188,1.053,0.528,1.535l-0.15,0.262
		C0.126,11.578,0,12.019,0,12.455v3.062c0,0.525,0.179,1.029,0.502,1.502l-0.124,0.213C0.126,17.666,0,18.107,0,18.539v3.066
		c0,2.721,4.669,4.85,10.632,4.85c1.221,0,2.383-0.092,3.465-0.26c-0.068-0.09-0.123-0.193-0.188-0.291
		c1.571,1.762,3.846,2.881,6.389,2.881c2.076,0,3.984-0.74,5.47-1.973l5.431,5.916L33.132,30.941z M16.665,16.543
		c2.088-2.074,5.455-2.061,7.523,0.02c2.073,2.086,2.059,5.459-0.024,7.525c-2.087,2.072-5.454,2.062-7.528-0.023
		C14.565,21.98,14.583,18.611,16.665,16.543z M10.632,1.545c5.723,0,9.24,1.555,9.24,2.67c0,1.117-3.518,2.672-9.24,2.672
		c-5.726,0-9.238-1.555-9.238-2.672C1.394,3.099,4.906,1.545,10.632,1.545z M1.14,6.802c1.705,1.445,5.66,2.193,9.492,2.193
		c3.834,0,7.787-0.748,9.494-2.193v2.547c0,1.756-3.896,3.713-9.494,3.713c-5.594,0-9.492-1.957-9.492-3.713
		C1.14,9.349,1.14,6.802,1.14,6.802z M1.14,12.636c1.744,1.6,5.336,2.621,9.492,2.621c0.99,0,1.926-0.078,2.829-0.191
		c-0.695,0.926-1.224,1.986-1.501,3.146c-0.077,0.316-0.136,0.639-0.176,0.969c-0.382,0.018-0.754,0.049-1.152,0.049
		c-5.594,0-9.492-1.957-9.492-3.713C1.14,15.517,1.14,12.636,1.14,12.636z M10.632,25.318c-5.594,0-9.492-1.957-9.492-3.713v-2.881
		c1.744,1.6,5.336,2.619,9.492,2.619c0.396,0,0.779-0.025,1.164-0.049c0.133,1.045,0.447,2.029,0.922,2.918
		c0.173,0.332,0.38,0.641,0.594,0.941C12.474,25.258,11.579,25.318,10.632,25.318z"/>
	<path d="M24.4,19.961l0.379-1.129c-2.979-4.801-7.113-2.014-7.113-2.014C22.841,15.881,24.4,19.961,24.4,19.961z"/>
	<g>
	</g>
	<g>
	</g>
	<g>
	</g>
	<g>
	</g>
	<g>
	</g>
	<g>
	</g>
	<g>
	</g>
	<g>
	</g>
	<g>
	</g>
	<g>
	</g>
	<g>
	</g>
	<g>
	</g>
	<g>
	</g>
	<g>
	</g>
	<g>
	</g>
</g>
</svg>