<?xml version="1.0" encoding="utf-8"?>
<!-- Generator: Adobe Illustrator 24.1.1, SVG Export Plug-In . SVG Version: 6.00 Build 0)  -->
<svg version="1.1" id="Layer_1" xmlns="http://www.w3.org/2000/svg" xmlns:xlink="http://www.w3.org/1999/xlink" x="0px" y="0px"
	 viewBox="0 0 512 512" style="enable-background:new 0 0 512 512;" xml:space="preserve">
<g>
	<path d="M230.4,358.4V76.8c0-14.13,11.48-25.6,25.6-25.6c14.15,0,25.6,11.47,25.6,25.6v281.6h25.6c14.15,0,25.6,11.48,25.6,25.6
		c0,14.15-11.45,25.6-25.6,25.6h-25.6v25.6c0,14.15-11.45,25.6-25.6,25.6c-14.13,0-25.6-11.45-25.6-25.6v-25.6h-25.6
		c-14.13,0-25.6-11.45-25.6-25.6c0-14.13,11.48-25.6,25.6-25.6H230.4z M409.6,102.4V76.8c0-14.13,11.48-25.6,25.6-25.6
		c14.15,0,25.6,11.47,25.6,25.6v25.6h25.6c14.15,0,25.6,11.47,25.6,25.6c0,14.15-11.45,25.6-25.6,25.6h-25.6v281.6
		c0,14.15-11.45,25.6-25.6,25.6c-14.13,0-25.6-11.45-25.6-25.6V153.6H384c-14.13,0-25.6-11.45-25.6-25.6
		c0-14.13,11.48-25.6,25.6-25.6H409.6z M102.4,179.2H128c14.15,0,25.6,11.48,25.6,25.6c0,14.15-11.45,25.6-25.6,25.6h-25.6v204.8
		c0,14.15-11.45,25.6-25.6,25.6c-14.13,0-25.6-11.45-25.6-25.6V230.4H25.6C11.48,230.4,0,218.95,0,204.8
		c0-14.13,11.48-25.6,25.6-25.6h25.6V76.8c0-14.13,11.47-25.6,25.6-25.6c14.15,0,25.6,11.47,25.6,25.6V179.2z"/>
</g>
</svg>
