<?xml version="1.0" encoding="iso-8859-1"?>
<!-- Uploaded to: SVG Repo, www.svgrepo.com, Generator: SVG Repo Mixer Tools -->
<!DOCTYPE svg PUBLIC "-//W3C//DTD SVG 1.1//EN" "http://www.w3.org/Graphics/SVG/1.1/DTD/svg11.dtd">
<svg fill="#000000" version="1.1" id="Capa_1" xmlns="http://www.w3.org/2000/svg" xmlns:xlink="http://www.w3.org/1999/xlink" 
	 width="800px" height="800px" viewBox="0 0 46 46" xml:space="preserve">
<g>
	<g>
		<path d="M20.913,34.756c-0.625,0.627-1.565,0.816-2.383,0.479c-0.818-0.336-1.352-1.135-1.352-2.02V12.784
			c0-0.885,0.534-1.683,1.352-2.021c0.818-0.338,1.759-0.149,2.383,0.479l9.657,9.706c1.129,1.134,1.129,2.967,0,4.102
			L20.913,34.756z"/>
		<path d="M23,6c9.374,0,17,7.626,17,17s-7.626,17-17,17S6,32.374,6,23S13.626,6,23,6 M23,0C10.298,0,0,10.297,0,23s10.298,23,23,23
			s23-10.297,23-23S35.702,0,23,0L23,0z"/>
	</g>
</g>
</svg>