<?xml version="1.0" encoding="utf-8"?>
<!-- Generator: Adobe Illustrator 21.0.0, SVG Export Plug-In . SVG Version: 6.00 Build 0)  -->
<svg version="1.1" id="Layer_1" xmlns="http://www.w3.org/2000/svg" xmlns:xlink="http://www.w3.org/1999/xlink" x="0px" y="0px"
	 viewBox="0 0 512 512" style="enable-background:new 0 0 512 512;" xml:space="preserve">
<g>
	<path d="M509,261.1c-3.3-12.7-9.3-24-16.9-33.4c-5.7-7.1-12.4-13.2-19.6-18.4c-10.8-7.8-22.8-13.6-35-17.7
		c-7.8-2.5-15.7-4.4-23.5-5.6c-3-18-8.4-34.6-15.7-49.6c-13.6-27.9-34-50.1-58.7-65.3C315,55.8,286.2,47.8,256,47.8
		c-19,0-36.6,3.2-52.4,8.8c-11.9,4.2-22.7,9.8-32.5,16.4c-14.7,9.9-26.9,22-36.7,35.2c-7.5,10.2-13.6,21.1-18.1,32.2
		c-12.9,2-25.3,5.3-37.1,10c-11.1,4.5-21.6,10.2-31.1,17.1c-14.3,10.4-26.4,23.7-34.8,39.5c-4.3,8-7.6,16.5-9.9,25.6
		C1.2,241.7,0,251.4,0,261.4c0,17.9,3.9,34.8,11,49.8c5.3,11.3,12.4,21.5,20.9,30.4c12.7,13.4,28.5,23.9,46.2,31.1
		c17.7,7.2,37.4,11,57.9,11h56c8.8,0,16-7.2,16-16s-7.2-16-16-16h-56c-14.7,0-28.7-2.4-41.2-6.9c-9.4-3.3-18.1-7.8-25.7-13.2
		c-11.5-8.1-20.7-18.3-27.1-30.1c-6.4-11.8-9.9-25.2-10-40.2c0-13.4,2.8-25.1,7.6-35.4c3.6-7.8,8.4-14.8,14.3-21
		c8.8-9.4,20-17.2,32.9-23c12.9-5.8,27.5-9.6,42.7-11c6.4-0.6,11.8-4.9,13.7-11c3.2-9.8,8-19.9,14.4-29.3
		c4.8-7.1,10.5-13.8,17.1-19.9c9.8-9.1,21.5-16.8,35-22.3c13.5-5.4,28.9-8.7,46.3-8.7c16.4,0,32,2.9,46.4,8.4
		c21.6,8.2,40.3,22.2,54.6,41.3s24.1,43.5,27.1,72.8c0.8,7.8,7.3,13.9,15.1,14.3c9.2,0.5,19.3,2.3,28.9,5.5
		c7.2,2.4,14.2,5.6,20.5,9.5c4.7,2.9,9.1,6.2,12.9,9.8c5.8,5.5,10.3,11.6,13.5,18.7c3.2,7,5,14.9,5,24.2c0,5.7-0.6,10.9-1.7,15.7
		c-1.9,8.4-5.2,15.6-9.8,21.8c-3.4,4.7-7.6,8.9-12.4,12.6c-7.3,5.5-16.2,9.9-26.4,12.9s-21.6,4.6-33.7,4.6h-76c-8.8,0-16,7.2-16,16
		s7.2,16,16,16h76c15.2,0,29.8-2,43.4-6.1c10.2-3.1,19.8-7.3,28.6-12.8c6.6-4.1,12.6-8.9,18-14.4c8.1-8.3,14.7-18.1,19.1-29.3
		c4.5-11.2,6.8-23.6,6.8-37C511.9,276.1,510.9,268.4,509,261.1z"/>
	<path d="M308.7,267.1c6.2,6.2,16.4,6.2,22.6,0c6.3-6.2,6.3-16.4,0-22.6l-64-64c-6.2-6.2-16.4-6.2-22.6,0l-64,64
		c-6.2,6.2-6.2,16.4,0,22.6c6.2,6.2,16.4,6.2,22.6,0l36.7-36.7v217.8c0,8.8,7.2,16,16,16s16-7.2,16-16V230.4L308.7,267.1z"/>
</g>
</svg>
