<?xml version="1.0" encoding="UTF-8" standalone="no"?>
<!-- Created with Inkscape (http://www.inkscape.org/) -->

<svg
   xmlns:svg="http://www.w3.org/2000/svg"
   xmlns="http://www.w3.org/2000/svg"
   version="1.1"
   width="400"
   height="400"
   id="svg2997">
  <defs
     id="defs2999" />
  <g
     transform="translate(0,-652.36218)"
     id="layer1">
    <g
       transform="matrix(0.2951006,0,0,0.2951006,-2143.7583,-2336.2691)"
       id="g3007"
       style="fill-rule:evenodd">
      <rect
         width="1355.47"
         height="1355.47"
         rx="116.97"
         ry="116.97"
         x="7264.5"
         y="10127.5"
         id="rect54"
         style="fill:#00ccff;fill-opacity:1" />
      <g
         id="text66"
         style="font-size:966.48999023px;font-weight:normal;fill:#ffffff;font-family:Zurich BdXCn BT">
        <path
           d="m 7731.4606,10475.171 114.2044,0 0,673.429 -130.2496,0 0,-500.706 c -11.3262,11.641 -23.5961,21.708 -36.8097,30.202 -13.2138,8.495 -27.686,15.574 -43.4165,21.237 l 0,-120.811 c 23.2812,-13.214 43.0231,-28.472 59.2258,-45.777 16.2024,-17.303 28.5509,-36.494 37.0456,-57.574 z"
           id="path2871"
           style="font-size:966.48999023px;font-weight:normal;fill:#ffffff;font-family:Zurich BdXCn BT" />
      </g>
      <g
         id="text68"
         style="font-size:966.48999023px;font-weight:normal;fill:#ffffff;font-family:Zurich BdXCn BT">
        <path
           d="m 8292.9562,10679.984 0,263.803 c -3e-4,81.799 -12.5062,138.351 -37.5175,169.655 -25.012,31.304 -69.1364,46.956 -132.3733,46.956 -63.8665,0 -108.2268,-15.574 -133.0811,-46.72 -24.8545,-31.147 -37.2817,-87.777 -37.2816,-169.891 l 0,-263.803 c -1e-4,-82.113 12.4271,-138.586 37.2816,-169.419 24.8543,-30.831 69.2146,-46.247 133.0811,-46.248 63.5515,0 107.7545,15.417 132.6092,46.248 24.8541,30.833 37.2813,87.306 37.2816,169.419 z m -136.3845,-50.495 c -3e-4,-33.663 -2.4385,-55.922 -7.3148,-66.777 -4.8767,-10.853 -13.6072,-16.28 -26.1915,-16.281 -12.5847,0 -21.3938,5.9 -26.4274,17.697 -5.034,11.799 -7.5509,33.585 -7.5507,65.361 l 0,364.321 c -2e-4,34.922 2.438,57.496 7.3147,67.721 4.8763,10.225 13.7641,15.337 26.6634,15.337 12.2697,0 20.9215,-5.742 25.9556,-17.225 5.0335,-11.483 7.5504,-33.428 7.5507,-65.833 z"
           id="path2868"
           style="font-size:966.48999023px;font-weight:normal;fill:#ffffff;font-family:Zurich BdXCn BT" />
      </g>
    </g>
  </g>
</svg>
