<?xml version="1.0" encoding="UTF-8" standalone="no"?>
<!-- Created with Inkscape (http://www.inkscape.org/) -->

<svg
   xmlns:svg="http://www.w3.org/2000/svg"
   xmlns="http://www.w3.org/2000/svg"
   version="1.1"
   width="400"
   height="400"
   id="svg3220">
  <defs
     id="defs3222" />
  <g
     transform="translate(0,-652.36218)"
     id="layer1">
    <g
       transform="matrix(0.2951006,0,0,0.2951006,-4086.5531,-2336.2691)"
       id="g3176"
       style="fill-rule:evenodd">
      <rect
         width="1355.47"
         height="1355.47"
         rx="116.97"
         ry="116.97"
         x="13848"
         y="10127.5"
         id="rect62"
         style="fill:#000000;fill-opacity:1" />
      <g
         id="text82"
         style="font-size:966.48999023px;font-weight:normal;fill:#ffffff;font-family:Zurich BdXCn BT">
        <path
           d="m 14296.49,10455.472 114.205,0 0,673.428 -130.25,0 0,-500.706 c -11.326,11.642 -23.596,21.709 -36.809,30.203 -13.214,8.495 -27.686,15.574 -43.417,21.237 l 0,-120.812 c 23.281,-13.213 43.023,-28.472 59.226,-45.776 16.202,-17.303 28.551,-36.494 37.045,-57.574 z"
           id="path2904"
           style="font-size:966.48999023px;font-weight:normal;fill:#ffffff;font-family:Zurich BdXCn BT" />
      </g>
      <g
         id="text84"
         style="font-size:966.48999023px;font-weight:normal;fill:#ffffff;font-family:Zurich BdXCn BT">
        <path
           d="m 14651.326,10909.458 0,64.653 c -10e-4,34.293 2.674,56.709 8.022,67.248 5.348,10.54 14.944,15.81 28.787,15.81 13.528,0 22.967,-5.899 28.315,-17.697 5.349,-11.798 8.023,-33.585 8.023,-65.361 l 0,-64.653 c 0,-33.978 -2.596,-56.158 -7.787,-66.54 -5.191,-10.382 -14.708,-15.574 -28.551,-15.574 -13.843,0 -23.439,5.585 -28.787,16.753 -5.348,11.169 -8.023,32.956 -8.022,65.361 z m 2.831,-299.668 0,33.978 c 0,34.922 2.438,57.496 7.315,67.72 4.876,10.225 13.764,15.338 26.663,15.337 12.27,10e-4 20.764,-5.584 25.484,-16.753 4.719,-11.168 7.078,-33.27 7.079,-66.304 l 0,-33.978 c 0,-33.663 -2.439,-55.922 -7.315,-66.777 -4.877,-10.854 -13.607,-16.281 -26.192,-16.281 -12.27,0 -20.843,5.663 -25.719,16.989 -4.877,11.327 -7.315,33.349 -7.315,66.069 z m -42.473,164.227 c -28.315,-8.179 -50.574,-23.359 -66.776,-45.54 -16.203,-22.18 -24.304,-48.843 -24.304,-79.99 l 0,-38.697 c 0,-58.203 13.135,-100.283 39.405,-126.239 26.27,-25.955 68.979,-38.932 128.126,-38.933 58.833,0 101.227,12.9 127.182,38.697 25.956,25.799 38.933,67.957 38.934,126.475 l 0,38.697 c 0,31.147 -7.945,57.889 -23.832,80.226 -15.888,22.338 -37.99,37.439 -66.305,45.304 30.517,8.81 53.799,25.012 69.844,48.608 16.045,23.596 24.068,53.484 24.068,89.665 l 0,62.765 c 0,58.203 -13.529,100.361 -40.585,126.474 -27.057,26.113 -70.473,39.169 -130.25,39.169 -60.091,0 -103.35,-12.899 -129.777,-38.697 -26.428,-25.798 -39.642,-68.114 -39.641,-126.946 l 0,-62.765 c -10e-4,-36.495 7.943,-66.462 23.831,-89.901 15.888,-23.438 39.248,-39.562 70.08,-48.372 z"
           id="path2901"
           style="font-size:966.48999023px;font-weight:normal;fill:#ffffff;font-family:Zurich BdXCn BT" />
      </g>
    </g>
  </g>
</svg>
