<?xml version="1.0" encoding="UTF-8" standalone="no"?>
<!-- Created with Inkscape (http://www.inkscape.org/) -->

<svg
   xmlns:svg="http://www.w3.org/2000/svg"
   xmlns="http://www.w3.org/2000/svg"
   version="1.1"
   width="400"
   height="400"
   id="svg3166">
  <defs
     id="defs3168" />
  <g
     transform="translate(0,-652.36218)"
     id="layer1">
    <g
       transform="matrix(0.2951006,0,0,0.2951006,-3612.71,-2336.2691)"
       id="g3159"
       style="fill-rule:evenodd">
      <rect
         width="1355.47"
         height="1355.47"
         rx="116.97"
         ry="116.97"
         x="12242.3"
         y="10127.5"
         id="rect60"
         style="fill:#fe0000;fill-opacity:1" />
      <g
         id="text78"
         style="font-size:966.48999023px;font-weight:normal;fill:#ffffff;font-family:Zurich BdXCn BT">
        <path
           d="m 12688.49,10448.072 114.205,0 0,673.428 -130.25,0 0,-500.706 c -11.326,11.641 -23.596,21.709 -36.809,30.203 -13.214,8.495 -27.686,15.574 -43.417,21.236 l 0,-120.811 c 23.281,-13.213 43.023,-28.472 59.226,-45.776 16.202,-17.303 28.551,-36.495 37.045,-57.574 z"
           id="path2898"
           style="font-size:966.48999023px;font-weight:normal;fill:#ffffff;font-family:Zurich BdXCn BT" />
      </g>
      <g
         id="text80"
         style="font-size:966.48999023px;font-weight:normal;fill:#ffffff;font-family:Zurich BdXCn BT">
        <path
           d="m 13111.542,10873.271 c 0,-34.607 -2.281,-57.102 -6.843,-67.485 -4.562,-10.382 -12.821,-15.573 -24.776,-15.573 -11.955,0 -20.292,5.899 -25.011,17.697 -4.72,11.798 -7.079,33.585 -7.079,65.361 l 0,93.44 c 0,34.607 2.281,57.102 6.843,67.484 4.561,10.382 12.977,15.573 25.247,15.573 11.641,0 19.821,-5.663 24.54,-16.989 4.719,-11.326 7.079,-33.349 7.079,-66.068 z m 136.384,-270.882 0,7.079 -136.384,0 0,-7.079 c 0,-34.607 -2.281,-57.101 -6.843,-67.484 -4.562,-10.382 -12.821,-15.573 -24.776,-15.574 -11.955,0 -20.292,5.979 -25.011,17.933 -4.72,11.956 -7.079,33.664 -7.079,65.125 l 0,136.385 c 11.955,-15.73 25.405,-27.371 40.349,-34.922 14.944,-7.551 32.169,-11.326 51.675,-11.326 37.753,0 65.36,12.034 82.822,36.101 17.46,24.069 26.191,62.53 26.191,115.385 l 0,72.675 c 0,82.114 -12.349,138.744 -37.045,169.891 -24.698,31.147 -68.35,46.72 -130.958,46.72 -62.923,0 -106.732,-15.495 -131.429,-46.484 -24.697,-30.989 -37.046,-87.698 -37.046,-170.127 l 0,-263.803 c 0,-82.113 12.349,-138.586 37.046,-169.418 24.697,-30.832 68.506,-46.248 131.429,-46.248 63.237,0 106.889,11.72 130.958,35.157 24.067,23.44 36.101,66.778 36.101,130.014 z"
           id="path2895"
           style="font-size:966.48999023px;font-weight:normal;fill:#ffffff;font-family:Zurich BdXCn BT" />
      </g>
    </g>
  </g>
</svg>
