<?xml version="1.0" encoding="utf-8"?>
<!-- Uploaded to: SVG Repo, www.svgrepo.com, Generator: SVG Repo Mixer Tools -->
<svg width="800px" height="800px" viewBox="0 0 1024 1024" class="icon"  version="1.1" xmlns="http://www.w3.org/2000/svg"><path d="M403.2 803.2c-0.8 0-8.8 64-9.6 65.6-1.6 13.6-4 21.6-11.2 28-2.4 2.4-4.8 3.2-7.2 4.8-5.6 4-10.4 6.4-16.8 10.4-4.8 2.4-10.4 12-4.8 14.4h316.8c5.6-2.4 0-11.2-4.8-13.6-6.4-4-11.2-7.2-16.8-12-2.4-1.6-4.8-4-7.2-6.4-6.4-6.4-9.6-12-11.2-25.6 0-1.6-9.6-71.2-9.6-65.6" fill="#D2D5D6" /><path d="M992 704.8V124c0-14.4-11.2-26.4-25.6-26.4H57.6c-14.4 0-25.6 12-25.6 26.4v581.6" fill="#938993" /><path d="M84 149.6h856v503.2h-856z" fill="#E2D3E2" /><path d="M376 137.6l576 528v-528z" fill="#FAFBFA" /><path d="M32 704v72.8c0 14.4 11.2 26.4 25.6 26.4h908c14.4 0 25.6-12 25.6-26.4V704" fill="#D2D5D6" /><path d="M511.2 754.4m-24 0a24 24 0 1 0 48 0 24 24 0 1 0-48 0Z" fill="#414343" /><path d="M623.2 827.2c-0.8-24-1.6-24-1.6-24H404s-0.8 0-1.6 24h220.8z" fill="#0D1014" /><path d="M449.6 568.8l-1.6 4z" fill="#99D9E6" /><path d="M353.6 934.4c-0.8 0-2.4 0-3.2-0.8-4-1.6-7.2-5.6-7.2-10.4 0-8 6.4-16 11.2-18.4l3.2-1.6c4.8-2.4 8.8-4.8 12-8 1.6-0.8 2.4-1.6 4-2.4 0.8-0.8 1.6-0.8 2.4-1.6 4.8-4 6.4-10.4 8-22.4 8-67.2 8-67.2 16-67.2 4.8 0 8 3.2 8 8v2.4c-0.8 5.6-7.2 54.4-8 58.4-1.6 14.4-4.8 24.8-13.6 32.8-1.6 1.6-4 3.2-5.6 4-0.8 0.8-1.6 0.8-2.4 1.6-4.8 4-9.6 6.4-14.4 8.8l-3.2 1.6H656c-5.6-3.2-10.4-7.2-15.2-10.4-1.6-1.6-3.2-3.2-5.6-4.8l-2.4-1.6c-8.8-8-12-16.8-13.6-30.4-0.8-4-6.4-48.8-8-58.4 0-0.8-0.8-1.6-0.8-3.2 0-4 3.2-8 7.2-8.8 8.8-0.8 8.8-0.8 16.8 67.2 1.6 12.8 4 16.8 8 20.8l2.4 2.4c1.6 1.6 3.2 2.4 4 4 5.6 4 9.6 7.2 16 11.2 4.8 2.4 12 10.4 11.2 17.6 0 4.8-3.2 8-7.2 10.4-0.8 0.8-2.4 0.8-3.2 0.8l-312-1.6zM992 712.8c-4.8 0-8-3.2-8-8V124c0-10.4-8-18.4-17.6-18.4H57.6c-9.6 0-17.6 8-17.6 18.4v581.6c0 4.8-3.2 8-8 8s-8-3.2-8-8V124c0-19.2 15.2-34.4 33.6-34.4h908c18.4 0 33.6 15.2 33.6 34.4v581.6c0.8 4-2.4 7.2-7.2 7.2z" fill="#6A576D" /><path d="M940 660.8h-856c-4.8 0-8-3.2-8-8V149.6c0-4.8 3.2-8 8-8h856c4.8 0 8 3.2 8 8v503.2c0 4.8-4 8-8 8z m-848-16h840V157.6h-840v487.2zM966.4 811.2H57.6c-18.4 0-33.6-15.2-33.6-34.4V704c0-4.8 3.2-8 8-8h960c4.8 0 8 3.2 8 8v72.8c0 19.2-15.2 34.4-33.6 34.4zM40 712v64.8c0 10.4 8 18.4 17.6 18.4h908c9.6 0 17.6-8 17.6-18.4V712H40z" fill="#6A576D" /></svg>