<?xml version="1.0" encoding="UTF-8" standalone="no"?>
<!-- Created with Inkscape (http://www.inkscape.org/) -->

<svg
   xmlns:svg="http://www.w3.org/2000/svg"
   xmlns="http://www.w3.org/2000/svg"
   version="1.1"
   width="200"
   height="246.15468"
   id="svg3911">
  <defs
     id="defs3913">
    <clipPath
       id="clipPath4012">
      <path
         d="m 129.495,623.106 25.637,0 0,32.015 -25.637,0 0,-32.015 z"
         id="path4014" />
    </clipPath>
    <clipPath
       id="clipPath4018">
      <path
         d="m 129.495,655.121 25.637,0 0,-32.015 -25.637,0 0,32.015 z"
         id="path4020" />
    </clipPath>
    <clipPath
       id="clipPath4030">
      <path
         d="m 129.495,623.106 25.637,0 0,32.015 -25.637,0 0,-32.015 z"
         id="path4032" />
    </clipPath>
    <clipPath
       id="clipPath4036">
      <path
         d="m 129.495,655.121 25.637,0 0,-32.015 -25.637,0 0,32.015 z"
         id="path4038" />
    </clipPath>
    <clipPath
       id="clipPath4048">
      <path
         d="m 129.495,623.106 25.637,0 0,32.015 -25.637,0 0,-32.015 z"
         id="path4050" />
    </clipPath>
    <clipPath
       id="clipPath4054">
      <path
         d="m 129.495,655.121 25.637,0 0,-32.015 -25.637,0 0,32.015 z"
         id="path4056" />
    </clipPath>
    <clipPath
       id="clipPath4066">
      <path
         d="m 129.495,623.106 25.637,0 0,32.015 -25.637,0 0,-32.015 z"
         id="path4068" />
    </clipPath>
    <clipPath
       id="clipPath4072">
      <path
         d="m 129.495,655.121 25.637,0 0,-32.015 -25.637,0 0,32.015 z"
         id="path4074" />
    </clipPath>
    <clipPath
       id="clipPath4084">
      <path
         d="m 129.495,623.106 25.637,0 0,32.015 -25.637,0 0,-32.015 z"
         id="path4086" />
    </clipPath>
    <clipPath
       id="clipPath4090">
      <path
         d="m 129.495,655.121 25.637,0 0,-32.015 -25.637,0 0,32.015 z"
         id="path4092" />
    </clipPath>
    <clipPath
       id="clipPath4102">
      <path
         d="m 129.495,623.106 25.637,0 0,32.015 -25.637,0 0,-32.015 z"
         id="path4104" />
    </clipPath>
    <clipPath
       id="clipPath4108">
      <path
         d="m 129.495,655.121 25.637,0 0,-32.015 -25.637,0 0,32.015 z"
         id="path4110" />
    </clipPath>
    <clipPath
       id="clipPath4120">
      <path
         d="m 129.495,623.106 25.637,0 0,32.015 -25.637,0 0,-32.015 z"
         id="path4122" />
    </clipPath>
    <clipPath
       id="clipPath4126">
      <path
         d="m 129.495,655.121 25.637,0 0,-32.015 -25.637,0 0,32.015 z"
         id="path4128" />
    </clipPath>
    <clipPath
       id="clipPath4138">
      <path
         d="m 129.495,623.106 25.637,0 0,32.015 -25.637,0 0,-32.015 z"
         id="path4140" />
    </clipPath>
    <clipPath
       id="clipPath4144">
      <path
         d="m 129.495,655.121 25.637,0 0,-32.015 -25.637,0 0,32.015 z"
         id="path4146" />
    </clipPath>
    <clipPath
       id="clipPath4156">
      <path
         d="m 129.495,623.106 25.637,0 0,32.015 -25.637,0 0,-32.015 z"
         id="path4158" />
    </clipPath>
    <clipPath
       id="clipPath4162">
      <path
         d="m 129.495,655.121 25.637,0 0,-32.015 -25.637,0 0,32.015 z"
         id="path4164" />
    </clipPath>
    <clipPath
       id="clipPath4174">
      <path
         d="m 129.495,623.106 25.637,0 0,32.015 -25.637,0 0,-32.015 z"
         id="path4176" />
    </clipPath>
    <clipPath
       id="clipPath4180">
      <path
         d="m 129.495,655.121 25.637,0 0,-32.015 -25.637,0 0,32.015 z"
         id="path4182" />
    </clipPath>
    <clipPath
       id="clipPath4192">
      <path
         d="m 129.495,623.106 25.637,0 0,32.015 -25.637,0 0,-32.015 z"
         id="path4194" />
    </clipPath>
    <clipPath
       id="clipPath4198">
      <path
         d="m 129.495,655.121 25.637,0 0,-32.015 -25.637,0 0,32.015 z"
         id="path4200" />
    </clipPath>
    <clipPath
       id="clipPath4210">
      <path
         d="m 129.495,623.106 25.637,0 0,32.015 -25.637,0 0,-32.015 z"
         id="path4212" />
    </clipPath>
    <clipPath
       id="clipPath4216">
      <path
         d="m 129.495,655.121 25.637,0 0,-32.015 -25.637,0 0,32.015 z"
         id="path4218" />
    </clipPath>
    <clipPath
       id="clipPath4228">
      <path
         d="m 129.495,623.106 25.637,0 0,32.015 -25.637,0 0,-32.015 z"
         id="path4230" />
    </clipPath>
    <clipPath
       id="clipPath4234">
      <path
         d="m 129.495,655.121 25.637,0 0,-32.015 -25.637,0 0,32.015 z"
         id="path4236" />
    </clipPath>
    <clipPath
       id="clipPath4246">
      <path
         d="m 129.495,623.106 25.637,0 0,32.015 -25.637,0 0,-32.015 z"
         id="path4248" />
    </clipPath>
    <clipPath
       id="clipPath4252">
      <path
         d="m 129.495,655.121 25.637,0 0,-32.015 -25.637,0 0,32.015 z"
         id="path4254" />
    </clipPath>
    <clipPath
       id="clipPath4264">
      <path
         d="m 129.495,623.106 25.637,0 0,32.015 -25.637,0 0,-32.015 z"
         id="path4266" />
    </clipPath>
    <clipPath
       id="clipPath4270">
      <path
         d="m 129.495,655.121 25.637,0 0,-32.015 -25.637,0 0,32.015 z"
         id="path4272" />
    </clipPath>
    <clipPath
       id="clipPath4282">
      <path
         d="m 129.495,623.106 25.637,0 0,32.015 -25.637,0 0,-32.015 z"
         id="path4284" />
    </clipPath>
    <clipPath
       id="clipPath4288">
      <path
         d="m 129.495,655.121 25.637,0 0,-32.015 -25.637,0 0,32.015 z"
         id="path4290" />
    </clipPath>
    <clipPath
       id="clipPath4300">
      <path
         d="m 129.495,623.106 25.637,0 0,32.015 -25.637,0 0,-32.015 z"
         id="path4302" />
    </clipPath>
    <clipPath
       id="clipPath4306">
      <path
         d="m 129.495,655.121 25.637,0 0,-32.015 -25.637,0 0,32.015 z"
         id="path4308" />
    </clipPath>
  </defs>
  <path
     d="m 200,232.30934 c 0,7.64185 -6.19272,13.84533 -13.84527,13.84533 l -172.30935,0 C 6.19272,246.15467 0,239.95119 0,232.30934 L 0,13.845326 C 0,6.192663 6.19272,0 13.84538,0 L 186.15473,0 C 193.80728,0 200,6.192663 200,13.845326 l 0,218.464014"
     id="path4666-1"
     style="fill:#ffffff;fill-opacity:1;fill-rule:nonzero;stroke:none" />
  <path
     d="m 181.05953,34.645315 c 0,-8.138535 -6.59956,-14.738097 -14.73116,-14.738097 l -132.64981,0 c -8.1316,0 -14.73809,6.599562 -14.73809,14.738097 l 0,156.982225 162.11906,0 0,-156.982225 z"
     id="path4024"
     style="fill:#000000;fill-opacity:1;fill-rule:nonzero;stroke:none" />
  <path
     d="m 181.05953,211.50248 c 0,8.13853 -6.59956,14.74503 -14.73116,14.74503 l -132.64981,0 c -8.1316,0 -14.73809,-6.6065 -14.73809,-14.74503 l 0,-176.857165 c 0,-8.138535 6.60649,-14.738097 14.73809,-14.738097 l 132.64981,0 c 8.1316,0 14.73116,6.599562 14.73116,14.738097 l 0,176.857165 z"
     id="path4042"
     style="fill:none;stroke:#000000;stroke-width:3.90289235;stroke-linecap:butt;stroke-linejoin:miter;stroke-miterlimit:4;stroke-opacity:1;stroke-dasharray:none" />
  <path
     d="m 59.36971,34.430414 c -2.94623,-1.975709 -6.42625,-3.105677 -10.02412,-3.105677 -8.21479,0 -10.56485,6.585698 -10.56485,13.850762 0,8.291046 4.02768,15.008457 12.97036,15.008457 4.67238,0 8.92882,-1.746943 12.9565,-3.902892 l -3.0017,8.762443 c -3.90289,1.074509 -7.9167,1.441922 -11.94437,1.441922 -6.1143,0 -11.28581,-1.039847 -16.07604,-5.157641 -4.63078,-3.909825 -7.08482,-9.552727 -7.08482,-15.667027 0,-5.531986 2.33619,-11.348197 6.53717,-15.084713 4.5684,-3.882096 10.86294,-5.324017 16.74847,-5.324017 l 9.06053,0.776419 0.42315,8.401964 z"
     id="path4060"
     style="fill:#ffffff;fill-opacity:1;fill-rule:nonzero;stroke:none" />
  <path
     d="m 79.47342,59.033192 c 1.98264,0.804148 4.20792,0.908133 6.30841,0.908133 3.35524,0 6.47478,-0.54793 8.75551,-3.306713 l 0.30502,0 -2.40551,9.060533 -26.58542,0 0,-0.186895 c 2.9393,-1.843996 2.51643,-5.220032 2.51643,-8.325708 l 0,-22.460694 c 0,-3.112608 0.42314,-6.537171 -2.51643,-8.325708 l 0,-0.186895 21.0049,0 c 0.90121,0 1.8648,0 2.52337,-0.312231 l 0.18024,0 0,8.713917 -0.18024,0 c -1.62216,-2.828384 -5.04673,-2.516429 -7.98603,-2.516429 l -1.92025,0 0,9.71217 5.58051,0 c 0.85268,0 1.67762,-0.04991 2.22528,-0.291157 l 0.30502,0 0,8.395031 -0.30502,0 c -0.84575,-2.398581 -3.59787,-2.15595 -5.82315,-2.15595 l -1.98264,0 0,11.278873 z"
     id="path4078"
     style="fill:#ffffff;fill-opacity:1;fill-rule:nonzero;stroke:none" />
  <path
     d="m 110.07958,32.031833 c 1.19929,0 2.47484,0.117572 3.48696,0.831878 1.62216,1.143832 2.40551,3.174999 2.40551,5.122979 0,3.771178 -2.77293,6.946178 -6.48171,7.597815 l 0,-13.552672 0.58924,0 m -0.58924,16.748468 6.96004,13.074342 c 2.08662,3.71572 4.02074,4.263373 8.04148,4.041539 l 8.29105,-0.547376 c -2.41245,-1.975709 -4.15246,-4.512935 -5.77462,-7.209605 l -7.14028,-11.944375 c 3.96528,-1.691484 7.14028,-4.977401 7.14028,-9.483404 0,-4.027674 -1.8024,-7.195741 -5.34481,-9.129856 -2.69667,-1.434989 -5.08832,-1.372598 -8.02762,-1.372598 l -17.77445,0 0,0.186895 c 2.93237,1.850928 2.53029,5.261626 2.53029,8.388099 l 0,22.328979 c 0,3.133406 0.40208,6.551036 -2.53029,8.395031 l 0,0.186896 16.14536,0 0,-0.186896 c -2.94624,-1.843995 -2.51643,-5.261625 -2.51643,-8.395031 l 0,-8.33264 z"
     id="path4096"
     style="fill:#ffffff;fill-opacity:1;fill-rule:nonzero;stroke:none" />
  <path
     d="m 141.19874,44.211907 c 0,-6.183623 3.12647,-12.963425 10.21129,-12.963425 8.22866,0 10.91146,9.781494 10.91146,16.630619 0,2.9393 -0.40928,5.99645 -2.21834,8.401963 -1.92025,2.57882 -4.79023,4.200982 -7.97909,4.200982 -3.41763,0 -6.42625,-2.287664 -8.09001,-5.171506 -1.69842,-3.001691 -2.83531,-7.618612 -2.83531,-11.098633 m -11.65322,1.615229 c 0,12.6792 9.55966,20.658293 21.86451,20.658293 12.18701,0 22.56468,-7.625545 22.56468,-20.699887 0,-13.212988 -9.24077,-20.533511 -21.85065,-20.533511 -12.18007,0 -22.57854,7.805785 -22.57854,20.575105"
     id="path4114"
     style="fill:#ffffff;fill-opacity:1;fill-rule:nonzero;stroke:none" />
  <path
     d="m 58.10803,173.56886 c 12.89876,0 17.11111,0 38.69617,0 7.50077,0 26.61315,-0.76255 37.1364,-10.88373 10.14891,-9.69137 11.84733,-23.40349 11.84733,-32.76904 0,-5.76769 -0.96359,-25.1435 -12.45044,-34.169366 -6.90458,-5.4488 -15.8542,-11.43139 -36.53329,-11.43139 l -38.69617,0 0,89.253526 z m 27.45196,-68.79627 14.39148,0 c 12.21474,0 17.53182,10.99465 17.53182,23.72931 0,10.02412 -3.38297,24.60277 -17.53182,24.60277 l -14.39148,0 0,-48.33208 z"
     id="path4132"
     style="fill:none;stroke:#ffffff;stroke-width:21.13662148;stroke-linecap:butt;stroke-linejoin:miter;stroke-miterlimit:4;stroke-opacity:1;stroke-dasharray:none" />
  <path
     d="m 58.10803,173.56886 38.69617,0 c 7.50077,0 26.61315,-0.76255 37.1364,-10.88373 10.14891,-9.69137 11.84733,-23.40349 11.84733,-32.76904 0,-5.76769 -0.96359,-25.1435 -12.45044,-34.169366 -6.90458,-5.4488 -15.8542,-11.43139 -36.53329,-11.43139 l -38.69617,0 0,89.253526 z m 27.45196,-68.79627 14.39148,0 c 12.21474,0 17.53182,10.99465 17.53182,23.72931 0,10.02412 -3.38297,24.60277 -17.53182,24.60277 l -14.39148,0 0,-48.33208 z"
     id="path4150"
     style="fill:none;stroke:#000000;stroke-width:10.56484509;stroke-linecap:butt;stroke-linejoin:miter;stroke-miterlimit:4;stroke-opacity:1;stroke-dasharray:none" />
  <path
     d="m 58.10803,173.56886 38.69617,0 c 7.50077,0 26.61315,-0.76255 37.1364,-10.88373 10.14891,-9.69137 11.84733,-23.40349 11.84733,-32.76904 0,-5.76769 -0.96359,-25.1435 -12.45044,-34.169366 -6.90458,-5.4488 -15.8542,-11.43139 -36.53329,-11.43139 l -38.69617,0 0,89.253526 z m 27.45196,-68.79627 14.39148,0 c 12.21474,0 17.53182,10.99465 17.53182,23.72931 0,10.02412 -3.38297,24.60277 -17.53182,24.60277 l -14.39148,0 0,-48.33208 z"
     id="path4168"
     style="fill:#000000;fill-opacity:1;fill-rule:nonzero;stroke:none" />
  <path
     d="m 56.34723,173.56886 38.69617,0 c 7.50076,0 26.61315,-0.76255 37.1364,-10.88373 10.1489,-9.69137 11.85425,-23.40349 11.85425,-32.76904 0,-5.76769 -0.97052,-25.1435 -12.45736,-34.169366 -6.89766,-5.4488 -15.84727,-11.43139 -36.53329,-11.43139 l -38.69617,0 0,89.253526 z m 27.45195,-68.79627 14.39149,0 c 12.21473,0 17.53875,10.99465 17.53875,23.72931 0,10.02412 -3.3899,24.60277 -17.53875,24.60277 l -14.39149,0 0,-48.33208 z"
     id="path4186"
     style="fill:#ffffff;fill-opacity:1;fill-rule:nonzero;stroke:none" />
  <path
     d="m 27.55733,197.38829 0,2.97396 3.50775,0 0,18.7935 2.7452,0 0,-21.76746 -6.25295,0 z"
     id="path4204"
     style="fill:#000000;fill-opacity:1;fill-rule:nonzero;stroke:none" />
  <path
     d="m 56.4928,197.38829 0,3.06408 -8.83176,18.70338 -3.29978,0 9.2685,-18.7935 -12.13155,0 0,-2.97396 14.99459,0 z"
     id="path4222"
     style="fill:#000000;fill-opacity:1;fill-rule:nonzero;stroke:none" />
  <path
     d="m 58.51011,213.93572 c 5.81621,-1.24088 9.00507,-3.12647 11.02237,-4.3119 l 0,-6.48864 -11.02237,0 0,-2.82146 11.02237,0 0,-4.58919 2.5095,0 0,4.58919 7.79885,0 0,2.82146 -7.79885,0 0,4.7209 c 2.14902,-1.74001 3.00169,-2.98089 3.54935,-3.78504 l 2.00343,1.85093 c -0.92199,1.18542 -2.50949,3.29284 -5.55278,5.31015 l 0,8.22865 c 0,1.35874 -0.78335,2.18368 -2.11435,2.18368 l -4.54067,0 -0.36713,-2.86998 3.76424,0 c 0.73483,0 0.74869,-0.24956 0.74869,-0.8596 l 0,-5.1923 c -4.44361,2.4263 -8.09001,3.48002 -10.12811,4.0346 l -0.89427,-2.82145 z"
     id="path4240"
     style="fill:#000000;fill-opacity:1;fill-rule:nonzero;stroke:none" />
  <path
     d="m 90.2809,197.27044 c 2.04503,2.35005 3.07101,4.06233 4.7209,7.32745 l -2.19754,1.844 c -1.49045,-3.30671 -2.31539,-4.65851 -4.38122,-7.4869 l 1.85786,-1.68455 m -8.8803,19.15398 c 0.62391,-0.22183 1.01212,-0.33275 2.15595,-0.79722 l 0,-19.40354 2.50257,0 0,18.37756 c 0,0 3.67412,-1.60136 6.14896,-2.90464 l 0.47805,2.62735 c -2.65507,1.51818 -7.79885,3.94449 -10.84907,5.08138 l -0.43701,-2.98089 m 19.63231,-15.06392 c 0,4.00688 -0.7071,8.67926 -2.0589,11.7988 2.0589,2.57189 3.02249,3.81971 4.22178,5.89247 l -2.04503,2.50949 c -0.89427,-2.15595 -2.0381,-3.86823 -3.50775,-5.96872 -2.77293,4.20098 -6.3292,5.50426 -7.89591,6.05191 l -1.27554,-2.84225 c 9.33089,-2.6828 9.99639,-10.77974 9.99639,-17.62887 l 0,-4.75556 2.56496,0 0,4.94273 z"
     id="path4258"
     style="fill:#000000;fill-opacity:1;fill-rule:nonzero;stroke:none" />
  <path
     d="m 115.81261,195.72453 0,8.34651 8.59606,0 0,2.95316 -8.59606,0 0,10.77975 10.06571,0 0,2.90464 -21.6912,0 0,-2.90464 9.10212,0 0,-22.07942 2.52337,0 z"
     id="path4276"
     style="fill:#000000;fill-opacity:1;fill-rule:nonzero;stroke:none" />
  <path
     d="m 144.31134,195.70374 0,5.10911 -5.55278,0 0,2.95317 5.55278,0 0,14.34295 c 0,0.58232 -0.0499,0.6655 -0.78335,0.6655 l -3.55627,0 0.60311,2.84225 3.47309,0 c 1.76774,0 2.71053,-0.38821 2.71053,-2.50949 l 0,-15.34121 1.90639,0 0,-2.95317 -1.90639,0 0,-5.10911 -2.44711,0 m -16.56129,10.98771 c 0.82494,0.77642 2.33619,2.15595 4.3119,4.81103 -1.81627,4.0346 -4.18019,6.16282 -5.13685,7.04323 l 1.64989,2.55109 c 1.6083,-1.58057 3.63947,-3.78504 5.17844,-7.18881 1.28941,1.96185 2.0173,3.4315 2.50257,4.38815 l 1.92718,-1.84399 c -0.84574,-1.96185 -2.24607,-3.98608 -3.30671,-5.42107 1.17156,-3.61867 1.63602,-6.68275 1.86479,-8.31877 l 1.32407,0 0,-2.81452 -3.98608,0 0,-4.19405 -2.43324,0 0,4.19405 -4.3119,0 0,2.81452 6.94618,0 c -0.13144,1.35873 -0.36048,3.37603 -1.17156,6.0519 -1.83013,-2.2322 -2.97397,-3.3691 -3.61867,-4.00687 l -1.74001,1.93411 m 10.13504,0.77642 c 1.15076,2.15595 2.19754,4.92194 2.89077,7.32052 l 2.34313,-1.37953 c -1.37953,-4.22871 -2.36392,-6.13509 -3.05715,-7.34825 l -2.17675,1.40726 z"
     id="path4294"
     style="fill:#000000;fill-opacity:1;fill-rule:nonzero;stroke:none" />
  <path
     d="m 168.04758,205.92197 -6.00338,0 0,-2.57189 6.00338,0 0,2.57189 z m -13.71211,-4.74864 c 1.00518,-0.69323 1.71921,-1.27554 2.20447,-1.74001 l 6.6273,0 c -0.43702,0.60311 -0.89427,1.12997 -1.49738,1.74001 l -7.33439,0 m -3.16114,16.13843 c 4.51294,-1.1369 7.24427,-2.59962 8.77631,-3.68106 0.14586,0.36048 0.21463,0.60311 0.29781,0.97052 -1.42112,0.99132 -4.69317,2.81452 -10.11424,3.97222 l 0.76255,2.43324 c 5.019,-1.40726 8.11774,-3.06408 9.69831,-4.17325 0.0499,1.63602 -0.0693,2.07276 -1.3934,2.07276 l -2.02423,0 0.52686,2.73826 2.09355,0 c 1.24089,0 3.07107,0 3.07107,-4.0346 0,-0.51965 -0.0693,-4.09007 -1.64994,-6.41239 -0.43702,-0.60311 -0.75562,-0.99826 -0.97047,-1.21316 0.99132,-0.52685 1.79547,-1.1369 2.75906,-1.85093 1.14378,8.47822 4.44356,10.97386 7.61168,12.81785 l 1.46965,-2.5095 c -0.78335,-0.4786 -2.82145,-1.68455 -4.42282,-3.59787 1.46272,-0.99132 2.54416,-2.0173 3.6672,-3.175 l -1.87866,-1.96184 c -0.89427,1.1577 -2.0173,2.07276 -3.12647,2.9601 -0.31889,-0.72096 -0.82495,-2.35006 -1.14383,-4.53374 l 5.14377,0 0,-6.96004 -5.30322,0 c 0.96359,-1.1161 1.10224,-1.27554 1.42113,-1.74001 l 0,-2.21834 -7.9583,0 c 0.25622,-0.35382 0.36714,-0.52685 0.6863,-1.04678 l -2.44711,-0.61004 c -2.55109,3.72958 -5.73995,4.75556 -6.86299,5.10911 l 0.9636,2.43324 c 0.57538,-0.24235 0.71402,-0.33275 1.02598,-0.49247 l 0,5.52506 7.59781,0 c -2.7244,1.5459 -5.73302,2.23913 -8.69312,2.84918 l 0.78335,2.25993 c 1.28248,-0.27008 3.77812,-0.82494 6.73821,-2.21141 0.31889,0.33275 0.50634,0.56152 0.6655,0.77642 -2.63427,1.68455 -5.52505,2.62735 -8.48515,3.06408 l 0.71403,2.44018 m 8.66539,-11.38979 -5.75382,0 0,-2.57189 5.75382,0 0,2.57189 z"
     id="path4310"
     style="fill:#000000;fill-opacity:1;fill-rule:nonzero;stroke:none" />
</svg>
